<svg xmlns="http://www.w3.org/2000/svg" width="24" height="24" viewBox="0 0 24 24" role="img" aria-label="Actividad"><rect width="24" height="24" rx="12" fill="#1a1400"/><path d="M12 7.2l1.3.4.8-1.1 1.6.9-.3 1.3 1.1.8 1.2-.6.9 1.6-1 .9.2 1.3 1.3.4v1.8l-1.3.4-.2 1.3 1 .9-.9 1.6-1.2-.6-1.1.8.3 1.3-1.6.9-.8-1.1-1.3.4-1.3-.4-.8 1.1-1.6-.9.3-1.3-1.1-.8-1.2.6-.9-1.6 1-.9-.2-1.3-1.3-.4v-1.8l1.3-.4.2-1.3-1-.9.9-1.6 1.2.6 1.1-.8-.3-1.3 1.6-.9.8 1.1L12 7.2Z" fill="#ffcc00"/><circle cx="12" cy="12" r="2.3" fill="#221900"/></svg>