<svg xmlns="http://www.w3.org/2000/svg" viewBox="0 0 640 480" font-family="Helvetica">
  <rect x="0" y="0" width="640" height="480" fill="white"/>
  <text x="320.0" y="24" font-size="15" font-weight="bold" text-anchor="middle">
    Boceto de Disposición de PCB — Desarrollo de Sistema de Control de Iluminación por Comando de Voz - Módulo de reconocimiento de voz
  </text>
  <rect x="10" y="40" width="620" height="400" rx="6"
        fill="#166534" fill-opacity="0.08" stroke="#166534" stroke-width="2"/>
  <rect x="50" y="50" width="120" height="320" rx="4" fill="#fde68a" stroke="#92400e" stroke-width="1.5"/><text x="110.0" y="210.0" font-size="11" text-anchor="middle" dominant-baseline="middle" font-family="Helvetica">U1</text><rect x="190" y="50" width="120" height="320" rx="4" fill="#fde68a" stroke="#92400e" stroke-width="1.5"/><text x="250.0" y="210.0" font-size="11" text-anchor="middle" dominant-baseline="middle" font-family="Helvetica">U2</text><rect x="330" y="50" width="120" height="320" rx="4" fill="#fde68a" stroke="#92400e" stroke-width="1.5"/><text x="390.0" y="210.0" font-size="11" text-anchor="middle" dominant-baseline="middle" font-family="Helvetica">U3</text><rect x="470" y="50" width="120" height="320" rx="4" fill="#fde68a" stroke="#92400e" stroke-width="1.5"/><text x="530.0" y="210.0" font-size="11" text-anchor="middle" dominant-baseline="middle" font-family="Helvetica">U4</text>
  <path d="M110.0,210.0 L110.0,210.0 L250.0,210.0 L250.0,210.0" fill="none" stroke="#b45309" stroke-width="2"/><path d="M250.0,210.0 L250.0,210.0 L390.0,210.0 L390.0,210.0" fill="none" stroke="#b45309" stroke-width="2"/><path d="M390.0,210.0 L390.0,210.0 L530.0,210.0 L530.0,210.0" fill="none" stroke="#b45309" stroke-width="2"/>
  <text x="320.0" y="460" font-size="10" fill="#64748b" text-anchor="middle">
    Croquis conceptual de posición de componentes y trazas — NO apto para fabricación.
    Ruteo real debe hacerse en KiCad / Proteus ARES a partir del esquemático.
  </text>
</svg>