<?xml version="1.0" encoding="UTF-8" standalone="no"?>
<!DOCTYPE svg PUBLIC "-//W3C//DTD SVG 1.1//EN"
 "http://www.w3.org/Graphics/SVG/1.1/DTD/svg11.dtd">
<!-- Generated by graphviz version 14.1.3 (20260303.0454)
 -->
<!-- Title: uml_diagrams Pages: 1 -->
<svg width="923pt" height="386pt"
 viewBox="0.00 0.00 923.00 386.00" xmlns="http://www.w3.org/2000/svg" xmlns:xlink="http://www.w3.org/1999/xlink">
<g id="graph0" class="graph" transform="scale(1 1) rotate(0) translate(36 350)">
<title>uml_diagrams</title>
<polygon fill="white" stroke="none" points="-36,36 -36,-350 887,-350 887,36 -36,36"/>
<text xml:space="preserve" text-anchor="middle" x="425.5" y="-298.6" font-family="Helvetica,sans-Serif" font-size="12.00">Diagramas UML (Clases y Casos de Uso)</text>
<g id="clust1" class="cluster">
<title>cluster_use_case</title>
<path fill="#f0fdf4" stroke="#15803d" d="M20,-28C20,-28 548,-28 548,-28 554,-28 560,-34 560,-40 560,-40 560,-232.62 560,-232.62 560,-238.62 554,-244.62 548,-244.62 548,-244.62 20,-244.62 20,-244.62 14,-244.62 8,-238.62 8,-232.62 8,-232.62 8,-40 8,-40 8,-34 14,-28 20,-28"/>
<text xml:space="preserve" text-anchor="middle" x="284" y="-229.22" font-family="Helvetica,sans-Serif" font-size="12.00" fill="#14532d">Casos de Uso</text>
</g>
<g id="clust2" class="cluster">
<title>cluster_classes</title>
<path fill="#eff6ff" stroke="#1d4ed8" d="M580,-8C580,-8 831,-8 831,-8 837,-8 843,-14 843,-20 843,-20 843,-271.75 843,-271.75 843,-277.75 837,-283.75 831,-283.75 831,-283.75 580,-283.75 580,-283.75 574,-283.75 568,-277.75 568,-271.75 568,-271.75 568,-20 568,-20 568,-14 574,-8 580,-8"/>
<text xml:space="preserve" text-anchor="middle" x="705.5" y="-268.35" font-family="Helvetica,sans-Serif" font-size="12.00" fill="#1e3a8a">Diagrama de Clases</text>
</g>
<!-- Actor -->
<g id="node1" class="node">
<title>Actor</title>
<polygon fill="#f1f5f9" stroke="#475569" points="273.5,-214.38 212.5,-214.38 212.5,-178.38 273.5,-178.38 273.5,-214.38"/>
<text xml:space="preserve" text-anchor="middle" x="243" y="-199.62" font-family="Helvetica,sans-Serif" font-size="10.00">Usuario /</text>
<text xml:space="preserve" text-anchor="middle" x="243" y="-186.88" font-family="Helvetica,sans-Serif" font-size="10.00">Operador</text>
</g>
<!-- UC1 -->
<g id="node2" class="node">
<title>UC1</title>
<ellipse fill="#dcfce7" stroke="#16a34a" cx="85" cy="-54" rx="68.53" ry="18"/>
<text xml:space="preserve" text-anchor="middle" x="85" y="-50.88" font-family="Helvetica,sans-Serif" font-size="10.00">Monitorear Variable</text>
</g>
<!-- Actor&#45;&gt;UC1 -->
<g id="edge1" class="edge">
<title>Actor&#45;&gt;UC1</title>
<path fill="none" stroke="black" d="M223.31,-177.88C195.18,-152.89 143.41,-106.89 111.81,-78.82"/>
<polygon fill="black" stroke="black" points="114.4,-76.44 104.6,-72.41 109.75,-81.67 114.4,-76.44"/>
</g>
<!-- UC2 -->
<g id="node3" class="node">
<title>UC2</title>
<ellipse fill="#dcfce7" stroke="#16a34a" cx="243" cy="-54" rx="71.28" ry="18"/>
<text xml:space="preserve" text-anchor="middle" x="243" y="-50.88" font-family="Helvetica,sans-Serif" font-size="10.00">Configurar Umbrales</text>
</g>
<!-- Actor&#45;&gt;UC2 -->
<g id="edge2" class="edge">
<title>Actor&#45;&gt;UC2</title>
<path fill="none" stroke="black" d="M243,-177.88C243,-154.21 243,-111.71 243,-83.43"/>
<polygon fill="black" stroke="black" points="246.5,-83.79 243,-73.79 239.5,-83.79 246.5,-83.79"/>
</g>
<!-- UC3 -->
<g id="node4" class="node">
<title>UC3</title>
<ellipse fill="#dcfce7" stroke="#16a34a" cx="442" cy="-54" rx="109.83" ry="18"/>
<text xml:space="preserve" text-anchor="middle" x="442" y="-50.88" font-family="Helvetica,sans-Serif" font-size="10.00">Controlar Actuador (Manual/Auto)</text>
</g>
<!-- Actor&#45;&gt;UC3 -->
<g id="edge3" class="edge">
<title>Actor&#45;&gt;UC3</title>
<path fill="none" stroke="black" d="M267.8,-177.88C303.42,-152.76 369.12,-106.41 408.86,-78.38"/>
<polygon fill="black" stroke="black" points="410.74,-81.33 416.89,-72.71 406.7,-75.61 410.74,-81.33"/>
</g>
<!-- Controlador -->
<g id="node5" class="node">
<title>Controlador</title>
<polygon fill="#bfdbfe" stroke="#2563eb" points="602.38,-139.75 602.38,-253 725.62,-253 725.62,-139.75 602.38,-139.75"/>
<text xml:space="preserve" text-anchor="middle" x="664" y="-239.5" font-family="Helvetica,sans-Serif" font-size="10.00">Controlador</text>
<polyline fill="none" stroke="#2563eb" points="602.38,-232.25 725.62,-232.25"/>
<text xml:space="preserve" text-anchor="start" x="610.38" y="-218.75" font-family="Helvetica,sans-Serif" font-size="10.00">+ PIN_SENSOR: int</text>
<text xml:space="preserve" text-anchor="start" x="610.38" y="-206" font-family="Helvetica,sans-Serif" font-size="10.00">+ PIN_ACTUADOR: int</text>
<text xml:space="preserve" text-anchor="start" x="610.38" y="-193.25" font-family="Helvetica,sans-Serif" font-size="10.00">+ umbral_alto: float</text>
<text xml:space="preserve" text-anchor="start" x="610.38" y="-180.5" font-family="Helvetica,sans-Serif" font-size="10.00">+ umbral_bajo: float</text>
<polyline fill="none" stroke="#2563eb" points="602.38,-173.25 725.62,-173.25"/>
<text xml:space="preserve" text-anchor="start" x="610.38" y="-159.75" font-family="Helvetica,sans-Serif" font-size="10.00">+ setup(): void</text>
<text xml:space="preserve" text-anchor="start" x="610.38" y="-147" font-family="Helvetica,sans-Serif" font-size="10.00">+ loop(): void</text>
</g>
<!-- Sensor -->
<g id="node6" class="node">
<title>Sensor</title>
<polygon fill="#bfdbfe" stroke="#2563eb" points="576.38,-22.88 576.38,-85.12 687.62,-85.12 687.62,-22.88 576.38,-22.88"/>
<text xml:space="preserve" text-anchor="middle" x="632" y="-71.62" font-family="Helvetica,sans-Serif" font-size="10.00">Sensor</text>
<polyline fill="none" stroke="#2563eb" points="576.38,-64.38 687.62,-64.38"/>
<text xml:space="preserve" text-anchor="start" x="584.38" y="-50.88" font-family="Helvetica,sans-Serif" font-size="10.00">+ pin: int</text>
<polyline fill="none" stroke="#2563eb" points="576.38,-43.62 687.62,-43.62"/>
<text xml:space="preserve" text-anchor="start" x="584.38" y="-30.12" font-family="Helvetica,sans-Serif" font-size="10.00">+ leer_valor(): float</text>
</g>
<!-- Controlador&#45;&gt;Sensor -->
<g id="edge4" class="edge">
<title>Controlador&#45;&gt;Sensor</title>
<path fill="none" stroke="black" d="M651.26,-139.49C647.97,-125.04 644.48,-109.74 641.39,-96.19"/>
<polygon fill="black" stroke="black" points="639.17,-86.46 645.78,-95.21 640.01,-90.15 641.39,-96.21 641.39,-96.21 641.39,-96.21 640.01,-90.15 637.01,-97.21 639.17,-86.46"/>
<text xml:space="preserve" text-anchor="middle" x="664.67" y="-112.7" font-family="Helvetica,sans-Serif" font-size="9.00">1..* usa</text>
</g>
<!-- Actuador -->
<g id="node7" class="node">
<title>Actuador</title>
<polygon fill="#bfdbfe" stroke="#2563eb" points="705.38,-16.5 705.38,-91.5 834.62,-91.5 834.62,-16.5 705.38,-16.5"/>
<text xml:space="preserve" text-anchor="middle" x="770" y="-78" font-family="Helvetica,sans-Serif" font-size="10.00">Actuador</text>
<polyline fill="none" stroke="#2563eb" points="705.38,-70.75 834.62,-70.75"/>
<text xml:space="preserve" text-anchor="start" x="713.38" y="-57.25" font-family="Helvetica,sans-Serif" font-size="10.00">+ pin: int</text>
<text xml:space="preserve" text-anchor="start" x="713.38" y="-44.5" font-family="Helvetica,sans-Serif" font-size="10.00">+ estado: bool</text>
<polyline fill="none" stroke="#2563eb" points="705.38,-37.25 834.62,-37.25"/>
<text xml:space="preserve" text-anchor="start" x="713.38" y="-23.75" font-family="Helvetica,sans-Serif" font-size="10.00">+ conmutar(bool): void</text>
</g>
<!-- Controlador&#45;&gt;Actuador -->
<g id="edge5" class="edge">
<title>Controlador&#45;&gt;Actuador</title>
<path fill="none" stroke="black" d="M706.2,-139.49C715.95,-126.57 726.22,-112.98 735.6,-100.56"/>
<polygon fill="black" stroke="black" points="741.51,-92.72 739.08,-103.42 739.24,-95.74 735.49,-100.7 735.49,-100.7 735.49,-100.7 739.24,-95.74 731.9,-97.99 741.51,-92.72"/>
<text xml:space="preserve" text-anchor="middle" x="738.87" y="-112.7" font-family="Helvetica,sans-Serif" font-size="9.00">1 usa</text>
</g>
</g>
</svg>
