<?xml version="1.0" encoding="UTF-8" standalone="no"?>
<!DOCTYPE svg PUBLIC "-//W3C//DTD SVG 1.1//EN"
 "http://www.w3.org/Graphics/SVG/1.1/DTD/svg11.dtd">
<!-- Generated by graphviz version 14.1.3 (20260303.0454)
 -->
<!-- Title: arquitectura_sw Pages: 1 -->
<svg width="890pt" height="445pt"
 viewBox="0.00 0.00 890.00 445.00" xmlns="http://www.w3.org/2000/svg" xmlns:xlink="http://www.w3.org/1999/xlink">
<g id="graph0" class="graph" transform="scale(1 1) rotate(0) translate(43.2 402.2)">
<title>arquitectura_sw</title>
<polygon fill="white" stroke="none" points="-43.2,43.2 -43.2,-402.2 847.2,-402.2 847.2,43.2 -43.2,43.2"/>
<text xml:space="preserve" text-anchor="middle" x="402" y="-342.65" font-family="Helvetica,sans-Serif" font-size="13.00">Diagrama de Arquitectura de Software</text>
<text xml:space="preserve" text-anchor="middle" x="402" y="-326.15" font-family="Helvetica,sans-Serif" font-size="13.00">Capas, módulos y comunicación</text>
<g id="clust1" class="cluster">
<title>cluster_ui</title>
<path fill="#eff6ff" stroke="#2563eb" d="M60,-233.5C60,-233.5 197,-233.5 197,-233.5 203,-233.5 209,-239.5 209,-245.5 209,-245.5 209,-298 209,-298 209,-304 203,-310 197,-310 197,-310 60,-310 60,-310 54,-310 48,-304 48,-298 48,-298 48,-245.5 48,-245.5 48,-239.5 54,-233.5 60,-233.5"/>
<text xml:space="preserve" text-anchor="middle" x="128.5" y="-293.65" font-family="Helvetica,sans-Serif" font-size="13.00">Capa de Presentación</text>
</g>
<g id="clust2" class="cluster">
<title>cluster_logic</title>
<path fill="#f5f3ff" stroke="#7c3aed" d="M20,-8C20,-8 188,-8 188,-8 194,-8 200,-14 200,-20 200,-20 200,-185.25 200,-185.25 200,-191.25 194,-197.25 188,-197.25 188,-197.25 20,-197.25 20,-197.25 14,-197.25 8,-191.25 8,-185.25 8,-185.25 8,-20 8,-20 8,-14 14,-8 20,-8"/>
<text xml:space="preserve" text-anchor="middle" x="104" y="-180.9" font-family="Helvetica,sans-Serif" font-size="13.00">Capa de Lógica de Control</text>
</g>
<g id="clust3" class="cluster">
<title>cluster_hal</title>
<path fill="#fff7ed" stroke="#ea580c" d="M220,-8C220,-8 480,-8 480,-8 486,-8 492,-14 492,-20 492,-20 492,-72.5 492,-72.5 492,-78.5 486,-84.5 480,-84.5 480,-84.5 220,-84.5 220,-84.5 214,-84.5 208,-78.5 208,-72.5 208,-72.5 208,-20 208,-20 208,-14 214,-8 220,-8"/>
<text xml:space="preserve" text-anchor="middle" x="350" y="-68.15" font-family="Helvetica,sans-Serif" font-size="13.00">Capa de Abstracción de Hardware (HAL)</text>
</g>
<g id="clust4" class="cluster">
<title>cluster_infra</title>
<path fill="#f0fdf4" stroke="#16a34a" d="M512,-8C512,-8 784,-8 784,-8 790,-8 796,-14 796,-20 796,-20 796,-72.5 796,-72.5 796,-78.5 790,-84.5 784,-84.5 784,-84.5 512,-84.5 512,-84.5 506,-84.5 500,-78.5 500,-72.5 500,-72.5 500,-20 500,-20 500,-14 506,-8 512,-8"/>
<text xml:space="preserve" text-anchor="middle" x="648" y="-68.15" font-family="Helvetica,sans-Serif" font-size="13.00">Capa de Infraestructura</text>
</g>
<!-- UI -->
<g id="node1" class="node">
<title>UI</title>
<path fill="lightgrey" stroke="black" d="M179.5,-277.5C179.5,-277.5 76.5,-277.5 76.5,-277.5 70.5,-277.5 64.5,-271.5 64.5,-265.5 64.5,-265.5 64.5,-253.5 64.5,-253.5 64.5,-247.5 70.5,-241.5 76.5,-241.5 76.5,-241.5 179.5,-241.5 179.5,-241.5 185.5,-241.5 191.5,-247.5 191.5,-253.5 191.5,-253.5 191.5,-265.5 191.5,-265.5 191.5,-271.5 185.5,-277.5 179.5,-277.5"/>
<text xml:space="preserve" text-anchor="middle" x="128" y="-262.55" font-family="Helvetica,sans-Serif" font-size="11.00">Interfaz de usuario /</text>
<text xml:space="preserve" text-anchor="middle" x="128" y="-249.05" font-family="Helvetica,sans-Serif" font-size="11.00">Consola de estado</text>
</g>
<!-- CTRL -->
<g id="node2" class="node">
<title>CTRL</title>
<path fill="lightgrey" stroke="black" d="M179.5,-164.75C179.5,-164.75 76.5,-164.75 76.5,-164.75 70.5,-164.75 64.5,-158.75 64.5,-152.75 64.5,-152.75 64.5,-140.75 64.5,-140.75 64.5,-134.75 70.5,-128.75 76.5,-128.75 76.5,-128.75 179.5,-128.75 179.5,-128.75 185.5,-128.75 191.5,-134.75 191.5,-140.75 191.5,-140.75 191.5,-152.75 191.5,-152.75 191.5,-158.75 185.5,-164.75 179.5,-164.75"/>
<text xml:space="preserve" text-anchor="middle" x="128" y="-149.8" font-family="Helvetica,sans-Serif" font-size="11.00">Máquina de estados</text>
<text xml:space="preserve" text-anchor="middle" x="128" y="-136.3" font-family="Helvetica,sans-Serif" font-size="11.00">(control principal)</text>
</g>
<!-- UI&#45;&gt;CTRL -->
<g id="edge1" class="edge">
<title>UI&#45;&gt;CTRL</title>
<path fill="none" stroke="black" d="M128,-241.2C128,-223.88 128,-196.95 128,-176.44"/>
<polygon fill="black" stroke="black" points="131.5,-176.45 128,-166.45 124.5,-176.45 131.5,-176.45"/>
<text xml:space="preserve" text-anchor="middle" x="173.38" y="-207.95" font-family="Helvetica,sans-Serif" font-size="9.00">comandos / eventos</text>
</g>
<!-- RULES -->
<g id="node3" class="node">
<title>RULES</title>
<path fill="lightgrey" stroke="black" d="M144.25,-52C144.25,-52 27.75,-52 27.75,-52 21.75,-52 15.75,-46 15.75,-40 15.75,-40 15.75,-28 15.75,-28 15.75,-22 21.75,-16 27.75,-16 27.75,-16 144.25,-16 144.25,-16 150.25,-16 156.25,-22 156.25,-28 156.25,-28 156.25,-40 156.25,-40 156.25,-46 150.25,-52 144.25,-52"/>
<text xml:space="preserve" text-anchor="middle" x="86" y="-37.05" font-family="Helvetica,sans-Serif" font-size="11.00">Reglas de decisión</text>
<text xml:space="preserve" text-anchor="middle" x="86" y="-23.55" font-family="Helvetica,sans-Serif" font-size="11.00">(umbrales / histéresis)</text>
</g>
<!-- CTRL&#45;&gt;RULES -->
<g id="edge2" class="edge">
<title>CTRL&#45;&gt;RULES</title>
<path fill="none" stroke="black" d="M121.44,-128.45C114.78,-110.89 104.37,-83.44 96.55,-62.83"/>
<polygon fill="black" stroke="black" points="99.87,-61.71 93.05,-53.6 93.33,-64.19 99.87,-61.71"/>
<text xml:space="preserve" text-anchor="middle" x="131.12" y="-95.2" font-family="Helvetica,sans-Serif" font-size="9.00">consulta</text>
</g>
<!-- SENSOR_DRV -->
<g id="node4" class="node">
<title>SENSOR_DRV</title>
<path fill="lightgrey" stroke="black" d="M319.75,-52C319.75,-52 236.25,-52 236.25,-52 230.25,-52 224.25,-46 224.25,-40 224.25,-40 224.25,-28 224.25,-28 224.25,-22 230.25,-16 236.25,-16 236.25,-16 319.75,-16 319.75,-16 325.75,-16 331.75,-22 331.75,-28 331.75,-28 331.75,-40 331.75,-40 331.75,-46 325.75,-52 319.75,-52"/>
<text xml:space="preserve" text-anchor="middle" x="278" y="-37.05" font-family="Helvetica,sans-Serif" font-size="11.00">Driver de sensor</text>
<text xml:space="preserve" text-anchor="middle" x="278" y="-23.55" font-family="Helvetica,sans-Serif" font-size="11.00">(ADC / I2C / SPI)</text>
</g>
<!-- CTRL&#45;&gt;SENSOR_DRV -->
<g id="edge3" class="edge">
<title>CTRL&#45;&gt;SENSOR_DRV</title>
<path fill="none" stroke="black" d="M151.44,-128.45C176.76,-109.75 217.27,-79.84 245.62,-58.91"/>
<polygon fill="black" stroke="black" points="247.54,-61.84 253.51,-53.08 243.39,-56.21 247.54,-61.84"/>
<text xml:space="preserve" text-anchor="middle" x="204.88" y="-95.2" font-family="Helvetica,sans-Serif" font-size="9.00">lee</text>
</g>
<!-- ACT_DRV -->
<g id="node5" class="node">
<title>ACT_DRV</title>
<path fill="lightgrey" stroke="black" d="M457.75,-52C457.75,-52 362.25,-52 362.25,-52 356.25,-52 350.25,-46 350.25,-40 350.25,-40 350.25,-28 350.25,-28 350.25,-22 356.25,-16 362.25,-16 362.25,-16 457.75,-16 457.75,-16 463.75,-16 469.75,-22 469.75,-28 469.75,-28 469.75,-40 469.75,-40 469.75,-46 463.75,-52 457.75,-52"/>
<text xml:space="preserve" text-anchor="middle" x="410" y="-37.05" font-family="Helvetica,sans-Serif" font-size="11.00">Driver de actuador</text>
<text xml:space="preserve" text-anchor="middle" x="410" y="-23.55" font-family="Helvetica,sans-Serif" font-size="11.00">(PWM / GPIO)</text>
</g>
<!-- CTRL&#45;&gt;ACT_DRV -->
<g id="edge4" class="edge">
<title>CTRL&#45;&gt;ACT_DRV</title>
<path fill="none" stroke="black" d="M191.59,-133.46C235.05,-123.64 293.21,-107.65 341,-84.5 354.92,-77.75 369.03,-68.22 380.82,-59.32"/>
<polygon fill="black" stroke="black" points="382.8,-62.21 388.55,-53.31 378.5,-56.69 382.8,-62.21"/>
<text xml:space="preserve" text-anchor="middle" x="335.25" y="-95.2" font-family="Helvetica,sans-Serif" font-size="9.00">escribe</text>
</g>
<!-- LOG -->
<g id="node6" class="node">
<title>LOG</title>
<path fill="lightgrey" stroke="black" d="M623.5,-52C623.5,-52 520.5,-52 520.5,-52 514.5,-52 508.5,-46 508.5,-40 508.5,-40 508.5,-28 508.5,-28 508.5,-22 514.5,-16 520.5,-16 520.5,-16 623.5,-16 623.5,-16 629.5,-16 635.5,-22 635.5,-28 635.5,-28 635.5,-40 635.5,-40 635.5,-46 629.5,-52 623.5,-52"/>
<text xml:space="preserve" text-anchor="middle" x="572" y="-37.05" font-family="Helvetica,sans-Serif" font-size="11.00">Registro de eventos</text>
<text xml:space="preserve" text-anchor="middle" x="572" y="-23.55" font-family="Helvetica,sans-Serif" font-size="11.00">(logging)</text>
</g>
<!-- CTRL&#45;&gt;LOG -->
<g id="edge5" class="edge">
<title>CTRL&#45;&gt;LOG</title>
<path fill="none" stroke="black" d="M191.94,-143.05C267.05,-138.09 394.3,-124.08 496,-84.5 512.06,-78.25 528.28,-68.3 541.58,-58.95"/>
<polygon fill="black" stroke="black" points="543.46,-61.91 549.49,-53.2 539.34,-56.25 543.46,-61.91"/>
<text xml:space="preserve" text-anchor="middle" x="484.86" y="-95.2" font-family="Helvetica,sans-Serif" font-size="9.00">registra</text>
</g>
<!-- COMM -->
<g id="node7" class="node">
<title>COMM</title>
<path fill="lightgrey" stroke="black" d="M776.25,-52C776.25,-52 665.75,-52 665.75,-52 659.75,-52 653.75,-46 653.75,-40 653.75,-40 653.75,-28 653.75,-28 653.75,-22 659.75,-16 665.75,-16 665.75,-16 776.25,-16 776.25,-16 782.25,-16 788.25,-22 788.25,-28 788.25,-28 788.25,-40 788.25,-40 788.25,-46 782.25,-52 776.25,-52"/>
<text xml:space="preserve" text-anchor="middle" x="721" y="-37.05" font-family="Helvetica,sans-Serif" font-size="11.00">Comunicación</text>
<text xml:space="preserve" text-anchor="middle" x="721" y="-23.55" font-family="Helvetica,sans-Serif" font-size="11.00">(UART / Wi&#45;Fi / MQTT)</text>
</g>
<!-- CTRL&#45;&gt;COMM -->
<g id="edge6" class="edge">
<title>CTRL&#45;&gt;COMM</title>
<path fill="none" stroke="black" d="M191.68,-141.99C310.93,-134.33 563.29,-115.02 645,-84.5 661.14,-78.47 677.37,-68.55 690.67,-59.17"/>
<polygon fill="black" stroke="black" points="692.56,-62.12 698.56,-53.39 688.42,-56.47 692.56,-62.12"/>
<text xml:space="preserve" text-anchor="middle" x="654.46" y="-95.2" font-family="Helvetica,sans-Serif" font-size="9.00">publica telemetría</text>
</g>
<!-- SENSOR_DRV&#45;&gt;RULES -->
<g id="edge7" class="edge">
<title>SENSOR_DRV&#45;&gt;RULES</title>
<path fill="none" stroke="black" d="M224,-34C206.62,-34 186.95,-34 168.02,-34"/>
<polygon fill="black" stroke="black" points="168.19,-30.5 158.19,-34 168.19,-37.5 168.19,-30.5"/>
<text xml:space="preserve" text-anchor="middle" x="190.25" y="-39.7" font-family="Helvetica,sans-Serif" font-size="9.00">dato crudo</text>
</g>
</g>
</svg>
