<svg xmlns="http://www.w3.org/2000/svg" width="941.002" height="369.729" viewBox="0 0 941.002 369.729">
  <g id="Grupo_66011" data-name="Grupo 66011" transform="translate(-315.998 -753.427)">
    <g id="Trazado_110601" data-name="Trazado 110601" transform="translate(952 778)" fill="#c8c9aa">
      <path d="M 83 83 L 1 83 L 1 1 L 83 1 C 88.535400390625 1 93.90470123291016 2.083899974822998 98.95874786376953 4.221566677093506 C 103.8408813476562 6.286533355712891 108.2256851196289 9.24293327331543 111.9913864135742 13.00861644744873 C 115.7570648193359 16.77431678771973 118.7134704589844 21.15911674499512 120.778434753418 26.04125022888184 C 122.9160995483398 31.09530067443848 124 36.464599609375 124 42 C 124 47.535400390625 122.9160995483398 52.90470123291016 120.778434753418 57.9587516784668 C 118.7134704589844 62.84088516235352 115.7570648193359 67.22568511962891 111.9913864135742 70.99138641357422 C 108.2256851196289 74.75706481933594 103.8408813476562 77.71347045898438 98.95874786376953 79.77843475341797 C 93.90470123291016 81.91609954833984 88.535400390625 83 83 83 Z" stroke="none"/>
      <path d="M 2 2 L 2 82 L 83 82 C 88.40085601806641 82 93.63906860351562 80.94268798828125 98.56919860839844 78.857421875 C 103.3321228027344 76.84287261962891 107.6100921630859 73.95845031738281 111.2842712402344 70.28427124023438 C 114.9584503173828 66.61009216308594 117.8428726196289 62.33212661743164 119.857421875 57.56919860839844 C 121.9426879882812 52.63907241821289 123 47.40085601806641 123 42 C 123 36.59914398193359 121.9426879882812 31.36092758178711 119.857421875 26.43080139160156 C 117.8428726196289 21.66787338256836 114.9584503173828 17.38990783691406 111.2842712402344 13.71572875976562 C 107.6100921630859 10.04154205322266 103.3321228027344 7.157127380371094 98.56919860839844 5.142578125 C 93.63906860351562 3.05731201171875 88.40085601806641 2 83 2 L 2 2 M 0 0 L 83 0 C 106.1959609985352 0 125 18.80403900146484 125 42 C 125 65.19596099853516 106.1959609985352 84 83 84 L 0 84 L 0 0 Z" stroke="none" fill="#e90303"/>
    </g>
    <path id="Trazado_110618" data-name="Trazado 110618" d="M0,0H41V41H0Z" transform="translate(1216 803)" fill="#e90303"/>
    <path id="Trazado_106582" data-name="Trazado 106582" d="M-7351.917-10855.333h-4.75v243.833H-7289" transform="translate(7869 11699.5)" fill="none" stroke="#2a4801" stroke-width="2"/>
    <path id="Trazado_106586" data-name="Trazado 106586" d="M-6806-10631.333V-10594" transform="translate(7869 11700)" fill="#fff" stroke="#ff0303" stroke-width="2"/>
    <path id="Trazado_106587" data-name="Trazado 106587" d="M-6820-10631.333V-10594" transform="translate(7869 11700)" fill="#fff" stroke="#ff0303" stroke-width="2"/>
    <path id="Trazado_110619" data-name="Trazado 110619" d="M40,0H0" transform="translate(1137.5 824.5)" fill="none" stroke="#2a4801" stroke-width="2"/>
    <path id="Trazado_106588" data-name="Trazado 106588" d="M-7055.667-10791v-84.667" transform="translate(7869 11700)" fill="none" stroke="#2a4801" stroke-width="2"/>
    <path id="Trazado_106589" data-name="Trazado 106589" d="M-7055.667-10627.832v-86.5" transform="translate(7869 11715.833)" fill="none" stroke="#2a4801" stroke-width="2"/>
    <g id="Trazado_110646" data-name="Trazado 110646" transform="translate(361 774)" fill="#040404">
      <path d="M 9 18 C 4.588789939880371 18 1 14.18692016601562 1 9.5 C 1 4.813079833984375 4.588789939880371 1 9 1 C 13.41121006011963 1 17 4.813079833984375 17 9.5 C 17 14.18692016601562 13.41121006011963 18 9 18 Z" stroke="none"/>
      <path d="M 9 2 C 5.140190124511719 2 2 5.364489555358887 2 9.5 C 2 13.6355094909668 5.140190124511719 17 9 17 C 12.85980987548828 17 16 13.6355094909668 16 9.5 C 16 5.364489555358887 12.85980987548828 2 9 2 M 9 0 C 13.97056007385254 0 18 4.253299713134766 18 9.5 C 18 14.74670028686523 13.97056007385254 19 9 19 C 4.029439926147461 19 0 14.74670028686523 0 9.5 C 0 4.253299713134766 4.029439926147461 0 9 0 Z" stroke="none" fill="#8a0505"/>
    </g>
    <g id="Trazado_110647" data-name="Trazado 110647" transform="translate(382 774)" fill="#040000">
      <path d="M 9 18 C 4.588789939880371 18 1 14.18692016601562 1 9.5 C 1 4.813079833984375 4.588789939880371 1 9 1 C 13.41121006011963 1 17 4.813079833984375 17 9.5 C 17 14.18692016601562 13.41121006011963 18 9 18 Z" stroke="none"/>
      <path d="M 9 2 C 5.140190124511719 2 2 5.364489555358887 2 9.5 C 2 13.6355094909668 5.140190124511719 17 9 17 C 12.85980987548828 17 16 13.6355094909668 16 9.5 C 16 5.364489555358887 12.85980987548828 2 9 2 M 9 0 C 13.97056007385254 0 18 4.253299713134766 18 9.5 C 18 14.74670028686523 13.97056007385254 19 9 19 C 4.029439926147461 19 0 14.74670028686523 0 9.5 C 0 4.253299713134766 4.029439926147461 0 9 0 Z" stroke="none" fill="#9d3a3a"/>
    </g>
    <g id="Grupo_59090" data-name="Grupo 59090" transform="translate(0 3)">
      <path id="Polígono_2" data-name="Polígono 2" d="M3,0,6,6H0Z" transform="translate(367 776)" fill="#fe0707"/>
      <line id="Línea_139" data-name="Línea 139" y1="5" transform="translate(370 781)" fill="none" stroke="#ec3636" stroke-width="1"/>
    </g>
    <g id="Grupo_59091" data-name="Grupo 59091" transform="translate(388 778)">
      <path id="Trazado_106591" data-name="Trazado 106591" d="M3,0,6,6H0Z" transform="translate(6 10) rotate(180)" fill="#f30000"/>
      <path id="Trazado_106592" data-name="Trazado 106592" d="M0,0V5" transform="translate(3)" fill="none" stroke="#f30000" stroke-width="1"/>
    </g>
    <path id="Trazado_110644" data-name="Trazado 110644" d="M0,0H11V11H0Z" transform="translate(386 788)" fill="#f30000"/>
    <path id="Trazado_110639" data-name="Trazado 110639" d="M5.7,0H4.242V-9.633L1.328-8.562V-9.875L5.469-11.43H5.7ZM17.063-4.852A6.61,6.61,0,0,1,16.2-1.078,3.084,3.084,0,0,1,13.484.156a3.107,3.107,0,0,1-2.7-1.207,6.274,6.274,0,0,1-.906-3.605v-1.93a6.463,6.463,0,0,1,.867-3.727,3.108,3.108,0,0,1,2.719-1.219,3.136,3.136,0,0,1,2.7,1.176,6.237,6.237,0,0,1,.891,3.629ZM15.617-6.828A5.3,5.3,0,0,0,15.1-9.5a1.775,1.775,0,0,0-1.633-.84,1.751,1.751,0,0,0-1.617.836,5.171,5.171,0,0,0-.523,2.57v2.313A5.381,5.381,0,0,0,11.863-1.9a1.771,1.771,0,0,0,1.621.879,1.747,1.747,0,0,0,1.59-.828,5.186,5.186,0,0,0,.543-2.609Z" transform="translate(512 799)" fill="#12263f"/>
    <path id="Trazado_110620" data-name="Trazado 110620" d="M6.484-5A3.536,3.536,0,0,1,5.4-4.133,2.936,2.936,0,0,1,4.023-3.8a3.031,3.031,0,0,1-1.715-.484A3.149,3.149,0,0,1,1.18-5.652a4.648,4.648,0,0,1-.4-1.941,4.735,4.735,0,0,1,.434-2.055,3.185,3.185,0,0,1,1.23-1.4A3.509,3.509,0,0,1,4.3-11.531a3.177,3.177,0,0,1,2.66,1.262,5.5,5.5,0,0,1,.973,3.441v.422q0,3.32-1.312,4.848A5.043,5.043,0,0,1,2.664.008H2.383V-1.219h.3a3.979,3.979,0,0,0,2.75-.932A4,4,0,0,0,6.484-5ZM4.258-5A2.232,2.232,0,0,0,5.6-5.445a2.625,2.625,0,0,0,.895-1.1v-.578a3.977,3.977,0,0,0-.617-2.312,1.842,1.842,0,0,0-1.562-.891,1.856,1.856,0,0,0-1.531.73A3.013,3.013,0,0,0,2.2-7.672a3.136,3.136,0,0,0,.559,1.918A1.769,1.769,0,0,0,4.258-5Z" transform="translate(523 839)" fill="#12263f"/>
    <path id="Trazado_110640" data-name="Trazado 110640" d="M0,0H11V11H0Z" transform="translate(534 789)" fill="#e90303"/>
    <path id="Trazado_110621" data-name="Trazado 110621" d="M0,0H11V11H0Z" transform="translate(534 829)" fill="#e90303"/>
    <path id="Trazado_110648" data-name="Trazado 110648" d="M15.158-18.484V-5.916a5.9,5.9,0,0,1-1.644,4.278A6.625,6.625,0,0,1,9.09.229L8.442.254A6.919,6.919,0,0,1,3.605-1.384,5.857,5.857,0,0,1,1.777-5.891V-18.484H4.189V-5.967a4.228,4.228,0,0,0,1.1,3.117A4.245,4.245,0,0,0,8.442-1.739a4.273,4.273,0,0,0,3.167-1.1,4.22,4.22,0,0,0,1.1-3.11v-12.53ZM26.114,0H23.753V-15.653l-4.735,1.739v-2.133l6.729-2.526h.368ZM33.16-1.231a1.471,1.471,0,0,1,.362-1.016,1.379,1.379,0,0,1,1.085-.406,1.42,1.42,0,0,1,1.1.406,1.441,1.441,0,0,1,.375,1.016,1.363,1.363,0,0,1-.375.978,1.446,1.446,0,0,1-1.1.394,1.4,1.4,0,0,1-1.085-.394A1.39,1.39,0,0,1,33.16-1.231Zm.013-11.21a1.471,1.471,0,0,1,.362-1.016,1.379,1.379,0,0,1,1.085-.406,1.42,1.42,0,0,1,1.1.406,1.441,1.441,0,0,1,.375,1.016,1.363,1.363,0,0,1-.375.978,1.446,1.446,0,0,1-1.1.394,1.4,1.4,0,0,1-1.085-.394A1.39,1.39,0,0,1,33.173-12.441ZM53.5-5.865a6.8,6.8,0,0,1-2.165,4.526A7.094,7.094,0,0,1,46.49.254a6.514,6.514,0,0,1-5.25-2.349,9.449,9.449,0,0,1-1.974-6.284v-1.777a10.532,10.532,0,0,1,.92-4.532,6.875,6.875,0,0,1,2.609-3,7.264,7.264,0,0,1,3.91-1.047,6.679,6.679,0,0,1,4.723,1.644A6.882,6.882,0,0,1,53.5-12.543h-2.45a5.311,5.311,0,0,0-1.377-3.209,4.168,4.168,0,0,0-2.964-.993,4.361,4.361,0,0,0-3.663,1.728A7.933,7.933,0,0,0,41.717-10.1v1.792a8.154,8.154,0,0,0,1.257,4.79A4.061,4.061,0,0,0,46.49-1.739a4.691,4.691,0,0,0,3.117-.92,5.108,5.108,0,0,0,1.441-3.206Z" transform="translate(551 777)" fill="#12263f"/>
    <path id="Trazado_110602" data-name="Trazado 110602" d="M8.289-10.562,3.578,0H2.063l4.7-10.187H.6v-1.187H8.289ZM16.031-3.82h1.578v1.18H16.031V0H14.578V-2.641H9.4v-.852l5.094-7.883h1.539Zm-4.992,0h3.539V-9.4l-.172.313ZM26.047-4.852a6.61,6.61,0,0,1-.867,3.773A3.084,3.084,0,0,1,22.469.156a3.107,3.107,0,0,1-2.7-1.207,6.274,6.274,0,0,1-.906-3.605v-1.93a6.463,6.463,0,0,1,.867-3.727,3.108,3.108,0,0,1,2.719-1.219,3.136,3.136,0,0,1,2.7,1.176,6.237,6.237,0,0,1,.891,3.629ZM24.6-6.828A5.3,5.3,0,0,0,24.086-9.5a1.775,1.775,0,0,0-1.633-.84,1.751,1.751,0,0,0-1.617.836,5.171,5.171,0,0,0-.523,2.57v2.313A5.381,5.381,0,0,0,20.848-1.9a1.771,1.771,0,0,0,1.621.879,1.747,1.747,0,0,0,1.59-.828A5.186,5.186,0,0,0,24.6-4.461Zm10.43,1.977a6.61,6.61,0,0,1-.867,3.773A3.084,3.084,0,0,1,31.453.156a3.107,3.107,0,0,1-2.7-1.207,6.274,6.274,0,0,1-.906-3.605v-1.93a6.463,6.463,0,0,1,.867-3.727,3.108,3.108,0,0,1,2.719-1.219,3.136,3.136,0,0,1,2.7,1.176,6.237,6.237,0,0,1,.891,3.629ZM33.586-6.828A5.3,5.3,0,0,0,33.07-9.5a1.775,1.775,0,0,0-1.633-.84,1.751,1.751,0,0,0-1.617.836,5.171,5.171,0,0,0-.523,2.57v2.313A5.381,5.381,0,0,0,29.832-1.9a1.771,1.771,0,0,0,1.621.879,1.747,1.747,0,0,0,1.59-.828,5.186,5.186,0,0,0,.543-2.609Z" transform="translate(551 881)" fill="#12263f"/>
    <path id="Trazado_110622" data-name="Trazado 110622" d="M7.844-8.406a2.641,2.641,0,0,1-.449,1.516A3.057,3.057,0,0,1,6.18-5.852,3.26,3.26,0,0,1,7.59-4.734a2.811,2.811,0,0,1,.52,1.664,2.972,2.972,0,0,1-1,2.352A3.827,3.827,0,0,1,4.492.156,3.81,3.81,0,0,1,1.863-.723,2.986,2.986,0,0,1,.875-3.07a2.9,2.9,0,0,1,.5-1.664A3.136,3.136,0,0,1,2.773-5.859,2.981,2.981,0,0,1,1.578-6.9a2.679,2.679,0,0,1-.437-1.508,2.94,2.94,0,0,1,.922-2.281,3.458,3.458,0,0,1,2.43-.844,3.461,3.461,0,0,1,2.426.844A2.934,2.934,0,0,1,7.844-8.406ZM6.664-3.1a2.1,2.1,0,0,0-.605-1.555,2.147,2.147,0,0,0-1.582-.6,2.11,2.11,0,0,0-1.566.594A2.12,2.12,0,0,0,2.32-3.1a2.019,2.019,0,0,0,.574,1.523,2.2,2.2,0,0,0,1.6.555,2.2,2.2,0,0,0,1.594-.559A2.014,2.014,0,0,0,6.664-3.1ZM4.492-10.344a1.865,1.865,0,0,0-1.379.527,1.937,1.937,0,0,0-.527,1.434,1.928,1.928,0,0,0,.52,1.4,1.844,1.844,0,0,0,1.387.535A1.844,1.844,0,0,0,5.879-6.98a1.928,1.928,0,0,0,.52-1.4A1.929,1.929,0,0,0,5.859-9.8,1.839,1.839,0,0,0,4.492-10.344Z" transform="translate(693 819)" fill="#12263f"/>
    <path id="Trazado_110645" data-name="Trazado 110645" d="M5.7,0H4.242V-9.633L1.328-8.562V-9.875L5.469-11.43H5.7Zm6.336-6.391h1.086a2.387,2.387,0,0,0,1.609-.539,1.8,1.8,0,0,0,.586-1.414,1.764,1.764,0,0,0-1.992-2,2.072,2.072,0,0,0-1.5.535,1.873,1.873,0,0,0-.559,1.418H9.82a2.9,2.9,0,0,1,.988-2.246,3.6,3.6,0,0,1,2.512-.895,3.558,3.558,0,0,1,2.523.852,3.076,3.076,0,0,1,.914,2.367,2.5,2.5,0,0,1-.48,1.438,2.9,2.9,0,0,1-1.309,1.039,2.8,2.8,0,0,1,1.449.984,2.734,2.734,0,0,1,.512,1.68,3.1,3.1,0,0,1-1,2.43,3.745,3.745,0,0,1-2.6.9,3.844,3.844,0,0,1-2.605-.867A2.877,2.877,0,0,1,9.719-3h1.453a1.859,1.859,0,0,0,.586,1.438,2.229,2.229,0,0,0,1.57.539,2.187,2.187,0,0,0,1.6-.547,2.108,2.108,0,0,0,.555-1.57,1.912,1.912,0,0,0-.609-1.523,2.655,2.655,0,0,0-1.758-.547H12.031Z" transform="translate(918 795)" fill="#12263f"/>
    <path id="Trazado_110623" data-name="Trazado 110623" d="M5.7,0H4.242V-9.633L1.328-8.562V-9.875L5.469-11.43H5.7ZM17.383,0H9.93V-1.039l3.938-4.375a9.354,9.354,0,0,0,1.207-1.613,2.693,2.693,0,0,0,.332-1.285,2.041,2.041,0,0,0-.539-1.461,1.885,1.885,0,0,0-1.437-.57,2.232,2.232,0,0,0-1.676.613,2.343,2.343,0,0,0-.6,1.707H9.711a3.355,3.355,0,0,1,1.012-2.539,3.751,3.751,0,0,1,2.707-.969,3.6,3.6,0,0,1,2.508.832,2.838,2.838,0,0,1,.922,2.215q0,1.68-2.141,4l-3.047,3.3h5.711Z" transform="translate(918 836)" fill="#12263f"/>
    <path id="Trazado_110651" data-name="Trazado 110651" d="M15.158-18.484V-5.916a5.9,5.9,0,0,1-1.644,4.278A6.625,6.625,0,0,1,9.09.229L8.442.254A6.919,6.919,0,0,1,3.605-1.384,5.857,5.857,0,0,1,1.777-5.891V-18.484H4.189V-5.967a4.228,4.228,0,0,0,1.1,3.117A4.245,4.245,0,0,0,8.442-1.739a4.273,4.273,0,0,0,3.167-1.1,4.22,4.22,0,0,0,1.1-3.11v-12.53ZM26.114,0H23.753V-15.653l-4.735,1.739v-2.133l6.729-2.526h.368ZM33.16-1.231a1.471,1.471,0,0,1,.362-1.016,1.379,1.379,0,0,1,1.085-.406,1.42,1.42,0,0,1,1.1.406,1.441,1.441,0,0,1,.375,1.016,1.363,1.363,0,0,1-.375.978,1.446,1.446,0,0,1-1.1.394,1.4,1.4,0,0,1-1.085-.394A1.39,1.39,0,0,1,33.16-1.231Zm.013-11.21a1.471,1.471,0,0,1,.362-1.016,1.379,1.379,0,0,1,1.085-.406,1.42,1.42,0,0,1,1.1.406,1.441,1.441,0,0,1,.375,1.016,1.363,1.363,0,0,1-.375.978,1.446,1.446,0,0,1-1.1.394,1.4,1.4,0,0,1-1.085-.394A1.39,1.39,0,0,1,33.173-12.441ZM39.9,0V-18.484h5.218a8.4,8.4,0,0,1,4.266,1.066,7.212,7.212,0,0,1,2.863,3.034,9.876,9.876,0,0,1,1.022,4.52v1.181A9.911,9.911,0,0,1,52.26-4.1a7.1,7.1,0,0,1-2.882,3.021A8.935,8.935,0,0,1,45.018,0Zm2.438-16.491v14.5H44.9A5.58,5.58,0,0,0,49.29-3.747,7.245,7.245,0,0,0,50.857-8.74V-9.82a7.359,7.359,0,0,0-1.479-4.9,5.263,5.263,0,0,0-4.2-1.773Z" transform="translate(955 772)" fill="#12263f"/>
    <path id="Trazado_110603" data-name="Trazado 110603" d="M8.289-10.562,3.578,0H2.063l4.7-10.187H.6v-1.187H8.289ZM16.031-3.82h1.578v1.18H16.031V0H14.578V-2.641H9.4v-.852l5.094-7.883h1.539Zm-4.992,0h3.539V-9.4l-.172.313ZM26.047-4.852a6.61,6.61,0,0,1-.867,3.773A3.084,3.084,0,0,1,22.469.156a3.107,3.107,0,0,1-2.7-1.207,6.274,6.274,0,0,1-.906-3.605v-1.93a6.463,6.463,0,0,1,.867-3.727,3.108,3.108,0,0,1,2.719-1.219,3.136,3.136,0,0,1,2.7,1.176,6.237,6.237,0,0,1,.891,3.629ZM24.6-6.828A5.3,5.3,0,0,0,24.086-9.5a1.775,1.775,0,0,0-1.633-.84,1.751,1.751,0,0,0-1.617.836,5.171,5.171,0,0,0-.523,2.57v2.313A5.381,5.381,0,0,0,20.848-1.9a1.771,1.771,0,0,0,1.621.879,1.747,1.747,0,0,0,1.59-.828A5.186,5.186,0,0,0,24.6-4.461Zm10.43,1.977a6.61,6.61,0,0,1-.867,3.773A3.084,3.084,0,0,1,31.453.156a3.107,3.107,0,0,1-2.7-1.207,6.274,6.274,0,0,1-.906-3.605v-1.93a6.463,6.463,0,0,1,.867-3.727,3.108,3.108,0,0,1,2.719-1.219,3.136,3.136,0,0,1,2.7,1.176,6.237,6.237,0,0,1,.891,3.629ZM33.586-6.828A5.3,5.3,0,0,0,33.07-9.5a1.775,1.775,0,0,0-1.633-.84,1.751,1.751,0,0,0-1.617.836,5.171,5.171,0,0,0-.523,2.57v2.313A5.381,5.381,0,0,0,29.832-1.9a1.771,1.771,0,0,0,1.621.879,1.747,1.747,0,0,0,1.59-.828,5.186,5.186,0,0,0,.543-2.609Z" transform="translate(955 876)" fill="#12263f"/>
    <g id="Trazado_110624" data-name="Trazado 110624" transform="translate(1077 814)" fill="#fff">
      <path d="M 6.5 12 C 3.467289924621582 12 1 9.532710075378418 1 6.5 C 1 3.467289924621582 3.467289924621582 1 6.5 1 C 9.532710075378418 1 12 3.467289924621582 12 6.5 C 12 9.532710075378418 9.532710075378418 12 6.5 12 Z" stroke="none"/>
      <path d="M 6.5 2 C 4.01869010925293 2 2 4.01869010925293 2 6.5 C 2 8.98130989074707 4.01869010925293 11 6.5 11 C 8.98130989074707 11 11 8.98130989074707 11 6.5 C 11 4.01869010925293 8.98130989074707 2 6.5 2 M 6.5 0 C 10.0898494720459 0 13 2.910149574279785 13 6.5 C 13 10.0898494720459 10.0898494720459 13 6.5 13 C 2.910149574279785 13 0 10.0898494720459 0 6.5 C 0 2.910149574279785 2.910149574279785 0 6.5 0 Z" stroke="none" fill="#e90303"/>
    </g>
    <path id="Trazado_110625" data-name="Trazado 110625" d="M5.7,0H4.242V-9.633L1.328-8.562V-9.875L5.469-11.43H5.7ZM14.68,0H13.227V-9.633l-2.914,1.07V-9.875l4.141-1.555h.227Z" transform="translate(1096 815)" fill="#12263f"/>
    <path id="Trazado_110638" data-name="Trazado 110638" d="M0,0H9V9H0Z" transform="translate(1084 806)" fill="#e90303"/>
    <path id="Trazado_110626" data-name="Trazado 110626" d="M0,0H11V11H0Z" transform="translate(1191 809)" fill="#e90303"/>
    <path id="Trazado_110591" data-name="Trazado 110591" d="M5.5,0A5.5,5.5,0,1,1,0,5.5,5.5,5.5,0,0,1,5.5,0Z" transform="translate(810 1081)" fill="#2a4801"/>
    <path id="Trazado_110604" data-name="Trazado 110604" d="M125,1,0,0" transform="translate(580 1088)" fill="none" stroke="#ff0303" stroke-width="2"/>
    <g id="Grupo_59092" data-name="Grupo 59092">
      <g id="Rectángulo_9005" data-name="Rectángulo 9005" transform="translate(550 782)" fill="#c8c9aa" stroke="#e90303" stroke-width="2">
        <path d="M0,0H83a42,42,0,0,1,42,42v0A42,42,0,0,1,83,84H0a0,0,0,0,1,0,0V0A0,0,0,0,1,0,0Z" stroke="none"/>
        <path d="M1,1H83a41,41,0,0,1,41,41v0A41,41,0,0,1,83,83H1a0,0,0,0,1,0,0V1A0,0,0,0,1,1,1Z" fill="none"/>
      </g>
      <path id="Trazado_106583" data-name="Trazado 106583" d="M-7194-10876h37" transform="translate(7869 11700)" fill="none" stroke="#e90303" stroke-width="2"/>
      <g id="Elipse_4054" data-name="Elipse 4054" transform="translate(674 817)" fill="#c8c9aa" stroke="#e90303" stroke-width="2">
        <circle cx="6.5" cy="6.5" r="6.5" stroke="none"/>
        <circle cx="6.5" cy="6.5" r="5.5" fill="none"/>
      </g>
      <line id="Línea_141" data-name="Línea 141" x1="38" transform="translate(512.5 803.5)" fill="none" stroke="#e90303" stroke-width="2"/>
      <line id="Línea_142" data-name="Línea 142" x1="38" transform="translate(512.5 844.5)" fill="none" stroke="#e90303" stroke-width="2"/>
    </g>
    <path id="Trazado_110641" data-name="Trazado 110641" d="M0,0H102" transform="translate(410.5 803.5)" fill="none" stroke="#2a4801" stroke-width="2"/>
    <path id="Trazado_110642" data-name="Trazado 110642" d="M39,0H0" transform="translate(371.5 803.5)" fill="none" stroke="#ec3636" stroke-width="2"/>
    <g id="Trazado_110649" data-name="Trazado 110649" transform="translate(-7553.001 -10918)" fill="#af0b0b">
      <path d="M 7902.986328125 11743.5009765625 L 7902.4873046875 11743.5009765625 L 7869.4990234375 11743.5009765625 L 7869.4990234375 11700.4990234375 L 7902.986328125 11700.4990234375 L 7902.986328125 11700.9345703125 L 7902.986328125 11701.1513671875 L 7903.14453125 11701.2998046875 L 7925.26904296875 11721.9990234375 L 7903.14453125 11742.7001953125 L 7902.986328125 11742.8486328125 L 7902.986328125 11743.0654296875 L 7902.986328125 11743.5009765625 Z" stroke="none"/>
      <path d="M 7902.4873046875 11743.0009765625 L 7902.486328125 11743.0009765625 L 7902.486328125 11742.6318359375 L 7902.80322265625 11742.3349609375 L 7924.537109375 11721.9990234375 L 7902.486328125 11701.3681640625 L 7902.486328125 11700.9990234375 L 7869.9990234375 11700.9990234375 L 7869.9990234375 11743.0009765625 L 7902.4873046875 11743.0009765625 M 7903.486328125 11744.0009765625 L 7868.9990234375 11744.0009765625 L 7868.9990234375 11699.9990234375 L 7903.486328125 11699.9990234375 L 7903.486328125 11700.9345703125 L 7926.0009765625 11721.9990234375 L 7903.486328125 11743.0654296875 L 7903.486328125 11744.0009765625 Z" stroke="none" fill="#8a0505"/>
    </g>
    <path id="Trazado_110627" data-name="Trazado 110627" d="M0,0H9V9H0Z" transform="translate(681 810)" fill="#4040ff"/>
    <path id="Trazado_106593" data-name="Trazado 106593" d="M-7155.333-10876.5h198" transform="translate(7867.333 11700.5)" fill="none" stroke="#2a4801" stroke-width="2"/>
    <path id="Trazado_110628" data-name="Trazado 110628" d="M5.5,0A5.5,5.5,0,1,1,0,5.5,5.5,5.5,0,0,1,5.5,0Z" transform="translate(808 818)" fill="#2a4801"/>
    <path id="Trazado_110629" data-name="Trazado 110629" d="M0,0V41" transform="translate(915 799)" fill="none" stroke="#2a4801" stroke-width="1"/>
    <path id="Trazado_110630" data-name="Trazado 110630" d="M5.5,0A5.5,5.5,0,1,1,0,5.5,5.5,5.5,0,0,1,5.5,0Z" transform="translate(909 818)" fill="#2a4801"/>
    <path id="Trazado_110643" data-name="Trazado 110643" d="M37,0H0" transform="translate(915.5 799.5)" fill="none" stroke="#e90303" stroke-width="2"/>
    <path id="Trazado_110631" data-name="Trazado 110631" d="M37,0H0" transform="translate(915.5 839.5)" fill="none" stroke="#e90303" stroke-width="2"/>
    <path id="Trazado_110632" data-name="Trazado 110632" d="M0,0H9V9H0Z" transform="translate(938 826)" fill="#4040ff"/>
    <path id="Trazado_110650" data-name="Trazado 110650" d="M0,0H9V9H0Z" transform="translate(938 786)" fill="#4040ff"/>
    <path id="Trazado_110652" data-name="Trazado 110652" d="M9.8,0H5.836V-12.609L1.945-11.473v-3l7.488-2.59H9.8Z" transform="translate(329 812)" fill="#fff"/>
    <path id="Trazado_110633" data-name="Trazado 110633" d="M9.8,0H5.836V-12.609L1.945-11.473v-3l7.488-2.59H9.8Z" transform="translate(1230 833)" fill="#fff"/>
    <path id="Trazado_110634" data-name="Trazado 110634" d="M0,0H39" transform="translate(1177.5 824.5)" fill="none" stroke="#e90303" stroke-width="2"/>
    <path id="Trazado_110635" data-name="Trazado 110635" d="M5,0A5,5,0,1,1,0,5,5,5,0,0,1,5,0Z" transform="translate(1131 817)" fill="#2a4801"/>
    <path id="Trazado_110636" data-name="Trazado 110636" d="M0,0H28" transform="translate(1089.5 820.5)" fill="none" stroke="#e90303" stroke-width="2"/>
    <path id="Trazado_110637" data-name="Trazado 110637" d="M0,0H19" transform="translate(1117.5 820.5)" fill="none" stroke="#2a4801" stroke-width="2"/>
    <path id="Trazado_110592" data-name="Trazado 110592" d="M0,0H41" transform="translate(1096.5 1087.5)" fill="none" stroke="#2a4801" stroke-width="2"/>
    <path id="Trazado_110593" data-name="Trazado 110593" d="M0,0,1,267" transform="translate(1136.5 820.5)" fill="none" stroke="#2a4801" stroke-width="2"/>
    <path id="Trazado_110594" data-name="Trazado 110594" d="M33,0H0" transform="translate(1063.5 1087.5)" fill="none" stroke="#ff0303" stroke-width="2"/>
    <path id="Trazado_110595" data-name="Trazado 110595" d="M33,0H0" transform="translate(1015.5 1087.5)" fill="none" stroke="#ff0303" stroke-width="2"/>
    <path id="Trazado_110596" data-name="Trazado 110596" d="M201,1,0,0" transform="translate(814.5 1086.5)" fill="none" stroke="#2a4801" stroke-width="2"/>
    <path id="Trazado_110597" data-name="Trazado 110597" d="M110.5,0H0" transform="translate(705 1089)" fill="none" stroke="#2a4801" stroke-width="2"/>
    <g id="Grupo_59093" data-name="Grupo 59093">
      <g id="Rectángulo_9008" data-name="Rectángulo 9008" transform="translate(806 925)" fill="#c8c9aa" stroke="#ff0303" stroke-width="2">
        <rect width="16" height="61" stroke="none"/>
        <rect x="1" y="1" width="14" height="59" fill="none"/>
      </g>
      <line id="Línea_157" data-name="Línea 157" y1="16" transform="translate(813.5 985.5)" fill="none" stroke="#ff0303" stroke-width="2"/>
      <line id="Línea_158" data-name="Línea 158" y1="16" transform="translate(813.5 909)" fill="none" stroke="#ff0303" stroke-width="2"/>
    </g>
    <path id="Trazado_110605" data-name="Trazado 110605" d="M5.5,0A5.5,5.5,0,1,1,0,5.5,5.5,5.5,0,0,1,5.5,0Z" transform="translate(506 1033)" fill="#2a4801"/>
    <g id="Trazado_110606" data-name="Trazado 110606" transform="translate(616 1081)" fill="#c8c9aa">
      <path d="M 61 14 L 1 14 L 1 1 L 61 1 L 61 14 Z" stroke="none"/>
      <path d="M 2 2 L 2 13 L 60 13 L 60 2 L 2 2 M 0 0 L 62 0 L 62 15 L 0 15 L 0 0 Z" stroke="none" fill="#ff0303"/>
    </g>
    <path id="Trazado_106594" data-name="Trazado 106594" d="M-7353.5-10661.5h131v10.5" transform="translate(7869 11700)" fill="none" stroke="#2a4801" stroke-width="2"/>
    <path id="Trazado_110607" data-name="Trazado 110607" d="M8.925-7.478H4.583V0H2.133V-18.484H8.252a7.243,7.243,0,0,1,4.805,1.422,5.116,5.116,0,0,1,1.682,4.139,4.976,4.976,0,0,1-.933,3.009A5.57,5.57,0,0,1,11.21-8L15.552-.152V0H12.937ZM4.583-9.471H8.328a4.224,4.224,0,0,0,2.888-.941,3.183,3.183,0,0,0,1.073-2.518,3.351,3.351,0,0,0-1.022-2.633,4.327,4.327,0,0,0-2.952-.928H4.583ZM24.032-3.237l5.281-15.247h2.666L25.124,0H22.966L16.123-18.484h2.653ZM45.957,0H33.846V-1.688l6.4-7.109a15.2,15.2,0,0,0,1.961-2.622,4.375,4.375,0,0,0,.54-2.088,3.317,3.317,0,0,0-.876-2.374,3.063,3.063,0,0,0-2.336-.927,3.627,3.627,0,0,0-2.723,1,3.807,3.807,0,0,0-.971,2.774H33.49a5.452,5.452,0,0,1,1.644-4.126,6.1,6.1,0,0,1,4.4-1.574,5.856,5.856,0,0,1,4.075,1.352,4.612,4.612,0,0,1,1.5,3.6q0,2.729-3.479,6.5l-4.951,5.37h9.28Z" transform="translate(678 1040)" fill="#12263f"/>
    <path id="Trazado_110608" data-name="Trazado 110608" d="M8.925-7.478H4.583V0H2.133V-18.484H8.252a7.243,7.243,0,0,1,4.805,1.422,5.116,5.116,0,0,1,1.682,4.139,4.976,4.976,0,0,1-.933,3.009A5.57,5.57,0,0,1,11.21-8L15.552-.152V0H12.937ZM4.583-9.471H8.328a4.224,4.224,0,0,0,2.888-.941,3.183,3.183,0,0,0,1.073-2.518,3.351,3.351,0,0,0-1.022-2.633,4.327,4.327,0,0,0-2.952-.928H4.583ZM27.46-6.208h2.564v1.917H27.46V0H25.1V-4.291H16.682V-5.675l8.277-12.81h2.5Zm-8.112,0H25.1v-9.064l-.279.508Z" transform="translate(835 945)" fill="#12263f"/>
    <path id="Trazado_110598" data-name="Trazado 110598" d="M15.742-5.865a6.8,6.8,0,0,1-2.165,4.526A7.094,7.094,0,0,1,8.734.254a6.514,6.514,0,0,1-5.25-2.349A9.449,9.449,0,0,1,1.511-8.379v-1.777a10.532,10.532,0,0,1,.92-4.532,6.875,6.875,0,0,1,2.609-3,7.264,7.264,0,0,1,3.91-1.047,6.679,6.679,0,0,1,4.723,1.644,6.882,6.882,0,0,1,2.069,4.551h-2.45a5.311,5.311,0,0,0-1.377-3.209,4.168,4.168,0,0,0-2.964-.993,4.361,4.361,0,0,0-3.663,1.728A7.933,7.933,0,0,0,3.961-10.1v1.792a8.154,8.154,0,0,0,1.257,4.79A4.061,4.061,0,0,0,8.734-1.739a4.691,4.691,0,0,0,3.117-.92,5.108,5.108,0,0,0,1.441-3.206ZM26.178,0H23.816V-15.653l-4.735,1.739v-2.133l6.729-2.526h.368Z" transform="translate(1034 1059)" fill="#12263f"/>
    <path id="Trazado_110609" data-name="Trazado 110609" d="M5.7,0H4.242V-9.633L1.328-8.562V-9.875L5.469-11.43H5.7Zm7.5-5.289L11.8-3.844V0H10.3V-11.375h1.5V-5.75l5.055-5.625h1.813L14.2-6.352,19.023,0h-1.8Z" transform="translate(834 969)" fill="#12263f"/>
    <path id="Trazado_110599" data-name="Trazado 110599" d="M0,0H11V11H0Z" transform="translate(1091 1070)" fill="#e90303"/>
    <path id="Trazado_110610" data-name="Trazado 110610" d="M0,0H11V11H0Z" transform="translate(653 1044)" fill="#e90303"/>
    <path id="Trazado_110611" data-name="Trazado 110611" d="M0,0H11V11H0Z" transform="translate(582 1073)" fill="#e90303"/>
    <path id="Trazado_110600" data-name="Trazado 110600" d="M5.7,0H4.242V-9.633L1.328-8.562V-9.875L5.469-11.43H5.7ZM17.063-4.852A6.61,6.61,0,0,1,16.2-1.078,3.084,3.084,0,0,1,13.484.156a3.107,3.107,0,0,1-2.7-1.207,6.274,6.274,0,0,1-.906-3.605v-1.93a6.463,6.463,0,0,1,.867-3.727,3.108,3.108,0,0,1,2.719-1.219,3.136,3.136,0,0,1,2.7,1.176,6.237,6.237,0,0,1,.891,3.629ZM15.617-6.828A5.3,5.3,0,0,0,15.1-9.5a1.775,1.775,0,0,0-1.633-.84,1.751,1.751,0,0,0-1.617.836,5.171,5.171,0,0,0-.523,2.57v2.313A5.381,5.381,0,0,0,11.863-1.9a1.771,1.771,0,0,0,1.621.879,1.747,1.747,0,0,0,1.59-.828,5.186,5.186,0,0,0,.543-2.609Zm10.43,1.977a6.61,6.61,0,0,1-.867,3.773A3.084,3.084,0,0,1,22.469.156a3.107,3.107,0,0,1-2.7-1.207,6.274,6.274,0,0,1-.906-3.605v-1.93a6.463,6.463,0,0,1,.867-3.727,3.108,3.108,0,0,1,2.719-1.219,3.136,3.136,0,0,1,2.7,1.176,6.237,6.237,0,0,1,.891,3.629ZM24.6-6.828A5.3,5.3,0,0,0,24.086-9.5a1.775,1.775,0,0,0-1.633-.84,1.751,1.751,0,0,0-1.617.836,5.171,5.171,0,0,0-.523,2.57v2.313A5.381,5.381,0,0,0,20.848-1.9a1.771,1.771,0,0,0,1.621.879,1.747,1.747,0,0,0,1.59-.828A5.186,5.186,0,0,0,24.6-4.461Zm15.641-4.547v7.734A3.628,3.628,0,0,1,39.23-1.008,4.077,4.077,0,0,1,36.508.141l-.4.016A4.258,4.258,0,0,1,33.133-.852a3.6,3.6,0,0,1-1.125-2.773v-7.75h1.484v7.7a2.6,2.6,0,0,0,.68,1.918,2.612,2.612,0,0,0,1.938.684,2.63,2.63,0,0,0,1.949-.68,2.6,2.6,0,0,0,.676-1.914v-7.711Zm8.641,6.352H44.109V0h-1.5V-11.375h7.047v1.227H44.109v3.9h4.773Z" transform="translate(1034 1123)" fill="#12263f"/>
    <path id="Trazado_110612" data-name="Trazado 110612" d="M5.7,0H4.242V-9.633L1.328-8.562V-9.875L5.469-11.43H5.7Zm7.5-5.289L11.8-3.844V0H10.3V-11.375h1.5V-5.75l5.055-5.625h1.813L14.2-6.352,19.023,0h-1.8Z" transform="translate(698 1083)" fill="#12263f"/>
    <path id="Trazado_106595" data-name="Trazado 106595" d="M-7216.5-10619l.313-13.5h-6.375v-18.75" transform="translate(7869 11700)" fill="none" stroke="#ff0303" stroke-width="2"/>
    <g id="Trazado_110613" data-name="Trazado 110613" transform="translate(658 1083) rotate(180)" fill="#e90303">
      <path d="M 10.15436172485352 9.5 L 0.8456379771232605 9.5 L 5.5 1.037523627281189 L 10.15436172485352 9.5 Z" stroke="none"/>
      <path d="M 5.5 2.075047492980957 L 1.691275596618652 9 L 9.308724403381348 9 L 5.5 2.075047492980957 M 5.5 0 L 11 10 L 0 10 L 5.5 0 Z" stroke="none" fill="#e90303"/>
    </g>
    <path id="Trazado_110614" data-name="Trazado 110614" d="M0,0H9V9H0Z" transform="translate(797 901)" fill="#4040ff"/>
    <g id="Trazado_110615" data-name="Trazado 110615" transform="translate(614 1103)" fill="#040404">
      <path d="M 9 18 C 4.588789939880371 18 1 14.18692016601562 1 9.5 C 1 4.813079833984375 4.588789939880371 1 9 1 C 13.41121006011963 1 17 4.813079833984375 17 9.5 C 17 14.18692016601562 13.41121006011963 18 9 18 Z" stroke="none"/>
      <path d="M 9 2 C 5.140190124511719 2 2 5.364489555358887 2 9.5 C 2 13.6355094909668 5.140190124511719 17 9 17 C 12.85980987548828 17 16 13.6355094909668 16 9.5 C 16 5.364489555358887 12.85980987548828 2 9 2 M 9 0 C 13.97056007385254 0 18 4.253299713134766 18 9.5 C 18 14.74670028686523 13.97056007385254 19 9 19 C 4.029439926147461 19 0 14.74670028686523 0 9.5 C 0 4.253299713134766 4.029439926147461 0 9 0 Z" stroke="none" fill="#8a0505"/>
    </g>
    <g id="Trazado_110616" data-name="Trazado 110616" transform="translate(660 1103)" fill="#040404">
      <path d="M 9 18 C 4.588789939880371 18 1 14.18692016601562 1 9.5 C 1 4.813079833984375 4.588789939880371 1 9 1 C 13.41121006011963 1 17 4.813079833984375 17 9.5 C 17 14.18692016601562 13.41121006011963 18 9 18 Z" stroke="none"/>
      <path d="M 9 2 C 5.140190124511719 2 2 5.364489555358887 2 9.5 C 2 13.6355094909668 5.140190124511719 17 9 17 C 12.85980987548828 17 16 13.6355094909668 16 9.5 C 16 5.364489555358887 12.85980987548828 2 9 2 M 9 0 C 13.97056007385254 0 18 4.253299713134766 18 9.5 C 18 14.74670028686523 13.97056007385254 19 9 19 C 4.029439926147461 19 0 14.74670028686523 0 9.5 C 0 4.253299713134766 4.029439926147461 0 9 0 Z" stroke="none" fill="#8a0505"/>
    </g>
    <g id="Grupo_59094" data-name="Grupo 59094" transform="matrix(0.035, -0.999, 0.999, 0.035, -170.438, 1454.518)">
      <path id="Polígono_2-2" data-name="Polígono 2" d="M3,0,6,6H0Z" transform="translate(367 776)" fill="#fe0707"/>
      <line id="Línea_139-2" data-name="Línea 139" y1="5" transform="translate(370 781)" fill="none" stroke="#ec3636" stroke-width="1"/>
    </g>
    <g id="Grupo_59095" data-name="Grupo 59095" transform="translate(1451 742) rotate(90)">
      <path id="Polígono_2-3" data-name="Polígono 2" d="M3,0,6,6H0Z" transform="translate(367 776)" fill="#fe0707"/>
      <line id="Línea_139-3" data-name="Línea 139" y1="5" transform="translate(370 781)" fill="none" stroke="#ec3636" stroke-width="1"/>
    </g>
    <path id="Trazado_110617" data-name="Trazado 110617" d="M5.285-2.865H6.469v.885H5.285V0H4.2V-1.98H.311v-.639l3.82-5.912H5.285Zm-3.744,0H4.2V-7.049l-.129.234ZM13.037,0H7.447V-.779L10.4-4.061a7.016,7.016,0,0,0,.905-1.21,2.019,2.019,0,0,0,.249-.964,1.531,1.531,0,0,0-.4-1.1,1.414,1.414,0,0,0-1.078-.428,1.674,1.674,0,0,0-1.257.46,1.757,1.757,0,0,0-.448,1.28H7.283a2.516,2.516,0,0,1,.759-1.9,2.813,2.813,0,0,1,2.03-.727,2.7,2.7,0,0,1,1.881.624,2.129,2.129,0,0,1,.691,1.661,4.88,4.88,0,0,1-1.605,3L8.754-.885h4.283Zm1.055-6.891a1.731,1.731,0,0,1,.489-1.266,1.685,1.685,0,0,1,1.257-.5,1.675,1.675,0,0,1,1.263.5,1.791,1.791,0,0,1,.483,1.3v.416a1.709,1.709,0,0,1-.489,1.263,1.687,1.687,0,0,1-1.245.489,1.724,1.724,0,0,1-1.26-.489,1.745,1.745,0,0,1-.5-1.3Zm.809.449a1.109,1.109,0,0,0,.258.755.87.87,0,0,0,.691.3.853.853,0,0,0,.671-.288,1.145,1.145,0,0,0,.255-.787v-.429a1.136,1.136,0,0,0-.252-.758.849.849,0,0,0-.686-.3.849.849,0,0,0-.686.3,1.172,1.172,0,0,0-.252.781Zm3.346,4.35a1.721,1.721,0,0,1,.489-1.263,1.691,1.691,0,0,1,1.257-.5,1.706,1.706,0,0,1,1.26.492,1.766,1.766,0,0,1,.492,1.307v.416a1.721,1.721,0,0,1-.489,1.263A1.683,1.683,0,0,1,20,.123a1.724,1.724,0,0,1-1.26-.489,1.745,1.745,0,0,1-.5-1.3Zm.809.455a1.117,1.117,0,0,0,.258.76A.87.87,0,0,0,20-.58a.847.847,0,0,0,.674-.291,1.165,1.165,0,0,0,.252-.79V-2.1a1.114,1.114,0,0,0-.255-.758.858.858,0,0,0-.683-.294.867.867,0,0,0-.677.291,1.131,1.131,0,0,0-.261.784ZM16.1-.645l-.615-.387L19.646-7.7l.615.387Z" transform="translate(637 1093)" fill="#12263f"/>
  </g>
</svg>
