<?xml version="1.0" encoding="UTF-8" standalone="no"?>
<!DOCTYPE svg PUBLIC "-//W3C//DTD SVG 1.1//EN"
 "http://www.w3.org/Graphics/SVG/1.1/DTD/svg11.dtd">
<!-- Generated by graphviz version 14.1.3 (20260303.0454)
 -->
<!-- Title: flujo_energia Pages: 1 -->
<svg width="2465pt" height="389pt"
 viewBox="0.00 0.00 2465.00 389.00" xmlns="http://www.w3.org/2000/svg" xmlns:xlink="http://www.w3.org/1999/xlink">
<g id="graph0" class="graph" transform="scale(1 1) rotate(0) translate(43.2 345.47)">
<title>flujo_energia</title>
<polygon fill="white" stroke="none" points="-43.2,43.2 -43.2,-345.47 2421.81,-345.47 2421.81,43.2 -43.2,43.2"/>
<text xml:space="preserve" text-anchor="middle" x="1189.31" y="-285.92" font-family="Helvetica,sans-Serif" font-size="13.00">Diagrama de Flujo de Energía</text>
<text xml:space="preserve" text-anchor="middle" x="1189.31" y="-269.42" font-family="Helvetica,sans-Serif" font-size="13.00">Distribución de la alimentación en el sistema</text>
<!-- FUENTE -->
<g id="node1" class="node">
<title>FUENTE</title>
<path fill="#dcfce7" stroke="#16a34a" d="M419.14,-168.04C419.14,-168.04 100.22,-168.04 100.22,-168.04 94.22,-168.04 84.25,-163.54 80.28,-159.04 80.28,-159.04 7.93,-76.96 7.93,-76.96 3.97,-72.46 6,-67.96 12,-67.96 12,-67.96 330.93,-67.96 330.93,-67.96 336.93,-67.96 346.89,-72.46 350.86,-76.96 350.86,-76.96 423.21,-159.04 423.21,-159.04 427.18,-163.54 425.14,-168.04 419.14,-168.04"/>
<text xml:space="preserve" text-anchor="middle" x="215.57" y="-121.05" font-family="Helvetica,sans-Serif" font-size="11.00">Fuente Primaria</text>
<text xml:space="preserve" text-anchor="middle" x="215.57" y="-107.55" font-family="Helvetica,sans-Serif" font-size="11.00">110/220 V AC o Batería 12 V DC</text>
</g>
<!-- PROT -->
<g id="node2" class="node">
<title>PROT</title>
<path fill="#fef9c3" stroke="#ca8a04" d="M659.28,-163.99C659.28,-163.99 542.19,-122.05 542.19,-122.05 536.54,-120.02 536.54,-115.98 542.19,-113.95 542.19,-113.95 659.28,-72.01 659.28,-72.01 664.93,-69.98 676.22,-69.98 681.87,-72.01 681.87,-72.01 798.96,-113.95 798.96,-113.95 804.61,-115.98 804.61,-120.02 798.96,-122.05 798.96,-122.05 681.87,-163.99 681.87,-163.99 676.22,-166.02 664.93,-166.02 659.28,-163.99"/>
<text xml:space="preserve" text-anchor="middle" x="670.57" y="-121.05" font-family="Helvetica,sans-Serif" font-size="11.00">Protección</text>
<text xml:space="preserve" text-anchor="middle" x="670.57" y="-107.55" font-family="Helvetica,sans-Serif" font-size="11.00">Fusible PTC 500 mA</text>
</g>
<!-- FUENTE&#45;&gt;PROT -->
<g id="edge1" class="edge">
<title>FUENTE&#45;&gt;PROT</title>
<path fill="none" stroke="black" stroke-width="1.8" d="M387.51,-118C430.08,-118 475.45,-118 517.07,-118"/>
<polygon fill="black" stroke="black" stroke-width="1.8" points="516.84,-121.5 526.84,-118 516.84,-114.5 516.84,-121.5"/>
<text xml:space="preserve" text-anchor="middle" x="481.02" y="-120.7" font-family="Helvetica,sans-Serif" font-size="9.00">V bruto</text>
</g>
<!-- REG5 -->
<g id="node3" class="node">
<title>REG5</title>
<path fill="#bbf7d0" stroke="#15803d" d="M1022.68,-143.02C1022.68,-143.02 937.75,-143.02 937.75,-143.02 931.75,-143.02 925.75,-137.02 925.75,-131.02 925.75,-131.02 925.75,-104.98 925.75,-104.98 925.75,-98.98 931.75,-92.98 937.75,-92.98 937.75,-92.98 1022.68,-92.98 1022.68,-92.98 1028.68,-92.98 1034.68,-98.98 1034.68,-104.98 1034.68,-104.98 1034.68,-131.02 1034.68,-131.02 1034.68,-137.02 1028.68,-143.02 1022.68,-143.02"/>
<text xml:space="preserve" text-anchor="middle" x="980.22" y="-121.05" font-family="Helvetica,sans-Serif" font-size="11.00">Regulador 5 V</text>
<text xml:space="preserve" text-anchor="middle" x="980.22" y="-107.55" font-family="Helvetica,sans-Serif" font-size="11.00">(hasta 2 A)</text>
</g>
<!-- PROT&#45;&gt;REG5 -->
<g id="edge2" class="edge">
<title>PROT&#45;&gt;REG5</title>
<path fill="none" stroke="black" stroke-width="1.8" d="M811.44,-118C846.86,-118 883.27,-118 913.08,-118"/>
<polygon fill="black" stroke="black" stroke-width="1.8" points="912.71,-121.5 922.71,-118 912.71,-114.5 912.71,-121.5"/>
<text xml:space="preserve" text-anchor="middle" x="868" y="-120.7" font-family="Helvetica,sans-Serif" font-size="9.00">I protegida</text>
</g>
<!-- REG33 -->
<g id="node4" class="node">
<title>REG33</title>
<path fill="#bbf7d0" stroke="#15803d" d="M1241.11,-229.02C1241.11,-229.02 1127.68,-229.02 1127.68,-229.02 1121.68,-229.02 1115.68,-223.02 1115.68,-217.02 1115.68,-217.02 1115.68,-190.98 1115.68,-190.98 1115.68,-184.98 1121.68,-178.98 1127.68,-178.98 1127.68,-178.98 1241.11,-178.98 1241.11,-178.98 1247.11,-178.98 1253.11,-184.98 1253.11,-190.98 1253.11,-190.98 1253.11,-217.02 1253.11,-217.02 1253.11,-223.02 1247.11,-229.02 1241.11,-229.02"/>
<text xml:space="preserve" text-anchor="middle" x="1184.4" y="-207.05" font-family="Helvetica,sans-Serif" font-size="11.00">Regulador 3.3 V</text>
<text xml:space="preserve" text-anchor="middle" x="1184.4" y="-193.55" font-family="Helvetica,sans-Serif" font-size="11.00">AMS1117 (800 mA)</text>
</g>
<!-- REG5&#45;&gt;REG33 -->
<g id="edge3" class="edge">
<title>REG5&#45;&gt;REG33</title>
<path fill="none" stroke="black" stroke-width="1.8" d="M1035.13,-140.93C1058.77,-150.99 1086.84,-162.93 1112.17,-173.7"/>
<polygon fill="black" stroke="black" stroke-width="1.8" points="1110.5,-176.8 1121.08,-177.49 1113.24,-170.36 1110.5,-176.8"/>
<text xml:space="preserve" text-anchor="middle" x="1075.18" y="-163.7" font-family="Helvetica,sans-Serif" font-size="9.00">5 V</text>
</g>
<!-- RAIL5 -->
<g id="node5" class="node">
<title>RAIL5</title>
<path fill="#dbeafe" stroke="#2563eb" d="M1559.29,-143.02C1559.29,-143.02 1402.36,-143.02 1402.36,-143.02 1396.36,-143.02 1390.36,-137.02 1390.36,-131.02 1390.36,-131.02 1390.36,-104.98 1390.36,-104.98 1390.36,-98.98 1396.36,-92.98 1402.36,-92.98 1402.36,-92.98 1559.29,-92.98 1559.29,-92.98 1565.29,-92.98 1571.29,-98.98 1571.29,-104.98 1571.29,-104.98 1571.29,-131.02 1571.29,-131.02 1571.29,-137.02 1565.29,-143.02 1559.29,-143.02"/>
<text xml:space="preserve" text-anchor="middle" x="1480.83" y="-121.05" font-family="Helvetica,sans-Serif" font-size="11.00">Riel 5 V</text>
<text xml:space="preserve" text-anchor="middle" x="1480.83" y="-107.55" font-family="Helvetica,sans-Serif" font-size="11.00">(actuadores, sensores 5 V)</text>
</g>
<!-- REG5&#45;&gt;RAIL5 -->
<g id="edge4" class="edge">
<title>REG5&#45;&gt;RAIL5</title>
<path fill="none" stroke="black" stroke-width="1.8" d="M1035.05,-118C1116.76,-118 1273.53,-118 1377.41,-118"/>
<polygon fill="black" stroke="black" stroke-width="1.8" points="1377.4,-121.5 1387.4,-118 1377.4,-114.5 1377.4,-121.5"/>
<text xml:space="preserve" text-anchor="middle" x="1184.4" y="-120.7" font-family="Helvetica,sans-Serif" font-size="9.00">5 V regulados</text>
</g>
<!-- GND -->
<g id="node10" class="node">
<title>GND</title>
<path fill="#f1f5f9" stroke="#475569" d="M2174.33,-67.39C2174.33,-67.39 2367.32,-136.78 2367.32,-136.78 2372.97,-138.81 2372.61,-140.84 2366.61,-140.84 2366.61,-140.84 1959.47,-140.84 1959.47,-140.84 1953.47,-140.84 1953.12,-138.81 1958.77,-136.78 1958.77,-136.78 2151.75,-67.39 2151.75,-67.39 2157.4,-65.35 2168.69,-65.35 2174.33,-67.39"/>
<text xml:space="preserve" text-anchor="middle" x="2163.04" y="-111.3" font-family="Helvetica,sans-Serif" font-size="11.00">Plano de Tierra (GND)</text>
</g>
<!-- REG5&#45;&gt;GND -->
<g id="edge12" class="edge">
<title>REG5&#45;&gt;GND</title>
<path fill="none" stroke="black" stroke-width="1.8" stroke-dasharray="5,2" d="M1005.05,-92.69C1040.4,-58.01 1110.45,0 1183.4,0 1183.4,0 1183.4,0 1805.63,0 1915.35,0 2035.29,-49.97 2104.3,-84.03"/>
<text xml:space="preserve" text-anchor="middle" x="1480.83" y="-2.7" font-family="Helvetica,sans-Serif" font-size="9.00">referencia común</text>
</g>
<!-- RAIL33 -->
<g id="node6" class="node">
<title>RAIL33</title>
<path fill="#dbeafe" stroke="#2563eb" d="M1540.54,-239.02C1540.54,-239.02 1421.11,-239.02 1421.11,-239.02 1415.11,-239.02 1409.11,-233.02 1409.11,-227.02 1409.11,-227.02 1409.11,-200.98 1409.11,-200.98 1409.11,-194.98 1415.11,-188.98 1421.11,-188.98 1421.11,-188.98 1540.54,-188.98 1540.54,-188.98 1546.54,-188.98 1552.54,-194.98 1552.54,-200.98 1552.54,-200.98 1552.54,-227.02 1552.54,-227.02 1552.54,-233.02 1546.54,-239.02 1540.54,-239.02"/>
<text xml:space="preserve" text-anchor="middle" x="1480.83" y="-217.05" font-family="Helvetica,sans-Serif" font-size="11.00">Riel 3.3 V</text>
<text xml:space="preserve" text-anchor="middle" x="1480.83" y="-203.55" font-family="Helvetica,sans-Serif" font-size="11.00">(MCU, lógica digital)</text>
</g>
<!-- REG33&#45;&gt;RAIL33 -->
<g id="edge5" class="edge">
<title>REG33&#45;&gt;RAIL33</title>
<path fill="none" stroke="black" stroke-width="1.8" d="M1253.32,-206.31C1295.85,-207.75 1350.97,-209.62 1396.19,-211.16"/>
<polygon fill="black" stroke="black" stroke-width="1.8" points="1395.83,-214.65 1405.94,-211.49 1396.06,-207.65 1395.83,-214.65"/>
<text xml:space="preserve" text-anchor="middle" x="1321.74" y="-212.3" font-family="Helvetica,sans-Serif" font-size="9.00">3.3 V regulados</text>
</g>
<!-- SENS -->
<g id="node8" class="node">
<title>SENS</title>
<path fill="#ffedd5" stroke="#c2410c" d="M1833.6,-181.27C1833.6,-181.27 1775.67,-181.27 1775.67,-181.27 1769.67,-181.27 1763.67,-175.27 1763.67,-169.27 1763.67,-169.27 1763.67,-156.73 1763.67,-156.73 1763.67,-150.73 1769.67,-144.73 1775.67,-144.73 1775.67,-144.73 1833.6,-144.73 1833.6,-144.73 1839.6,-144.73 1845.6,-150.73 1845.6,-156.73 1845.6,-156.73 1845.6,-169.27 1845.6,-169.27 1845.6,-175.27 1839.6,-181.27 1833.6,-181.27"/>
<text xml:space="preserve" text-anchor="middle" x="1804.63" y="-159.3" font-family="Helvetica,sans-Serif" font-size="11.00">Sensores</text>
</g>
<!-- RAIL5&#45;&gt;SENS -->
<g id="edge7" class="edge">
<title>RAIL5&#45;&gt;SENS</title>
<path fill="none" stroke="black" stroke-width="1.8" d="M1571.47,-130.54C1629.17,-138.6 1702.2,-148.82 1750.79,-155.61"/>
<polygon fill="black" stroke="black" stroke-width="1.8" points="1750.11,-159.05 1760.5,-156.97 1751.08,-152.12 1750.11,-159.05"/>
<text xml:space="preserve" text-anchor="middle" x="1650.04" y="-149.86" font-family="Helvetica,sans-Serif" font-size="9.00">alimenta</text>
</g>
<!-- ACT -->
<g id="node9" class="node">
<title>ACT</title>
<path fill="#ede9fe" stroke="#7c3aed" d="M1868.47,-101.27C1868.47,-101.27 1740.79,-101.27 1740.79,-101.27 1734.79,-101.27 1728.79,-95.27 1728.79,-89.27 1728.79,-89.27 1728.79,-76.73 1728.79,-76.73 1728.79,-70.73 1734.79,-64.73 1740.79,-64.73 1740.79,-64.73 1868.47,-64.73 1868.47,-64.73 1874.47,-64.73 1880.47,-70.73 1880.47,-76.73 1880.47,-76.73 1880.47,-89.27 1880.47,-89.27 1880.47,-95.27 1874.47,-101.27 1868.47,-101.27"/>
<text xml:space="preserve" text-anchor="middle" x="1804.63" y="-79.3" font-family="Helvetica,sans-Serif" font-size="11.00">Actuadores / Potencia</text>
</g>
<!-- RAIL5&#45;&gt;ACT -->
<g id="edge8" class="edge">
<title>RAIL5&#45;&gt;ACT</title>
<path fill="none" stroke="black" stroke-width="1.8" d="M1571.65,-92.57C1582.58,-90.22 1593.64,-88.19 1604.29,-86.75 1640.65,-81.84 1681.07,-80.35 1715.96,-80.29"/>
<polygon fill="black" stroke="black" stroke-width="1.8" points="1715.8,-83.79 1725.82,-80.32 1715.83,-76.79 1715.8,-83.79"/>
<text xml:space="preserve" text-anchor="middle" x="1650.04" y="-89.45" font-family="Helvetica,sans-Serif" font-size="9.00">alimenta (vía driver)</text>
</g>
<!-- MCU -->
<g id="node7" class="node">
<title>MCU</title>
<path fill="#e0e7ff" stroke="#4338ca" d="M1854.97,-261.27C1854.97,-261.27 1754.29,-261.27 1754.29,-261.27 1748.29,-261.27 1742.29,-255.27 1742.29,-249.27 1742.29,-249.27 1742.29,-236.73 1742.29,-236.73 1742.29,-230.73 1748.29,-224.73 1754.29,-224.73 1754.29,-224.73 1854.97,-224.73 1854.97,-224.73 1860.97,-224.73 1866.97,-230.73 1866.97,-236.73 1866.97,-236.73 1866.97,-249.27 1866.97,-249.27 1866.97,-255.27 1860.97,-261.27 1854.97,-261.27"/>
<text xml:space="preserve" text-anchor="middle" x="1804.63" y="-239.3" font-family="Helvetica,sans-Serif" font-size="11.00">Microcontrolador</text>
</g>
<!-- RAIL33&#45;&gt;MCU -->
<g id="edge6" class="edge">
<title>RAIL33&#45;&gt;MCU</title>
<path fill="none" stroke="black" stroke-width="1.8" d="M1552.85,-220.4C1605.28,-225.13 1676.47,-231.54 1729.6,-236.33"/>
<polygon fill="black" stroke="black" stroke-width="1.8" points="1729.03,-239.79 1739.3,-237.2 1729.66,-232.82 1729.03,-239.79"/>
<text xml:space="preserve" text-anchor="middle" x="1650.04" y="-235.49" font-family="Helvetica,sans-Serif" font-size="9.00">alimenta</text>
</g>
<!-- MCU&#45;&gt;GND -->
<g id="edge9" class="edge">
<title>MCU&#45;&gt;GND</title>
<path fill="none" stroke="black" stroke-width="1.8" stroke-dasharray="5,2" d="M1857.84,-224.25C1918.84,-202.34 2020.18,-165.95 2088.97,-141.24"/>
</g>
<!-- SENS&#45;&gt;GND -->
<g id="edge10" class="edge">
<title>SENS&#45;&gt;GND</title>
<path fill="none" stroke="black" stroke-width="1.8" stroke-dasharray="5,2" d="M1845.83,-157.59C1876.32,-153.48 1920.7,-147.5 1966.63,-141.32"/>
</g>
<!-- ACT&#45;&gt;GND -->
<g id="edge11" class="edge">
<title>ACT&#45;&gt;GND</title>
<path fill="none" stroke="black" stroke-width="1.8" stroke-dasharray="5,2" d="M1880.78,-89.75C1928.98,-94.07 1992.5,-99.78 2046.98,-104.67"/>
</g>
</g>
</svg>
