<?xml version="1.0" encoding="UTF-8" standalone="no"?>
<!DOCTYPE svg PUBLIC "-//W3C//DTD SVG 1.1//EN"
 "http://www.w3.org/Graphics/SVG/1.1/DTD/svg11.dtd">
<!-- Generated by graphviz version 14.1.3 (20260303.0454)
 -->
<!-- Title: circuito_esquematico Pages: 1 -->
<svg width="3053pt" height="1548pt"
 viewBox="0.00 0.00 3053.00 1548.00" xmlns="http://www.w3.org/2000/svg" xmlns:xlink="http://www.w3.org/1999/xlink">
<g id="graph0" class="graph" transform="scale(1 1) rotate(0) translate(50.4 1497.49)">
<title>circuito_esquematico</title>
<polygon fill="white" stroke="none" points="-50.4,50.4 -50.4,-1497.49 3002.35,-1497.49 3002.35,50.4 -50.4,50.4"/>
<text xml:space="preserve" text-anchor="middle" x="1475.97" y="-1431.69" font-family="Helvetica,sans-Serif" font-size="12.00">Diagrama Esquemático del Circuito</text>
<text xml:space="preserve" text-anchor="middle" x="1475.97" y="-1417.44" font-family="Helvetica,sans-Serif" font-size="12.00">Conexiones eléctricas y asignación de pines</text>
<g id="clust1" class="cluster">
<title>cluster_psu</title>
<path fill="#f0fdf4" stroke="#15803d" d="M337.43,-616C337.43,-616 2704.52,-616 2704.52,-616 2710.52,-616 2716.52,-622 2716.52,-628 2716.52,-628 2716.52,-1037 2716.52,-1037 2716.52,-1043 2710.52,-1049 2704.52,-1049 2704.52,-1049 337.43,-1049 337.43,-1049 331.43,-1049 325.43,-1043 325.43,-1037 325.43,-1037 325.43,-628 325.43,-628 325.43,-622 331.43,-616 337.43,-616"/>
<text xml:space="preserve" text-anchor="middle" x="1520.97" y="-1033.6" font-family="Helvetica,sans-Serif" font-size="12.00" fill="#14532d">Bloque de Alimentación</text>
</g>
<g id="clust2" class="cluster">
<title>cluster_mcu</title>
<path fill="#eff6ff" stroke="#1d4ed8" d="M2434.97,-257C2434.97,-257 2931.95,-257 2931.95,-257 2937.95,-257 2943.95,-263 2943.95,-269 2943.95,-269 2943.95,-387 2943.95,-387 2943.95,-393 2937.95,-399 2931.95,-399 2931.95,-399 2434.97,-399 2434.97,-399 2428.97,-399 2422.97,-393 2422.97,-387 2422.97,-387 2422.97,-269 2422.97,-269 2422.97,-263 2428.97,-257 2434.97,-257"/>
<text xml:space="preserve" text-anchor="middle" x="2683.46" y="-383.6" font-family="Helvetica,sans-Serif" font-size="12.00" fill="#1e3a8a">Microcontrolador ESP32&#45;WROOM&#45;32</text>
</g>
<g id="clust3" class="cluster">
<title>cluster_sen</title>
<path fill="#fff7ed" stroke="#c2410c" d="M843.08,-370C843.08,-370 2159.98,-370 2159.98,-370 2165.98,-370 2171.98,-376 2171.98,-382 2171.98,-382 2171.98,-596 2171.98,-596 2171.98,-602 2165.98,-608 2159.98,-608 2159.98,-608 843.08,-608 843.08,-608 837.08,-608 831.08,-602 831.08,-596 831.08,-596 831.08,-382 831.08,-382 831.08,-376 837.08,-370 843.08,-370"/>
<text xml:space="preserve" text-anchor="middle" x="1501.53" y="-592.6" font-family="Helvetica,sans-Serif" font-size="12.00" fill="#7c2d12">Sensor + Acondicionamiento</text>
</g>
<g id="clust4" class="cluster">
<title>cluster_drv</title>
<path fill="#f5f3ff" stroke="#7c3aed" d="M20,-1057C20,-1057 2179.6,-1057 2179.6,-1057 2185.6,-1057 2191.6,-1063 2191.6,-1069 2191.6,-1069 2191.6,-1322 2191.6,-1322 2191.6,-1328 2185.6,-1334 2179.6,-1334 2179.6,-1334 20,-1334 20,-1334 14,-1334 8,-1328 8,-1322 8,-1322 8,-1069 8,-1069 8,-1063 14,-1057 20,-1057"/>
<text xml:space="preserve" text-anchor="middle" x="1099.8" y="-1318.6" font-family="Helvetica,sans-Serif" font-size="12.00" fill="#4c1d95">Driver / Actuador</text>
</g>
<g id="clust5" class="cluster">
<title>cluster_com</title>
<path fill="#ecfeff" stroke="#0891b2" d="M1986.15,-8C1986.15,-8 2143.15,-8 2143.15,-8 2149.15,-8 2155.15,-14 2155.15,-20 2155.15,-20 2155.15,-275 2155.15,-275 2155.15,-281 2149.15,-287 2143.15,-287 2143.15,-287 1986.15,-287 1986.15,-287 1980.15,-287 1974.15,-281 1974.15,-275 1974.15,-275 1974.15,-20 1974.15,-20 1974.15,-14 1980.15,-8 1986.15,-8"/>
<text xml:space="preserve" text-anchor="middle" x="2064.65" y="-271.6" font-family="Helvetica,sans-Serif" font-size="12.00" fill="#164e63">Depuración / Comunicación</text>
</g>
<!-- BATT -->
<g id="node1" class="node">
<title>BATT</title>
<polygon fill="#bbf7d0" stroke="#16a34a" points="633.94,-996.04 394.92,-996.04 333.43,-895.96 572.45,-895.96 633.94,-996.04"/>
<text xml:space="preserve" text-anchor="middle" x="483.69" y="-949.05" font-family="Helvetica,sans-Serif" font-size="11.00">Fuente 5 V DC / 2 A</text>
<text xml:space="preserve" text-anchor="middle" x="483.69" y="-935.55" font-family="Helvetica,sans-Serif" font-size="11.00">(USB&#45;C o adaptador)</text>
</g>
<!-- D1 -->
<g id="node2" class="node">
<title>D1</title>
<ellipse fill="#dcfce7" stroke="#15803d" cx="925.8" cy="-879" rx="139.6" ry="139.6"/>
<text xml:space="preserve" text-anchor="middle" x="925.8" y="-882.05" font-family="Helvetica,sans-Serif" font-size="11.00">Diodo 1N4007</text>
<text xml:space="preserve" text-anchor="middle" x="925.8" y="-868.55" font-family="Helvetica,sans-Serif" font-size="11.00">(protección polaridad inversa)</text>
</g>
<!-- BATT&#45;&gt;D1 -->
<g id="edge1" class="edge">
<title>BATT&#45;&gt;D1</title>
<path fill="none" stroke="black" stroke-width="1.5" d="M593.48,-929.44C648.37,-921.08 715.79,-910.82 775.45,-901.74"/>
<polygon fill="black" stroke="black" stroke-width="1.5" points="775.67,-905.24 785.02,-900.28 774.61,-898.32 775.67,-905.24"/>
<text xml:space="preserve" text-anchor="middle" x="710.07" y="-919.21" font-family="Helvetica,sans-Serif" font-size="9.00">5 V (sin proteger)</text>
</g>
<!-- ACT -->
<g id="node15" class="node">
<title>ACT</title>
<polygon fill="#c4b5fd" stroke="#5b21b6" points="1658.19,-1231.04 1340,-1231.04 1258.15,-1130.96 1576.34,-1130.96 1658.19,-1231.04"/>
<text xml:space="preserve" text-anchor="middle" x="1458.17" y="-1184.05" font-family="Helvetica,sans-Serif" font-size="11.00">Actuador / Carga</text>
<text xml:space="preserve" text-anchor="middle" x="1458.17" y="-1170.55" font-family="Helvetica,sans-Serif" font-size="11.00">(relé, motor DC, LED array...)</text>
</g>
<!-- BATT&#45;&gt;ACT -->
<g id="edge23" class="edge">
<title>BATT&#45;&gt;ACT</title>
<path fill="none" stroke="#16a34a" stroke-width="1.5" stroke-dasharray="5,2" d="M633.83,-994.94C682.18,-1010.01 736.22,-1026.03 786.19,-1039 943.52,-1079.82 1123.84,-1117.48 1257.91,-1143.75"/>
<polygon fill="#16a34a" stroke="#16a34a" stroke-width="1.5" points="1257.2,-1147.18 1267.69,-1145.66 1258.55,-1140.31 1257.2,-1147.18"/>
<text xml:space="preserve" text-anchor="middle" x="925.8" y="-1106.13" font-family="Helvetica,sans-Serif" font-size="9.00">5 V (alimentación carga)</text>
</g>
<!-- C_BIG -->
<g id="node3" class="node">
<title>C_BIG</title>
<ellipse fill="#dcfce7" stroke="#15803d" cx="1801.45" cy="-911" rx="107.25" ry="107.25"/>
<text xml:space="preserve" text-anchor="middle" x="1801.45" y="-914.05" font-family="Helvetica,sans-Serif" font-size="11.00">C1: 470 µF / 25 V</text>
<text xml:space="preserve" text-anchor="middle" x="1801.45" y="-900.55" font-family="Helvetica,sans-Serif" font-size="11.00">(desacoplo baja frec.)</text>
</g>
<!-- D1&#45;&gt;C_BIG -->
<g id="edge2" class="edge">
<title>D1&#45;&gt;C_BIG</title>
<path fill="none" stroke="black" stroke-width="1.5" d="M1065.71,-884.09C1236.09,-890.33 1521.96,-900.8 1682.27,-906.67"/>
<polygon fill="black" stroke="black" stroke-width="1.5" points="1681.68,-910.15 1691.8,-907.02 1681.93,-903.16 1681.68,-910.15"/>
<text xml:space="preserve" text-anchor="middle" x="1161.78" y="-892.31" font-family="Helvetica,sans-Serif" font-size="9.00">5 V protegido</text>
</g>
<!-- VREG -->
<g id="node4" class="node">
<title>VREG</title>
<path fill="#bbf7d0" stroke="#166534" d="M1535.51,-823.02C1535.51,-823.02 1380.83,-823.02 1380.83,-823.02 1374.83,-823.02 1368.83,-817.02 1368.83,-811.02 1368.83,-811.02 1368.83,-784.98 1368.83,-784.98 1368.83,-778.98 1374.83,-772.98 1380.83,-772.98 1380.83,-772.98 1535.51,-772.98 1535.51,-772.98 1541.51,-772.98 1547.51,-778.98 1547.51,-784.98 1547.51,-784.98 1547.51,-811.02 1547.51,-811.02 1547.51,-817.02 1541.51,-823.02 1535.51,-823.02"/>
<text xml:space="preserve" text-anchor="middle" x="1458.17" y="-801.05" font-family="Helvetica,sans-Serif" font-size="11.00">AMS1117&#45;3.3</text>
<text xml:space="preserve" text-anchor="middle" x="1458.17" y="-787.55" font-family="Helvetica,sans-Serif" font-size="11.00">(regulador 3.3 V / 800 mA)</text>
</g>
<!-- D1&#45;&gt;VREG -->
<g id="edge3" class="edge">
<title>D1&#45;&gt;VREG</title>
<path fill="none" stroke="black" stroke-width="1.5" d="M1061.29,-843.73C1074.79,-840.78 1088.33,-838.05 1101.4,-835.75 1186.84,-820.71 1284.95,-810.84 1356.47,-804.98"/>
<polygon fill="black" stroke="black" stroke-width="1.5" points="1356.66,-808.48 1366.35,-804.19 1356.1,-801.5 1356.66,-808.48"/>
<text xml:space="preserve" text-anchor="middle" x="1161.78" y="-838.45" font-family="Helvetica,sans-Serif" font-size="9.00">5 V in</text>
</g>
<!-- GND -->
<g id="node6" class="node">
<title>GND</title>
<polygon fill="#f1f5f9" stroke="#475569" points="2536.44,-861.23 2708.52,-967.38 2364.35,-967.38 2536.44,-861.23"/>
<text xml:space="preserve" text-anchor="middle" x="2536.44" y="-935.05" font-family="Helvetica,sans-Serif" font-size="11.00" fill="#334155">GND</text>
<text xml:space="preserve" text-anchor="middle" x="2536.44" y="-921.55" font-family="Helvetica,sans-Serif" font-size="11.00" fill="#334155">(plano de masa)</text>
</g>
<!-- C_BIG&#45;&gt;GND -->
<g id="edge5" class="edge">
<title>C_BIG&#45;&gt;GND</title>
<path fill="none" stroke="black" stroke-width="1.5" d="M1907.03,-932.33C1919.68,-934.25 1932.45,-935.89 1944.7,-937 2098.26,-950.92 2275.19,-946.76 2395.08,-940.97"/>
<polygon fill="black" stroke="black" stroke-width="1.5" points="2395.15,-944.47 2404.96,-940.48 2394.8,-937.48 2395.15,-944.47"/>
<text xml:space="preserve" text-anchor="middle" x="2064.15" y="-949.07" font-family="Helvetica,sans-Serif" font-size="9.00">&#45; (GND)</text>
</g>
<!-- C_SM -->
<g id="node5" class="node">
<title>C_SM</title>
<ellipse fill="#dcfce7" stroke="#15803d" cx="2064.15" cy="-730" rx="105.66" ry="105.66"/>
<text xml:space="preserve" text-anchor="middle" x="2064.15" y="-733.05" font-family="Helvetica,sans-Serif" font-size="11.00">C2: 100 nF cerámico</text>
<text xml:space="preserve" text-anchor="middle" x="2064.15" y="-719.55" font-family="Helvetica,sans-Serif" font-size="11.00">(desacoplo alta frec.)</text>
</g>
<!-- VREG&#45;&gt;C_SM -->
<g id="edge4" class="edge">
<title>VREG&#45;&gt;C_SM</title>
<path fill="none" stroke="black" stroke-width="1.5" d="M1547.97,-788C1653.58,-776.11 1830.21,-756.23 1946.7,-743.11"/>
<polygon fill="black" stroke="black" stroke-width="1.5" points="1947.03,-746.6 1956.58,-742 1946.25,-739.64 1947.03,-746.6"/>
<text xml:space="preserve" text-anchor="middle" x="1801.45" y="-772.79" font-family="Helvetica,sans-Serif" font-size="9.00">3.3 V out</text>
</g>
<!-- VREG&#45;&gt;GND -->
<g id="edge7" class="edge">
<title>VREG&#45;&gt;GND</title>
<path fill="none" stroke="black" stroke-width="1.5" d="M1547.85,-794.62C1669.83,-790.63 1877.88,-786.46 1908.7,-803 1933.79,-816.47 1920.44,-841.09 1944.7,-856 2021.09,-902.95 2265.1,-921.16 2414.55,-928.03"/>
<polygon fill="black" stroke="black" stroke-width="1.5" points="2414.07,-931.51 2424.21,-928.46 2414.38,-924.52 2414.07,-931.51"/>
<text xml:space="preserve" text-anchor="middle" x="2064.15" y="-913.45" font-family="Helvetica,sans-Serif" font-size="9.00">GND ref</text>
</g>
<!-- C_SM&#45;&gt;GND -->
<g id="edge6" class="edge">
<title>C_SM&#45;&gt;GND</title>
<path fill="none" stroke="black" stroke-width="1.5" d="M2161.74,-771.49C2248.9,-808.93 2375.54,-863.32 2456.7,-898.18"/>
<polygon fill="black" stroke="black" stroke-width="1.5" points="2455.18,-901.34 2465.75,-902.07 2457.95,-894.91 2455.18,-901.34"/>
<text xml:space="preserve" text-anchor="middle" x="2273.98" y="-839.76" font-family="Helvetica,sans-Serif" font-size="9.00">&#45; (GND)</text>
</g>
<!-- MCU -->
<g id="node7" class="node">
<title>MCU</title>
<path fill="#dbeafe" stroke="#2563eb" stroke-width="2.5" d="M2629.9,-369.02C2629.9,-369.02 2442.97,-369.02 2442.97,-369.02 2436.97,-369.02 2430.97,-363.02 2430.97,-357.02 2430.97,-357.02 2430.97,-276.98 2430.97,-276.98 2430.97,-270.98 2436.97,-264.98 2442.97,-264.98 2442.97,-264.98 2629.9,-264.98 2629.9,-264.98 2635.9,-264.98 2641.9,-270.98 2641.9,-276.98 2641.9,-276.98 2641.9,-357.02 2641.9,-357.02 2641.9,-363.02 2635.9,-369.02 2629.9,-369.02"/>
<text xml:space="preserve" text-anchor="middle" x="2536.44" y="-347.05" font-family="Helvetica,sans-Serif" font-size="11.00">ESP32</text>
<text xml:space="preserve" text-anchor="middle" x="2536.44" y="-333.55" font-family="Helvetica,sans-Serif" font-size="11.00">VIN: 3.3 V | GND</text>
<text xml:space="preserve" text-anchor="middle" x="2536.44" y="-320.05" font-family="Helvetica,sans-Serif" font-size="11.00">GPIO34 (ADC entrada analógica)</text>
<text xml:space="preserve" text-anchor="middle" x="2536.44" y="-306.55" font-family="Helvetica,sans-Serif" font-size="11.00">GPIO23 (salida digital PWM)</text>
<text xml:space="preserve" text-anchor="middle" x="2536.44" y="-293.05" font-family="Helvetica,sans-Serif" font-size="11.00">GPIO21/22 (I2C SDA/SCL)</text>
<text xml:space="preserve" text-anchor="middle" x="2536.44" y="-279.55" font-family="Helvetica,sans-Serif" font-size="11.00">GPIO1/3 &#160;(UART TX/RX)</text>
</g>
<!-- C_SM&#45;&gt;MCU -->
<g id="edge20" class="edge">
<title>C_SM&#45;&gt;MCU</title>
<path fill="none" stroke="#16a34a" stroke-width="2.2" d="M2152.15,-670.82C2204.85,-633.63 2272.46,-583.46 2328.35,-534 2383.28,-485.39 2440.45,-424.58 2480.77,-379.71"/>
<polygon fill="#16a34a" stroke="#16a34a" stroke-width="2.2" points="2483.34,-382.09 2487.4,-372.3 2478.13,-377.42 2483.34,-382.09"/>
<text xml:space="preserve" text-anchor="middle" x="2273.98" y="-621.66" font-family="Helvetica,sans-Serif" font-size="9.00">3.3 V (VIN)</text>
</g>
<!-- R_PU -->
<g id="node8" class="node">
<title>R_PU</title>
<path fill="#e0e7ff" stroke="#4338ca" d="M2923.95,-342.02C2923.95,-342.02 2822.52,-342.02 2822.52,-342.02 2816.52,-342.02 2810.52,-336.02 2810.52,-330.02 2810.52,-330.02 2810.52,-303.98 2810.52,-303.98 2810.52,-297.98 2816.52,-291.98 2822.52,-291.98 2822.52,-291.98 2923.95,-291.98 2923.95,-291.98 2929.95,-291.98 2935.95,-297.98 2935.95,-303.98 2935.95,-303.98 2935.95,-330.02 2935.95,-330.02 2935.95,-336.02 2929.95,-342.02 2923.95,-342.02"/>
<text xml:space="preserve" text-anchor="middle" x="2873.23" y="-320.05" font-family="Helvetica,sans-Serif" font-size="11.00">R1: 10 kΩ pull&#45;up</text>
<text xml:space="preserve" text-anchor="middle" x="2873.23" y="-306.55" font-family="Helvetica,sans-Serif" font-size="11.00">(línea de reset)</text>
</g>
<!-- MCU&#45;&gt;R_PU -->
<g id="edge8" class="edge">
<title>MCU&#45;&gt;R_PU</title>
<path fill="none" stroke="black" stroke-width="1.5" d="M2654.99,-317C2707.27,-317 2766.7,-317 2810.17,-317"/>
<polygon fill="black" stroke="black" stroke-width="1.5" points="2655.18,-313.5 2645.18,-317 2655.18,-320.5 2655.18,-313.5"/>
<text xml:space="preserve" text-anchor="middle" x="2759.52" y="-319.7" font-family="Helvetica,sans-Serif" font-size="9.00">EN pin</text>
</g>
<!-- OPT -->
<g id="node12" class="node">
<title>OPT</title>
<path fill="#ede9fe" stroke="#7c3aed" d="M192.43,-1122.02C192.43,-1122.02 28,-1122.02 28,-1122.02 22,-1122.02 16,-1116.02 16,-1110.02 16,-1110.02 16,-1083.98 16,-1083.98 16,-1077.98 22,-1071.98 28,-1071.98 28,-1071.98 192.43,-1071.98 192.43,-1071.98 198.43,-1071.98 204.43,-1077.98 204.43,-1083.98 204.43,-1083.98 204.43,-1110.02 204.43,-1110.02 204.43,-1116.02 198.43,-1122.02 192.43,-1122.02"/>
<text xml:space="preserve" text-anchor="middle" x="110.22" y="-1100.05" font-family="Helvetica,sans-Serif" font-size="11.00">Optoacoplador PC817</text>
<text xml:space="preserve" text-anchor="middle" x="110.22" y="-1086.55" font-family="Helvetica,sans-Serif" font-size="11.00">(aislamiento galvánico 5 kV)</text>
</g>
<!-- MCU&#45;&gt;OPT -->
<g id="edge22" class="edge">
<title>MCU&#45;&gt;OPT</title>
<path fill="none" stroke="#7c3aed" stroke-width="1.5" d="M2429.91,-317C2334.59,-317 2190.48,-317 2065.15,-317 482.69,-317 482.69,-317 482.69,-317 149.7,-317 114.89,-903.62 111.51,-1059.4"/>
<polygon fill="#7c3aed" stroke="#7c3aed" stroke-width="1.5" points="108.01,-1059.16 111.34,-1069.22 115.01,-1059.29 108.01,-1059.16"/>
<text xml:space="preserve" text-anchor="middle" x="1161.78" y="-319.7" font-family="Helvetica,sans-Serif" font-size="9.00">GPIO23 PWM → LED anode</text>
</g>
<!-- LED_DBG -->
<g id="node18" class="node">
<title>LED_DBG</title>
<ellipse fill="#a5f3fc" stroke="#0284c7" cx="2064.15" cy="-181" rx="75.43" ry="75.43"/>
<text xml:space="preserve" text-anchor="middle" x="2064.15" y="-184.05" font-family="Helvetica,sans-Serif" font-size="11.00">LED indicador</text>
<text xml:space="preserve" text-anchor="middle" x="2064.15" y="-170.55" font-family="Helvetica,sans-Serif" font-size="11.00">+ R4: 470 Ω</text>
</g>
<!-- MCU&#45;&gt;LED_DBG -->
<g id="edge19" class="edge">
<title>MCU&#45;&gt;LED_DBG</title>
<path fill="none" stroke="black" stroke-width="1.5" d="M2429.91,-286.48C2345.02,-261.93 2227.35,-227.91 2148.86,-205.21"/>
<polygon fill="black" stroke="black" stroke-width="1.5" points="2149.85,-201.85 2139.27,-202.43 2147.91,-208.57 2149.85,-201.85"/>
<text xml:space="preserve" text-anchor="middle" x="2273.98" y="-255.78" font-family="Helvetica,sans-Serif" font-size="9.00">GPIO status</text>
</g>
<!-- SEN -->
<g id="node9" class="node">
<title>SEN</title>
<path fill="#fed7aa" stroke="#ea580c" d="M1012.51,-506.15C1012.51,-509.6 973.65,-512.4 925.8,-512.4 877.95,-512.4 839.08,-509.6 839.08,-506.15 839.08,-506.15 839.08,-449.85 839.08,-449.85 839.08,-446.4 877.95,-443.6 925.8,-443.6 973.65,-443.6 1012.51,-446.4 1012.51,-449.85 1012.51,-449.85 1012.51,-506.15 1012.51,-506.15"/>
<path fill="none" stroke="#ea580c" d="M1012.51,-506.15C1012.51,-502.7 973.65,-499.89 925.8,-499.89 877.95,-499.89 839.08,-502.7 839.08,-506.15"/>
<text xml:space="preserve" text-anchor="middle" x="925.8" y="-481.05" font-family="Helvetica,sans-Serif" font-size="11.00">Sensor de señal</text>
<text xml:space="preserve" text-anchor="middle" x="925.8" y="-467.55" font-family="Helvetica,sans-Serif" font-size="11.00">(salida 0–3.3 V analógica)</text>
</g>
<!-- R_SEN -->
<g id="node10" class="node">
<title>R_SEN</title>
<path fill="#ffedd5" stroke="#c2410c" d="M1526.14,-503.02C1526.14,-503.02 1390.21,-503.02 1390.21,-503.02 1384.21,-503.02 1378.21,-497.02 1378.21,-491.02 1378.21,-491.02 1378.21,-464.98 1378.21,-464.98 1378.21,-458.98 1384.21,-452.98 1390.21,-452.98 1390.21,-452.98 1526.14,-452.98 1526.14,-452.98 1532.14,-452.98 1538.14,-458.98 1538.14,-464.98 1538.14,-464.98 1538.14,-491.02 1538.14,-491.02 1538.14,-497.02 1532.14,-503.02 1526.14,-503.02"/>
<text xml:space="preserve" text-anchor="middle" x="1458.17" y="-481.05" font-family="Helvetica,sans-Serif" font-size="11.00">R2: 1 kΩ</text>
<text xml:space="preserve" text-anchor="middle" x="1458.17" y="-467.55" font-family="Helvetica,sans-Serif" font-size="11.00">(limitador de corriente)</text>
</g>
<!-- SEN&#45;&gt;R_SEN -->
<g id="edge9" class="edge">
<title>SEN&#45;&gt;R_SEN</title>
<path fill="none" stroke="black" stroke-width="1.5" d="M1012.9,-478C1109.91,-478 1266.95,-478 1366,-478"/>
<polygon fill="black" stroke="black" stroke-width="1.5" points="1365.81,-481.5 1375.81,-478 1365.81,-474.5 1365.81,-481.5"/>
<text xml:space="preserve" text-anchor="middle" x="1161.78" y="-480.7" font-family="Helvetica,sans-Serif" font-size="9.00">V_out sensor</text>
</g>
<!-- C_SEN -->
<g id="node11" class="node">
<title>C_SEN</title>
<ellipse fill="#ffedd5" stroke="#c2410c" cx="2064.15" cy="-478" rx="99.83" ry="99.83"/>
<text xml:space="preserve" text-anchor="middle" x="2064.15" y="-481.05" font-family="Helvetica,sans-Serif" font-size="11.00">C3: 10 nF</text>
<text xml:space="preserve" text-anchor="middle" x="2064.15" y="-467.55" font-family="Helvetica,sans-Serif" font-size="11.00">(filtro RC paso&#45;bajo)</text>
</g>
<!-- R_SEN&#45;&gt;C_SEN -->
<g id="edge10" class="edge">
<title>R_SEN&#45;&gt;C_SEN</title>
<path fill="none" stroke="black" stroke-width="1.5" d="M1538.44,-478C1644.19,-478 1831.96,-478 1951.86,-478"/>
<polygon fill="black" stroke="black" stroke-width="1.5" points="1951.7,-481.5 1961.7,-478 1951.7,-474.5 1951.7,-481.5"/>
<text xml:space="preserve" text-anchor="middle" x="1801.45" y="-480.7" font-family="Helvetica,sans-Serif" font-size="9.00">nodo filtrado</text>
</g>
<!-- C_SEN&#45;&gt;GND -->
<g id="edge11" class="edge">
<title>C_SEN&#45;&gt;GND</title>
<path fill="none" stroke="black" stroke-width="1.5" d="M2163.95,-469.62C2217.16,-470.05 2281.33,-479.06 2328.35,-512.75 2443.65,-595.35 2498.03,-760.48 2520.93,-857.02"/>
<polygon fill="black" stroke="black" stroke-width="1.5" points="2517.47,-857.56 2523.13,-866.52 2524.29,-855.98 2517.47,-857.56"/>
<text xml:space="preserve" text-anchor="middle" x="2273.98" y="-515.45" font-family="Helvetica,sans-Serif" font-size="9.00">GND</text>
</g>
<!-- C_SEN&#45;&gt;MCU -->
<g id="edge21" class="edge">
<title>C_SEN&#45;&gt;MCU</title>
<path fill="none" stroke="#ea580c" stroke-width="1.5" d="M2158.91,-445.9C2233.64,-420.32 2338.67,-384.36 2418.82,-356.92"/>
<polygon fill="#ea580c" stroke="#ea580c" stroke-width="1.5" points="2419.49,-360.39 2427.81,-353.84 2417.22,-353.77 2419.49,-360.39"/>
<text xml:space="preserve" text-anchor="middle" x="2273.98" y="-424.03" font-family="Helvetica,sans-Serif" font-size="9.00">V señal → GPIO34 (ADC)</text>
</g>
<!-- R_GATE -->
<g id="node14" class="node">
<title>R_GATE</title>
<path fill="#ede9fe" stroke="#7c3aed" d="M564.4,-1184.02C564.4,-1184.02 402.97,-1184.02 402.97,-1184.02 396.97,-1184.02 390.97,-1178.02 390.97,-1172.02 390.97,-1172.02 390.97,-1145.98 390.97,-1145.98 390.97,-1139.98 396.97,-1133.98 402.97,-1133.98 402.97,-1133.98 564.4,-1133.98 564.4,-1133.98 570.4,-1133.98 576.4,-1139.98 576.4,-1145.98 576.4,-1145.98 576.4,-1172.02 576.4,-1172.02 576.4,-1178.02 570.4,-1184.02 564.4,-1184.02"/>
<text xml:space="preserve" text-anchor="middle" x="483.69" y="-1162.05" font-family="Helvetica,sans-Serif" font-size="11.00">R3: 100 Ω (gate)</text>
<text xml:space="preserve" text-anchor="middle" x="483.69" y="-1148.55" font-family="Helvetica,sans-Serif" font-size="11.00">(limita corriente transitoria)</text>
</g>
<!-- OPT&#45;&gt;R_GATE -->
<g id="edge12" class="edge">
<title>OPT&#45;&gt;R_GATE</title>
<path fill="none" stroke="black" stroke-width="1.5" d="M204.47,-1112.57C257.53,-1121.42 324.11,-1132.53 378.83,-1141.67"/>
<polygon fill="black" stroke="black" stroke-width="1.5" points="378,-1145.08 388.44,-1143.27 379.15,-1138.17 378,-1145.08"/>
<text xml:space="preserve" text-anchor="middle" x="268.93" y="-1130.7" font-family="Helvetica,sans-Serif" font-size="9.00">señal aislada</text>
</g>
<!-- MOSFET -->
<g id="node13" class="node">
<title>MOSFET</title>
<path fill="#ddd6fe" stroke="#6d28d9" d="M1003.14,-1206.02C1003.14,-1206.02 848.46,-1206.02 848.46,-1206.02 842.46,-1206.02 836.46,-1200.02 836.46,-1194.02 836.46,-1194.02 836.46,-1167.98 836.46,-1167.98 836.46,-1161.98 842.46,-1155.98 848.46,-1155.98 848.46,-1155.98 1003.14,-1155.98 1003.14,-1155.98 1009.14,-1155.98 1015.14,-1161.98 1015.14,-1167.98 1015.14,-1167.98 1015.14,-1194.02 1015.14,-1194.02 1015.14,-1200.02 1009.14,-1206.02 1003.14,-1206.02"/>
<text xml:space="preserve" text-anchor="middle" x="925.8" y="-1184.05" font-family="Helvetica,sans-Serif" font-size="11.00">MOSFET IRF540N</text>
<text xml:space="preserve" text-anchor="middle" x="925.8" y="-1170.55" font-family="Helvetica,sans-Serif" font-size="11.00">V_GS_th ≈ 2–4 V | I_D 33 A</text>
</g>
<!-- MOSFET&#45;&gt;GND -->
<g id="edge17" class="edge">
<title>MOSFET&#45;&gt;GND</title>
<path fill="none" stroke="black" stroke-width="1.5" d="M981.69,-1206.38C1163.62,-1286.63 1759.75,-1518.32 2191.6,-1323 2350.56,-1251.11 2465.26,-1065.39 2512.09,-978.33"/>
<polygon fill="black" stroke="black" stroke-width="1.5" points="2515.06,-980.19 2516.66,-969.72 2508.88,-976.91 2515.06,-980.19"/>
<text xml:space="preserve" text-anchor="middle" x="1801.45" y="-1402.04" font-family="Helvetica,sans-Serif" font-size="9.00">Source</text>
</g>
<!-- MOSFET&#45;&gt;ACT -->
<g id="edge14" class="edge">
<title>MOSFET&#45;&gt;ACT</title>
<path fill="none" stroke="black" stroke-width="1.5" d="M1015.57,-1181C1089.3,-1181 1196.33,-1181 1286.55,-1181"/>
<polygon fill="black" stroke="black" stroke-width="1.5" points="1286.33,-1184.5 1296.33,-1181 1286.33,-1177.5 1286.33,-1184.5"/>
<text xml:space="preserve" text-anchor="middle" x="1161.78" y="-1183.7" font-family="Helvetica,sans-Serif" font-size="9.00">Drain → carga</text>
</g>
<!-- R_GATE&#45;&gt;MOSFET -->
<g id="edge13" class="edge">
<title>R_GATE&#45;&gt;MOSFET</title>
<path fill="none" stroke="black" stroke-width="1.5" d="M576.68,-1163.6C649.01,-1167.21 749.64,-1172.24 824.12,-1175.97"/>
<polygon fill="black" stroke="black" stroke-width="1.5" points="823.87,-1179.46 834.04,-1176.46 824.22,-1172.47 823.87,-1179.46"/>
<text xml:space="preserve" text-anchor="middle" x="710.07" y="-1174.67" font-family="Helvetica,sans-Serif" font-size="9.00">V_GS</text>
</g>
<!-- FLYBACK -->
<g id="node16" class="node">
<title>FLYBACK</title>
<ellipse fill="#ede9fe" stroke="#7c3aed" cx="2064.15" cy="-1184" rx="119.45" ry="119.45"/>
<text xml:space="preserve" text-anchor="middle" x="2064.15" y="-1187.05" font-family="Helvetica,sans-Serif" font-size="11.00">D2: 1N4148 flyback</text>
<text xml:space="preserve" text-anchor="middle" x="2064.15" y="-1173.55" font-family="Helvetica,sans-Serif" font-size="11.00">(protección EMF inversa)</text>
</g>
<!-- ACT&#45;&gt;FLYBACK -->
<g id="edge15" class="edge">
<title>ACT&#45;&gt;FLYBACK</title>
<path fill="none" stroke="black" stroke-width="1.5" d="M1618.26,-1181.79C1716.09,-1182.28 1839.94,-1182.89 1932.11,-1183.35"/>
<polygon fill="black" stroke="black" stroke-width="1.5" points="1932.04,-1186.85 1942.05,-1183.4 1932.07,-1179.85 1932.04,-1186.85"/>
<text xml:space="preserve" text-anchor="middle" x="1801.45" y="-1185.9" font-family="Helvetica,sans-Serif" font-size="9.00">EMF inversa</text>
</g>
<!-- FLYBACK&#45;&gt;GND -->
<g id="edge16" class="edge">
<title>FLYBACK&#45;&gt;GND</title>
<path fill="none" stroke="black" stroke-width="1.5" d="M2169.82,-1127.92C2257.06,-1081.17 2379.37,-1015.63 2458.01,-973.49"/>
<polygon fill="black" stroke="black" stroke-width="1.5" points="2459.64,-976.58 2466.81,-968.77 2456.34,-970.41 2459.64,-976.58"/>
<text xml:space="preserve" text-anchor="middle" x="2273.98" y="-1098" font-family="Helvetica,sans-Serif" font-size="9.00">GND</text>
</g>
<!-- UART_IC -->
<g id="node17" class="node">
<title>UART_IC</title>
<path fill="#cffafe" stroke="#0e7490" d="M2119.37,-66.02C2119.37,-66.02 2008.94,-66.02 2008.94,-66.02 2002.94,-66.02 1996.94,-60.02 1996.94,-54.02 1996.94,-54.02 1996.94,-27.98 1996.94,-27.98 1996.94,-21.98 2002.94,-15.98 2008.94,-15.98 2008.94,-15.98 2119.37,-15.98 2119.37,-15.98 2125.37,-15.98 2131.37,-21.98 2131.37,-27.98 2131.37,-27.98 2131.37,-54.02 2131.37,-54.02 2131.37,-60.02 2125.37,-66.02 2119.37,-66.02"/>
<text xml:space="preserve" text-anchor="middle" x="2064.15" y="-44.05" font-family="Helvetica,sans-Serif" font-size="11.00">CH340G</text>
<text xml:space="preserve" text-anchor="middle" x="2064.15" y="-30.55" font-family="Helvetica,sans-Serif" font-size="11.00">(USB&#45;UART bridge)</text>
</g>
<!-- UART_IC&#45;&gt;MCU -->
<g id="edge18" class="edge">
<title>UART_IC&#45;&gt;MCU</title>
<path fill="none" stroke="black" stroke-width="1.5" d="M2131.76,-61.21C2151.45,-68.11 2172.77,-76.51 2191.6,-86 2288.32,-134.73 2390.23,-206.07 2457.75,-256.55"/>
<polygon fill="black" stroke="black" stroke-width="1.5" points="2455.55,-259.27 2465.65,-262.48 2459.75,-253.67 2455.55,-259.27"/>
<text xml:space="preserve" text-anchor="middle" x="2273.98" y="-162.81" font-family="Helvetica,sans-Serif" font-size="9.00">UART RX/TX (GPIO 1/3)</text>
</g>
</g>
</svg>
