<?xml version="1.0" encoding="UTF-8" standalone="no"?>
<!DOCTYPE svg PUBLIC "-//W3C//DTD SVG 1.1//EN"
 "http://www.w3.org/Graphics/SVG/1.1/DTD/svg11.dtd">
<!-- Generated by graphviz version 14.1.3 (20260303.0454)
 -->
<!-- Title: fsm Pages: 1 -->
<svg width="1116pt" height="422pt"
 viewBox="0.00 0.00 1116.00 422.00" xmlns="http://www.w3.org/2000/svg" xmlns:xlink="http://www.w3.org/1999/xlink">
<g id="graph0" class="graph" transform="scale(1 1) rotate(0) translate(43.2 378.89)">
<title>fsm</title>
<polygon fill="white" stroke="none" points="-43.2,43.2 -43.2,-378.89 1072.39,-378.89 1072.39,43.2 -43.2,43.2"/>
<text xml:space="preserve" text-anchor="middle" x="514.59" y="-319.34" font-family="Helvetica,sans-Serif" font-size="13.00">Diagrama de Estados (FSM)</text>
<text xml:space="preserve" text-anchor="middle" x="514.59" y="-302.84" font-family="Helvetica,sans-Serif" font-size="13.00">Comportamiento del sistema según eventos</text>
<!-- INIT -->
<g id="node1" class="node">
<title>INIT</title>
<ellipse fill="#bbf7d0" stroke="#16a34a" cx="55.95" cy="-150.6" rx="51.95" ry="51.95"/>
<ellipse fill="none" stroke="#16a34a" cx="55.95" cy="-150.6" rx="55.95" ry="55.95"/>
<text xml:space="preserve" text-anchor="middle" x="55.95" y="-146.9" font-family="Helvetica,sans-Serif" font-size="11.00">INICIALIZACIÓN</text>
</g>
<!-- IDLE -->
<g id="node2" class="node">
<title>IDLE</title>
<ellipse fill="#dbeafe" stroke="#2563eb" cx="239.43" cy="-150.6" rx="42.78" ry="42.78"/>
<text xml:space="preserve" text-anchor="middle" x="239.43" y="-153.65" font-family="Helvetica,sans-Serif" font-size="11.00">EN ESPERA</text>
<text xml:space="preserve" text-anchor="middle" x="239.43" y="-140.15" font-family="Helvetica,sans-Serif" font-size="11.00">(IDLE)</text>
</g>
<!-- INIT&#45;&gt;IDLE -->
<g id="edge1" class="edge">
<title>INIT&#45;&gt;IDLE</title>
<path fill="none" stroke="black" d="M112.39,-150.6C135.48,-150.6 162.19,-150.6 185.07,-150.6"/>
<polygon fill="black" stroke="black" points="184.78,-154.1 194.78,-150.6 184.78,-147.1 184.78,-154.1"/>
<text xml:space="preserve" text-anchor="middle" x="154.28" y="-153.3" font-family="Helvetica,sans-Serif" font-size="9.00">setup() OK</text>
</g>
<!-- LECT -->
<g id="node3" class="node">
<title>LECT</title>
<ellipse fill="#dbeafe" stroke="#2563eb" cx="458.83" cy="-222.6" rx="44.45" ry="44.45"/>
<text xml:space="preserve" text-anchor="middle" x="458.83" y="-225.65" font-family="Helvetica,sans-Serif" font-size="11.00">LECTURA</text>
<text xml:space="preserve" text-anchor="middle" x="458.83" y="-212.15" font-family="Helvetica,sans-Serif" font-size="11.00">DE SENSOR</text>
</g>
<!-- IDLE&#45;&gt;LECT -->
<g id="edge2" class="edge">
<title>IDLE&#45;&gt;LECT</title>
<path fill="none" stroke="black" d="M280.56,-163.89C315.77,-175.55 367.22,-192.59 405.62,-205.31"/>
<polygon fill="black" stroke="black" points="404.06,-208.48 414.65,-208.3 406.26,-201.83 404.06,-208.48"/>
<text xml:space="preserve" text-anchor="middle" x="348.21" y="-204.02" font-family="Helvetica,sans-Serif" font-size="9.00">tick del temporizador</text>
</g>
<!-- APAGA -->
<g id="node7" class="node">
<title>APAGA</title>
<ellipse fill="#e2e8f0" stroke="#475569" cx="985.57" cy="-43.6" rx="39.6" ry="39.6"/>
<ellipse fill="none" stroke="#475569" cx="985.57" cy="-43.6" rx="43.6" ry="43.6"/>
<text xml:space="preserve" text-anchor="middle" x="985.57" y="-46.65" font-family="Helvetica,sans-Serif" font-size="11.00">APAGADO</text>
<text xml:space="preserve" text-anchor="middle" x="985.57" y="-33.15" font-family="Helvetica,sans-Serif" font-size="11.00">SEGURO</text>
</g>
<!-- IDLE&#45;&gt;APAGA -->
<g id="edge10" class="edge">
<title>IDLE&#45;&gt;APAGA</title>
<path fill="none" stroke="black" d="M276.71,-129.22C284.3,-125.31 292.38,-121.54 300.21,-118.6 448.49,-62.96 490.1,-56.49 647.46,-38.6 723.19,-29.99 742.75,-37.45 818.96,-38.6 856.1,-39.16 897.92,-40.43 930.24,-41.55"/>
<polygon fill="black" stroke="black" points="930.06,-45.04 940.18,-41.9 930.31,-38.05 930.06,-45.04"/>
<text xml:space="preserve" text-anchor="middle" x="575.46" y="-57.11" font-family="Helvetica,sans-Serif" font-size="9.00">interrupción del usuario</text>
</g>
<!-- EVAL -->
<g id="node4" class="node">
<title>EVAL</title>
<polygon fill="#fef9c3" stroke="#ca8a04" points="733.21,-257.6 647.46,-222.6 733.21,-187.6 818.96,-222.6 733.21,-257.6"/>
<text xml:space="preserve" text-anchor="middle" x="733.21" y="-225.65" font-family="Helvetica,sans-Serif" font-size="11.00">EVALUACIÓN</text>
<text xml:space="preserve" text-anchor="middle" x="733.21" y="-212.15" font-family="Helvetica,sans-Serif" font-size="11.00">DE UMBRAL</text>
</g>
<!-- LECT&#45;&gt;EVAL -->
<g id="edge3" class="edge">
<title>LECT&#45;&gt;EVAL</title>
<path fill="none" stroke="black" d="M503.6,-222.6C538.95,-222.6 590.03,-222.6 634.95,-222.6"/>
<polygon fill="black" stroke="black" points="634.7,-226.1 644.7,-222.6 634.7,-219.1 634.7,-226.1"/>
<text xml:space="preserve" text-anchor="middle" x="575.46" y="-225.3" font-family="Helvetica,sans-Serif" font-size="9.00">dato adquirido</text>
</g>
<!-- ERROR -->
<g id="node6" class="node">
<title>ERROR</title>
<ellipse fill="#fecaca" stroke="#dc2626" cx="733.21" cy="-87.6" rx="39.6" ry="39.6"/>
<text xml:space="preserve" text-anchor="middle" x="733.21" y="-90.65" font-family="Helvetica,sans-Serif" font-size="11.00">ERROR /</text>
<text xml:space="preserve" text-anchor="middle" x="733.21" y="-77.15" font-family="Helvetica,sans-Serif" font-size="11.00">FALLA</text>
</g>
<!-- LECT&#45;&gt;ERROR -->
<g id="edge7" class="edge">
<title>LECT&#45;&gt;ERROR</title>
<path fill="none" stroke="black" d="M502.48,-212.03C537.73,-202.36 588.46,-186.27 629.46,-164.6 652.32,-152.51 675.57,-135.57 694.15,-120.65"/>
<polygon fill="black" stroke="black" points="696.17,-123.51 701.7,-114.48 691.75,-118.09 696.17,-123.51"/>
<text xml:space="preserve" text-anchor="middle" x="575.46" y="-209.06" font-family="Helvetica,sans-Serif" font-size="9.00">excepción / timeout</text>
</g>
<!-- EVAL&#45;&gt;IDLE -->
<g id="edge5" class="edge">
<title>EVAL&#45;&gt;IDLE</title>
<path fill="none" stroke="black" d="M689.88,-240.43C628.57,-263.84 511.69,-299.33 414.21,-275.6 358.78,-262.11 345.41,-251.41 300.21,-216.6 291.11,-209.6 282.27,-201.1 274.29,-192.57"/>
<polygon fill="black" stroke="black" points="276.94,-190.28 267.64,-185.21 271.74,-194.98 276.94,-190.28"/>
<text xml:space="preserve" text-anchor="middle" x="458.83" y="-286.14" font-family="Helvetica,sans-Serif" font-size="9.00">valor ≤ umbral bajo</text>
</g>
<!-- ACTIVO -->
<g id="node5" class="node">
<title>ACTIVO</title>
<ellipse fill="#ede9fe" stroke="#7c3aed" cx="985.57" cy="-180.6" rx="43.61" ry="43.61"/>
<text xml:space="preserve" text-anchor="middle" x="985.57" y="-183.65" font-family="Helvetica,sans-Serif" font-size="11.00">ACTUADOR</text>
<text xml:space="preserve" text-anchor="middle" x="985.57" y="-170.15" font-family="Helvetica,sans-Serif" font-size="11.00">ACTIVO</text>
</g>
<!-- EVAL&#45;&gt;ACTIVO -->
<g id="edge4" class="edge">
<title>EVAL&#45;&gt;ACTIVO</title>
<path fill="none" stroke="black" d="M795.14,-212.38C836.63,-205.42 891.06,-196.29 930.92,-189.6"/>
<polygon fill="black" stroke="black" points="931.49,-193.05 940.78,-187.95 930.34,-186.15 931.49,-193.05"/>
<text xml:space="preserve" text-anchor="middle" x="880.46" y="-208.06" font-family="Helvetica,sans-Serif" font-size="9.00">valor ≥ umbral alto</text>
</g>
<!-- ACTIVO&#45;&gt;IDLE -->
<g id="edge6" class="edge">
<title>ACTIVO&#45;&gt;IDLE</title>
<path fill="none" stroke="black" d="M941.74,-175.77C875.08,-168.51 742.43,-155.15 629.46,-150.35 581.5,-148.31 569.46,-150.33 521.46,-150.35 442.2,-150.39 350.37,-150.48 293.84,-150.54"/>
<polygon fill="black" stroke="black" points="293.84,-147.04 283.84,-150.55 293.85,-154.04 293.84,-147.04"/>
<text xml:space="preserve" text-anchor="middle" x="575.46" y="-153.05" font-family="Helvetica,sans-Serif" font-size="9.00">condición de apagado</text>
</g>
<!-- ERROR&#45;&gt;IDLE -->
<g id="edge8" class="edge">
<title>ERROR&#45;&gt;IDLE</title>
<path fill="none" stroke="black" d="M693.27,-90.48C617.29,-96.43 444.12,-111.67 300.21,-136.6 297.73,-137.03 295.21,-137.5 292.66,-137.99"/>
<polygon fill="black" stroke="black" points="292.02,-134.55 282.94,-140.02 293.45,-141.41 292.02,-134.55"/>
<text xml:space="preserve" text-anchor="middle" x="458.83" y="-121.54" font-family="Helvetica,sans-Serif" font-size="9.00">reintento OK</text>
</g>
<!-- ERROR&#45;&gt;APAGA -->
<g id="edge9" class="edge">
<title>ERROR&#45;&gt;APAGA</title>
<path fill="none" stroke="black" d="M772.51,-80.87C814.9,-73.42 883.53,-61.36 931.18,-52.98"/>
<polygon fill="black" stroke="black" points="931.78,-56.43 941.03,-51.25 930.57,-49.54 931.78,-56.43"/>
<text xml:space="preserve" text-anchor="middle" x="880.46" y="-72.24" font-family="Helvetica,sans-Serif" font-size="9.00">fallo crítico</text>
</g>
</g>
</svg>
