<?xml version="1.0" encoding="UTF-8" standalone="no"?>
<!DOCTYPE svg PUBLIC "-//W3C//DTD SVG 1.1//EN"
 "http://www.w3.org/Graphics/SVG/1.1/DTD/svg11.dtd">
<!-- Generated by graphviz version 14.1.3 (20260303.0454)
 -->
<!-- Title: mecanico Pages: 1 -->
<svg width="474pt" height="223pt"
 viewBox="0.00 0.00 474.00 223.00" xmlns="http://www.w3.org/2000/svg" xmlns:xlink="http://www.w3.org/1999/xlink">
<g id="graph0" class="graph" transform="scale(1 1) rotate(0) translate(4 218.7)">
<title>mecanico</title>
<polygon fill="white" stroke="none" points="-4,4 -4,-218.7 470,-218.7 470,4 -4,4"/>
<text xml:space="preserve" text-anchor="middle" x="233" y="-21.1" font-family="Helvetica,sans-Serif" font-size="12.00">Diagrama Mecánico — Croquis 2D del Encapsulado (vista superior)</text>
<text xml:space="preserve" text-anchor="middle" x="233" y="-6.85" font-family="Helvetica,sans-Serif" font-size="12.00">Cotas orientativas en mm — referencia conceptual, no sustituye plano CAD</text>
<!-- ENC -->
<g id="node1" class="node">
<title>ENC</title>
<path fill="#f1f5f9" stroke="#334155" stroke-width="2" d="M329,-200.3C329,-200.3 137,-200.3 137,-200.3 131,-200.3 125,-194.3 125,-188.3 125,-188.3 125,-68.3 125,-68.3 125,-62.3 131,-56.3 137,-56.3 137,-56.3 329,-56.3 329,-56.3 335,-56.3 341,-62.3 341,-68.3 341,-68.3 341,-188.3 341,-188.3 341,-194.3 335,-200.3 329,-200.3"/>
<text xml:space="preserve" text-anchor="middle" x="233" y="-131" font-family="Helvetica,sans-Serif" font-size="9.00">Caja / Chasis</text>
<text xml:space="preserve" text-anchor="middle" x="233" y="-119.75" font-family="Helvetica,sans-Serif" font-size="9.00">120 x 80 x 40 mm</text>
</g>
<!-- PCB -->
<g id="node2" class="node">
<title>PCB</title>
<path fill="#dbeafe" stroke="#2563eb" d="M307.4,-185.9C307.4,-185.9 158.6,-185.9 158.6,-185.9 152.6,-185.9 146.6,-179.9 146.6,-173.9 146.6,-173.9 146.6,-97.1 146.6,-97.1 146.6,-91.1 152.6,-85.1 158.6,-85.1 158.6,-85.1 307.4,-85.1 307.4,-85.1 313.4,-85.1 319.4,-91.1 319.4,-97.1 319.4,-97.1 319.4,-173.9 319.4,-173.9 319.4,-179.9 313.4,-185.9 307.4,-185.9"/>
<text xml:space="preserve" text-anchor="middle" x="233" y="-138.2" font-family="Helvetica,sans-Serif" font-size="9.00">PCB principal</text>
<text xml:space="preserve" text-anchor="middle" x="233" y="-126.95" font-family="Helvetica,sans-Serif" font-size="9.00">100 x 60 mm</text>
</g>
<!-- CONN1 -->
<g id="node3" class="node">
<title>CONN1</title>
<path fill="#dcfce7" stroke="#16a34a" d="M133.4,-207.5C133.4,-207.5 87.8,-207.5 87.8,-207.5 83,-207.5 78.2,-202.7 78.2,-197.9 78.2,-197.9 78.2,-188.3 78.2,-188.3 78.2,-183.5 83,-178.7 87.8,-178.7 87.8,-178.7 133.4,-178.7 133.4,-178.7 138.2,-178.7 143,-183.5 143,-188.3 143,-188.3 143,-197.9 143,-197.9 143,-202.7 138.2,-207.5 133.4,-207.5"/>
<text xml:space="preserve" text-anchor="middle" x="110.6" y="-195.25" font-family="Helvetica,sans-Serif" font-size="8.00">Conector</text>
<text xml:space="preserve" text-anchor="middle" x="110.6" y="-185.5" font-family="Helvetica,sans-Serif" font-size="8.00">alimentación</text>
</g>
<!-- CONN2 -->
<g id="node4" class="node">
<title>CONN2</title>
<path fill="#cffafe" stroke="#0891b2" d="M378.2,-207.5C378.2,-207.5 332.6,-207.5 332.6,-207.5 327.8,-207.5 323,-202.7 323,-197.9 323,-197.9 323,-188.3 323,-188.3 323,-183.5 327.8,-178.7 332.6,-178.7 332.6,-178.7 378.2,-178.7 378.2,-178.7 383,-178.7 387.8,-183.5 387.8,-188.3 387.8,-188.3 387.8,-197.9 387.8,-197.9 387.8,-202.7 383,-207.5 378.2,-207.5"/>
<text xml:space="preserve" text-anchor="middle" x="355.4" y="-195.25" font-family="Helvetica,sans-Serif" font-size="8.00">Puerto</text>
<text xml:space="preserve" text-anchor="middle" x="355.4" y="-185.5" font-family="Helvetica,sans-Serif" font-size="8.00">USB/UART</text>
</g>
<!-- VENT -->
<g id="node5" class="node">
<title>VENT</title>
<path fill="#fef9c3" stroke="#ca8a04" d="M275,-61.7C275,-61.7 191,-61.7 191,-61.7 186.8,-61.7 182.6,-57.5 182.6,-53.3 182.6,-53.3 182.6,-44.9 182.6,-44.9 182.6,-40.7 186.8,-36.5 191,-36.5 191,-36.5 275,-36.5 275,-36.5 279.2,-36.5 283.4,-40.7 283.4,-44.9 283.4,-44.9 283.4,-53.3 283.4,-53.3 283.4,-57.5 279.2,-61.7 275,-61.7"/>
<text xml:space="preserve" text-anchor="middle" x="233" y="-51.25" font-family="Helvetica,sans-Serif" font-size="8.00">Rejillas de</text>
<text xml:space="preserve" text-anchor="middle" x="233" y="-41.5" font-family="Helvetica,sans-Serif" font-size="8.00">ventilación</text>
</g>
<!-- MOUNT1 -->
<g id="node6" class="node">
<title>MOUNT1</title>
<ellipse fill="#e2e8f0" stroke="#475569" cx="125" cy="-200.3" rx="14.4" ry="14.4"/>
<text xml:space="preserve" text-anchor="middle" x="125" y="-198.15" font-family="Helvetica,sans-Serif" font-size="7.00">Ø3</text>
</g>
<!-- MOUNT2 -->
<g id="node7" class="node">
<title>MOUNT2</title>
<ellipse fill="#e2e8f0" stroke="#475569" cx="341" cy="-200.3" rx="14.4" ry="14.4"/>
<text xml:space="preserve" text-anchor="middle" x="341" y="-198.15" font-family="Helvetica,sans-Serif" font-size="7.00">Ø3</text>
</g>
<!-- MOUNT3 -->
<g id="node8" class="node">
<title>MOUNT3</title>
<ellipse fill="#e2e8f0" stroke="#475569" cx="125" cy="-56.3" rx="14.4" ry="14.4"/>
<text xml:space="preserve" text-anchor="middle" x="125" y="-54.15" font-family="Helvetica,sans-Serif" font-size="7.00">Ø3</text>
</g>
<!-- MOUNT4 -->
<g id="node9" class="node">
<title>MOUNT4</title>
<ellipse fill="#e2e8f0" stroke="#475569" cx="341" cy="-56.3" rx="14.4" ry="14.4"/>
<text xml:space="preserve" text-anchor="middle" x="341" y="-54.15" font-family="Helvetica,sans-Serif" font-size="7.00">Ø3</text>
</g>
</g>
</svg>
