<?xml version="1.0" encoding="UTF-8" standalone="no"?>
<!DOCTYPE svg PUBLIC "-//W3C//DTD SVG 1.1//EN"
 "http://www.w3.org/Graphics/SVG/1.1/DTD/svg11.dtd">
<!-- Generated by graphviz version 14.1.3 (20260303.0454)
 -->
<!-- Title: flujo_senal Pages: 1 -->
<svg width="1512pt" height="184pt"
 viewBox="0.00 0.00 1512.00 184.00" xmlns="http://www.w3.org/2000/svg" xmlns:xlink="http://www.w3.org/1999/xlink">
<g id="graph0" class="graph" transform="scale(1 1) rotate(0) translate(36 148.25)">
<title>flujo_senal</title>
<polygon fill="white" stroke="none" points="-36,36 -36,-148.25 1476.25,-148.25 1476.25,36 -36,36"/>
<text xml:space="preserve" text-anchor="middle" x="720.12" y="-96.85" font-family="Helvetica,sans-Serif" font-size="12.00">Diagrama de Flujo de Señal (Telecomunicaciones &amp; Procesamiento)</text>
<!-- SENS_PHYS -->
<g id="node1" class="node">
<title>SENS_PHYS</title>
<path fill="#ffedd5" stroke="#c2410c" d="M85,-63.84C85,-66.15 65.95,-68.03 42.5,-68.03 19.05,-68.03 0,-66.15 0,-63.84 0,-63.84 0,-26.16 0,-26.16 0,-23.85 19.05,-21.97 42.5,-21.97 65.95,-21.97 85,-23.85 85,-26.16 85,-26.16 85,-63.84 85,-63.84"/>
<path fill="none" stroke="#c2410c" d="M85,-63.84C85,-61.53 65.95,-59.66 42.5,-59.66 19.05,-59.66 0,-61.53 0,-63.84"/>
<text xml:space="preserve" text-anchor="middle" x="42.5" y="-48.25" font-family="Helvetica,sans-Serif" font-size="10.00">Entrada Física</text>
<text xml:space="preserve" text-anchor="middle" x="42.5" y="-35.5" font-family="Helvetica,sans-Serif" font-size="10.00">(Sensor)</text>
</g>
<!-- TRANSDUCER -->
<g id="node2" class="node">
<title>TRANSDUCER</title>
<path fill="#ecfeff" stroke="#0891b2" d="M308,-63C308,-63 201.25,-63 201.25,-63 195.25,-63 189.25,-57 189.25,-51 189.25,-51 189.25,-39 189.25,-39 189.25,-33 195.25,-27 201.25,-27 201.25,-27 308,-27 308,-27 314,-27 320,-33 320,-39 320,-39 320,-51 320,-51 320,-57 314,-63 308,-63"/>
<text xml:space="preserve" text-anchor="middle" x="254.62" y="-48.25" font-family="Helvetica,sans-Serif" font-size="10.00">Transductor</text>
<text xml:space="preserve" text-anchor="middle" x="254.62" y="-35.5" font-family="Helvetica,sans-Serif" font-size="10.00">(Señal analógica cruda)</text>
</g>
<!-- SENS_PHYS&#45;&gt;TRANSDUCER -->
<g id="edge1" class="edge">
<title>SENS_PHYS&#45;&gt;TRANSDUCER</title>
<path fill="none" stroke="#0891b2" stroke-width="1.5" d="M85.27,-45C111.36,-45 145.77,-45 176.67,-45"/>
<polygon fill="#0891b2" stroke="#0891b2" stroke-width="1.5" points="176.5,-48.5 186.5,-45 176.5,-41.5 176.5,-48.5"/>
<text xml:space="preserve" text-anchor="middle" x="137.12" y="-47.7" font-family="Helvetica,sans-Serif" font-size="9.00">Magnitud física</text>
</g>
<!-- FILTER_AMP -->
<g id="node3" class="node">
<title>FILTER_AMP</title>
<path fill="#ecfeff" stroke="#0891b2" d="M510.75,-63C510.75,-63 417.5,-63 417.5,-63 411.5,-63 405.5,-57 405.5,-51 405.5,-51 405.5,-39 405.5,-39 405.5,-33 411.5,-27 417.5,-27 417.5,-27 510.75,-27 510.75,-27 516.75,-27 522.75,-33 522.75,-39 522.75,-39 522.75,-51 522.75,-51 522.75,-57 516.75,-63 510.75,-63"/>
<text xml:space="preserve" text-anchor="middle" x="464.12" y="-48.25" font-family="Helvetica,sans-Serif" font-size="10.00">Filtro / Amp</text>
<text xml:space="preserve" text-anchor="middle" x="464.12" y="-35.5" font-family="Helvetica,sans-Serif" font-size="10.00">(Acondicionamiento)</text>
</g>
<!-- TRANSDUCER&#45;&gt;FILTER_AMP -->
<g id="edge2" class="edge">
<title>TRANSDUCER&#45;&gt;FILTER_AMP</title>
<path fill="none" stroke="#0891b2" stroke-width="1.5" d="M320.43,-45C343.51,-45 369.61,-45 393.12,-45"/>
<polygon fill="#0891b2" stroke="#0891b2" stroke-width="1.5" points="392.87,-48.5 402.87,-45 392.87,-41.5 392.87,-48.5"/>
<text xml:space="preserve" text-anchor="middle" x="362.75" y="-47.7" font-family="Helvetica,sans-Serif" font-size="9.00">Tensión (V)</text>
</g>
<!-- ADC_CONV -->
<g id="node4" class="node">
<title>ADC_CONV</title>
<path fill="#ecfeff" stroke="#0891b2" d="M706,-63C706,-63 612,-63 612,-63 606,-63 600,-57 600,-51 600,-51 600,-39 600,-39 600,-33 606,-27 612,-27 612,-27 706,-27 706,-27 712,-27 718,-33 718,-39 718,-39 718,-51 718,-51 718,-57 712,-63 706,-63"/>
<text xml:space="preserve" text-anchor="middle" x="659" y="-48.25" font-family="Helvetica,sans-Serif" font-size="10.00">Conversión ADC</text>
<text xml:space="preserve" text-anchor="middle" x="659" y="-35.5" font-family="Helvetica,sans-Serif" font-size="10.00">(Cuantización 12&#45;bit)</text>
</g>
<!-- FILTER_AMP&#45;&gt;ADC_CONV -->
<g id="edge3" class="edge">
<title>FILTER_AMP&#45;&gt;ADC_CONV</title>
<path fill="none" stroke="#0891b2" stroke-width="1.5" d="M522.99,-45C543.21,-45 566.14,-45 587.29,-45"/>
<polygon fill="#0891b2" stroke="#0891b2" stroke-width="1.5" points="587.24,-48.5 597.24,-45 587.24,-41.5 587.24,-48.5"/>
<text xml:space="preserve" text-anchor="middle" x="561.38" y="-47.7" font-family="Helvetica,sans-Serif" font-size="9.00">V filtrada</text>
</g>
<!-- MCU_PROC -->
<g id="node5" class="node">
<title>MCU_PROC</title>
<path fill="#ecfeff" stroke="#0891b2" d="M935.75,-63C935.75,-63 820.75,-63 820.75,-63 814.75,-63 808.75,-57 808.75,-51 808.75,-51 808.75,-39 808.75,-39 808.75,-33 814.75,-27 820.75,-27 820.75,-27 935.75,-27 935.75,-27 941.75,-27 947.75,-33 947.75,-39 947.75,-39 947.75,-51 947.75,-51 947.75,-57 941.75,-63 935.75,-63"/>
<text xml:space="preserve" text-anchor="middle" x="878.25" y="-48.25" font-family="Helvetica,sans-Serif" font-size="10.00">Procesamiento MCU</text>
<text xml:space="preserve" text-anchor="middle" x="878.25" y="-35.5" font-family="Helvetica,sans-Serif" font-size="10.00">(Filtrado digital &amp; Lógica)</text>
</g>
<!-- ADC_CONV&#45;&gt;MCU_PROC -->
<g id="edge4" class="edge">
<title>ADC_CONV&#45;&gt;MCU_PROC</title>
<path fill="none" stroke="#0891b2" stroke-width="1.5" d="M718.22,-45C742.2,-45 770.39,-45 796.32,-45"/>
<polygon fill="#0891b2" stroke="#0891b2" stroke-width="1.5" points="796.18,-48.5 806.18,-45 796.18,-41.5 796.18,-48.5"/>
<text xml:space="preserve" text-anchor="middle" x="763.38" y="-47.7" font-family="Helvetica,sans-Serif" font-size="9.00">Dato binario</text>
</g>
<!-- TX_UART -->
<g id="node6" class="node">
<title>TX_UART</title>
<path fill="#ecfeff" stroke="#0891b2" d="M1138.5,-90C1138.5,-90 1081.25,-90 1081.25,-90 1075.25,-90 1069.25,-84 1069.25,-78 1069.25,-78 1069.25,-66 1069.25,-66 1069.25,-60 1075.25,-54 1081.25,-54 1081.25,-54 1138.5,-54 1138.5,-54 1144.5,-54 1150.5,-60 1150.5,-66 1150.5,-66 1150.5,-78 1150.5,-78 1150.5,-84 1144.5,-90 1138.5,-90"/>
<text xml:space="preserve" text-anchor="middle" x="1109.88" y="-75.25" font-family="Helvetica,sans-Serif" font-size="10.00">Módulo UART</text>
<text xml:space="preserve" text-anchor="middle" x="1109.88" y="-62.5" font-family="Helvetica,sans-Serif" font-size="10.00">(Serial TX)</text>
</g>
<!-- MCU_PROC&#45;&gt;TX_UART -->
<g id="edge5" class="edge">
<title>MCU_PROC&#45;&gt;TX_UART</title>
<path fill="none" stroke="#0891b2" stroke-width="1.5" d="M948.15,-53.1C983.17,-57.22 1025.02,-62.14 1057.24,-65.93"/>
<polygon fill="#0891b2" stroke="#0891b2" stroke-width="1.5" points="1056.48,-69.36 1066.82,-67.06 1057.3,-62.41 1056.48,-69.36"/>
<text xml:space="preserve" text-anchor="middle" x="1001.75" y="-65.97" font-family="Helvetica,sans-Serif" font-size="9.00">Trama serial</text>
</g>
<!-- WIFI_TX -->
<g id="node7" class="node">
<title>WIFI_TX</title>
<path fill="#ecfeff" stroke="#0891b2" d="M1152,-36C1152,-36 1067.75,-36 1067.75,-36 1061.75,-36 1055.75,-30 1055.75,-24 1055.75,-24 1055.75,-12 1055.75,-12 1055.75,-6 1061.75,0 1067.75,0 1067.75,0 1152,0 1152,0 1158,0 1164,-6 1164,-12 1164,-12 1164,-24 1164,-24 1164,-30 1158,-36 1152,-36"/>
<text xml:space="preserve" text-anchor="middle" x="1109.88" y="-21.25" font-family="Helvetica,sans-Serif" font-size="10.00">Wi&#45;Fi (MQTT/HTTP)</text>
<text xml:space="preserve" text-anchor="middle" x="1109.88" y="-8.5" font-family="Helvetica,sans-Serif" font-size="10.00">(Modulación RF)</text>
</g>
<!-- MCU_PROC&#45;&gt;WIFI_TX -->
<g id="edge6" class="edge">
<title>MCU_PROC&#45;&gt;WIFI_TX</title>
<path fill="none" stroke="#0891b2" stroke-width="1.5" d="M948.15,-36.9C978.33,-33.35 1013.59,-29.2 1043.38,-25.7"/>
<polygon fill="#0891b2" stroke="#0891b2" stroke-width="1.5" points="1043.58,-29.2 1053.1,-24.56 1042.76,-22.25 1043.58,-29.2"/>
<text xml:space="preserve" text-anchor="middle" x="1001.75" y="-37.41" font-family="Helvetica,sans-Serif" font-size="9.00">Paquetes TCP/IP</text>
</g>
<!-- CLOUD_RX -->
<g id="node8" class="node">
<title>CLOUD_RX</title>
<path fill="#eff6ff" stroke="#2563eb" d="M1428.25,-36C1428.25,-36 1305.75,-36 1305.75,-36 1299.75,-36 1293.75,-30 1293.75,-24 1293.75,-24 1293.75,-12 1293.75,-12 1293.75,-6 1299.75,0 1305.75,0 1305.75,0 1428.25,0 1428.25,0 1434.25,0 1440.25,-6 1440.25,-12 1440.25,-12 1440.25,-24 1440.25,-24 1440.25,-30 1434.25,-36 1428.25,-36"/>
<text xml:space="preserve" text-anchor="middle" x="1367" y="-21.25" font-family="Helvetica,sans-Serif" font-size="10.00">Servidor Nube / Dashboard</text>
<text xml:space="preserve" text-anchor="middle" x="1367" y="-8.5" font-family="Helvetica,sans-Serif" font-size="10.00">(Recepción de Datos)</text>
</g>
<!-- WIFI_TX&#45;&gt;CLOUD_RX -->
<g id="edge7" class="edge">
<title>WIFI_TX&#45;&gt;CLOUD_RX</title>
<path fill="none" stroke="#0891b2" stroke-width="1.5" d="M1164.36,-18C1198.32,-18 1242.99,-18 1281.66,-18"/>
<polygon fill="#0891b2" stroke="#0891b2" stroke-width="1.5" points="1281.44,-21.5 1291.44,-18 1281.44,-14.5 1281.44,-21.5"/>
<text xml:space="preserve" text-anchor="middle" x="1228.88" y="-20.7" font-family="Helvetica,sans-Serif" font-size="9.00">Radiofrecuencia (RF)</text>
</g>
</g>
</svg>
