<?xml version="1.0" encoding="UTF-8" standalone="no"?>
<!DOCTYPE svg PUBLIC "-//W3C//DTD SVG 1.1//EN"
 "http://www.w3.org/Graphics/SVG/1.1/DTD/svg11.dtd">
<!-- Generated by graphviz version 14.1.3 (20260303.0454)
 -->
<!-- Title: bloques_funcionales Pages: 1 -->
<svg width="1576pt" height="1286pt"
 viewBox="0.00 0.00 1576.00 1286.00" xmlns="http://www.w3.org/2000/svg" xmlns:xlink="http://www.w3.org/1999/xlink">
<g id="graph0" class="graph" transform="scale(1 1) rotate(0) translate(43.2 1242.31)">
<title>bloques_funcionales</title>
<polygon fill="white" stroke="none" points="-43.2,43.2 -43.2,-1242.31 1533.2,-1242.31 1533.2,43.2 -43.2,43.2"/>
<text xml:space="preserve" text-anchor="middle" x="745" y="-1182.76" font-family="Helvetica,sans-Serif" font-size="13.00">Diagrama de Bloques Funcionales</text>
<text xml:space="preserve" text-anchor="middle" x="745" y="-1166.26" font-family="Helvetica,sans-Serif" font-size="13.00">Arquitectura de etapas del sistema electrónico</text>
<g id="clust1" class="cluster">
<title>cluster_pwr</title>
<path fill="#f0fdf4" stroke="#16a34a" d="M20,-637.26C20,-637.26 388,-637.26 388,-637.26 394,-637.26 400,-643.26 400,-649.26 400,-649.26 400,-1138.11 400,-1138.11 400,-1144.11 394,-1150.11 388,-1150.11 388,-1150.11 20,-1150.11 20,-1150.11 14,-1150.11 8,-1144.11 8,-1138.11 8,-1138.11 8,-649.26 8,-649.26 8,-643.26 14,-637.26 20,-637.26"/>
<text xml:space="preserve" text-anchor="middle" x="204" y="-1133.76" font-family="Helvetica,sans-Serif" font-size="13.00" fill="#14532d">① Alimentación</text>
</g>
<g id="clust2" class="cluster">
<title>cluster_sens</title>
<path fill="#fff7ed" stroke="#ea580c" d="M446,-637.26C446,-637.26 806,-637.26 806,-637.26 812,-637.26 818,-643.26 818,-649.26 818,-649.26 818,-905.01 818,-905.01 818,-911.01 812,-917.01 806,-917.01 806,-917.01 446,-917.01 446,-917.01 440,-917.01 434,-911.01 434,-905.01 434,-905.01 434,-649.26 434,-649.26 434,-643.26 440,-637.26 446,-637.26"/>
<text xml:space="preserve" text-anchor="middle" x="626" y="-900.66" font-family="Helvetica,sans-Serif" font-size="13.00" fill="#7c2d12">② Sensado / Entradas</text>
</g>
<g id="clust3" class="cluster">
<title>cluster_mcu</title>
<path fill="#eff6ff" stroke="#2563eb" d="M336,-195.59C336,-195.59 564,-195.59 564,-195.59 570,-195.59 576,-201.59 576,-207.59 576,-207.59 576,-579.51 576,-579.51 576,-585.51 570,-591.51 564,-591.51 564,-591.51 336,-591.51 336,-591.51 330,-591.51 324,-585.51 324,-579.51 324,-579.51 324,-207.59 324,-207.59 324,-201.59 330,-195.59 336,-195.59"/>
<text xml:space="preserve" text-anchor="middle" x="450" y="-575.16" font-family="Helvetica,sans-Serif" font-size="13.00" fill="#1e3a8a">③ Procesamiento Central</text>
</g>
<g id="clust4" class="cluster">
<title>cluster_act</title>
<path fill="#f5f3ff" stroke="#7c3aed" d="M596,-8C596,-8 1022,-8 1022,-8 1028,-8 1034,-14 1034,-20 1034,-20 1034,-288.71 1034,-288.71 1034,-294.71 1028,-300.71 1022,-300.71 1022,-300.71 596,-300.71 596,-300.71 590,-300.71 584,-294.71 584,-288.71 584,-288.71 584,-20 584,-20 584,-14 590,-8 596,-8"/>
<text xml:space="preserve" text-anchor="middle" x="809" y="-284.36" font-family="Helvetica,sans-Serif" font-size="13.00" fill="#4c1d95">④ Actuación / Salidas</text>
</g>
<g id="clust5" class="cluster">
<title>cluster_com</title>
<path fill="#ecfeff" stroke="#0891b2" d="M1054,-205.79C1054,-205.79 1470,-205.79 1470,-205.79 1476,-205.79 1482,-211.79 1482,-217.79 1482,-217.79 1482,-288.71 1482,-288.71 1482,-294.71 1476,-300.71 1470,-300.71 1470,-300.71 1054,-300.71 1054,-300.71 1048,-300.71 1042,-294.71 1042,-288.71 1042,-288.71 1042,-217.79 1042,-217.79 1042,-211.79 1048,-205.79 1054,-205.79"/>
<text xml:space="preserve" text-anchor="middle" x="1262" y="-284.36" font-family="Helvetica,sans-Serif" font-size="13.00" fill="#164e63">⑤ Comunicación</text>
</g>
<!-- PWR_IN -->
<g id="node1" class="node">
<title>PWR_IN</title>
<polygon fill="#dcfce7" stroke="#16a34a" points="360.29,-1117.61 111.67,-1117.61 47.71,-980.27 296.33,-980.27 360.29,-1117.61"/>
<text xml:space="preserve" text-anchor="middle" x="204" y="-1058.91" font-family="Helvetica,sans-Serif" font-size="12.00">Entrada de Energía</text>
<text xml:space="preserve" text-anchor="middle" x="204" y="-1044.66" font-family="Helvetica,sans-Serif" font-size="12.00">(Red 110/220 V AC</text>
<text xml:space="preserve" text-anchor="middle" x="204" y="-1030.41" font-family="Helvetica,sans-Serif" font-size="12.00">o batería 12 V DC)</text>
</g>
<!-- FUSE -->
<g id="node3" class="node">
<title>FUSE</title>
<polygon fill="#dcfce7" stroke="#166534" points="204,-901.52 16.5,-847.1 204,-792.68 391.5,-847.1 204,-901.52"/>
<text xml:space="preserve" text-anchor="middle" x="204" y="-849.95" font-family="Helvetica,sans-Serif" font-size="12.00">Fusible de Protección</text>
<text xml:space="preserve" text-anchor="middle" x="204" y="-835.7" font-family="Helvetica,sans-Serif" font-size="12.00">(PTC Reseteable 500 mA)</text>
</g>
<!-- PWR_IN&#45;&gt;FUSE -->
<g id="edge1" class="edge">
<title>PWR_IN&#45;&gt;FUSE</title>
<path fill="none" stroke="black" stroke-width="1.6" d="M204,-980C204,-958.72 204,-935.27 204,-914.12"/>
<polygon fill="black" stroke="black" stroke-width="1.6" points="207.5,-914.39 204,-904.39 200.5,-914.39 207.5,-914.39"/>
<text xml:space="preserve" text-anchor="middle" x="236.62" y="-937.77" font-family="Helvetica,sans-Serif" font-size="10.00">Tensión bruta</text>
</g>
<!-- VREG -->
<g id="node2" class="node">
<title>VREG</title>
<path fill="#bbf7d0" stroke="#15803d" d="M348.88,-713.93C348.88,-713.93 213.12,-713.93 213.12,-713.93 207.12,-713.93 201.12,-707.93 201.12,-701.93 201.12,-701.93 201.12,-657.26 201.12,-657.26 201.12,-651.26 207.12,-645.26 213.12,-645.26 213.12,-645.26 348.88,-645.26 348.88,-645.26 354.88,-645.26 360.88,-651.26 360.88,-657.26 360.88,-657.26 360.88,-701.93 360.88,-701.93 360.88,-707.93 354.88,-713.93 348.88,-713.93"/>
<text xml:space="preserve" text-anchor="middle" x="281" y="-689.57" font-family="Helvetica,sans-Serif" font-size="12.00">Regulador de Voltaje</text>
<text xml:space="preserve" text-anchor="middle" x="281" y="-675.32" font-family="Helvetica,sans-Serif" font-size="12.00">LM7805 / AMS1117</text>
<text xml:space="preserve" text-anchor="middle" x="281" y="-661.07" font-family="Helvetica,sans-Serif" font-size="12.00">(5 V / 3.3 V)</text>
</g>
<!-- ADC -->
<g id="node7" class="node">
<title>ADC</title>
<path fill="#bfdbfe" stroke="#3b82f6" d="M503.25,-559.01C503.25,-559.01 396.75,-559.01 396.75,-559.01 390.75,-559.01 384.75,-553.01 384.75,-547.01 384.75,-547.01 384.75,-516.59 384.75,-516.59 384.75,-510.59 390.75,-504.59 396.75,-504.59 396.75,-504.59 503.25,-504.59 503.25,-504.59 509.25,-504.59 515.25,-510.59 515.25,-516.59 515.25,-516.59 515.25,-547.01 515.25,-547.01 515.25,-553.01 509.25,-559.01 503.25,-559.01"/>
<text xml:space="preserve" text-anchor="middle" x="450" y="-534.65" font-family="Helvetica,sans-Serif" font-size="12.00">ADC Interno</text>
<text xml:space="preserve" text-anchor="middle" x="450" y="-520.4" font-family="Helvetica,sans-Serif" font-size="12.00">(12 bit, 1 MSPS)</text>
</g>
<!-- VREG&#45;&gt;ADC -->
<g id="edge10" class="edge">
<title>VREG&#45;&gt;ADC</title>
<path fill="none" stroke="#16a34a" stroke-width="2" d="M320.2,-644.78C347.03,-621.63 382.52,-591.01 409.61,-567.64"/>
<polygon fill="#16a34a" stroke="#16a34a" stroke-width="2" points="411.6,-570.55 416.88,-561.37 407.02,-565.25 411.6,-570.55"/>
<text xml:space="preserve" text-anchor="middle" x="394.57" y="-602.76" font-family="Helvetica,sans-Serif" font-size="10.00">VCC 3.3 V</text>
</g>
<!-- FUSE&#45;&gt;VREG -->
<g id="edge2" class="edge">
<title>FUSE&#45;&gt;VREG</title>
<path fill="none" stroke="black" stroke-width="1.6" d="M226.07,-798.67C236.79,-775.63 249.6,-748.08 260.15,-725.4"/>
<polygon fill="black" stroke="black" stroke-width="1.6" points="263.22,-727.1 264.27,-716.56 256.88,-724.15 263.22,-727.1"/>
<text xml:space="preserve" text-anchor="middle" x="296.65" y="-750.18" font-family="Helvetica,sans-Serif" font-size="10.00">Corriente protegida</text>
</g>
<!-- SEN1 -->
<g id="node4" class="node">
<title>SEN1</title>
<path fill="#fed7aa" stroke="#c2410c" d="M592,-877.71C592,-881.46 558.38,-884.51 517,-884.51 475.62,-884.51 442,-881.46 442,-877.71 442,-877.71 442,-816.49 442,-816.49 442,-812.73 475.62,-809.68 517,-809.68 558.38,-809.68 592,-812.73 592,-816.49 592,-816.49 592,-877.71 592,-877.71"/>
<path fill="none" stroke="#c2410c" d="M592,-877.71C592,-873.96 558.38,-870.91 517,-870.91 475.62,-870.91 442,-873.96 442,-877.71"/>
<text xml:space="preserve" text-anchor="middle" x="517" y="-849.95" font-family="Helvetica,sans-Serif" font-size="12.00">Sensor Principal</text>
<text xml:space="preserve" text-anchor="middle" x="517" y="-835.7" font-family="Helvetica,sans-Serif" font-size="12.00">(digital / analógico)</text>
</g>
<!-- FILT -->
<g id="node6" class="node">
<title>FILT</title>
<path fill="#ffedd5" stroke="#ea580c" d="M643.5,-713.93C643.5,-713.93 454.5,-713.93 454.5,-713.93 448.5,-713.93 442.5,-707.93 442.5,-701.93 442.5,-701.93 442.5,-657.26 442.5,-657.26 442.5,-651.26 448.5,-645.26 454.5,-645.26 454.5,-645.26 643.5,-645.26 643.5,-645.26 649.5,-645.26 655.5,-651.26 655.5,-657.26 655.5,-657.26 655.5,-701.93 655.5,-701.93 655.5,-707.93 649.5,-713.93 643.5,-713.93"/>
<text xml:space="preserve" text-anchor="middle" x="549" y="-689.57" font-family="Helvetica,sans-Serif" font-size="12.00">Filtro RC Paso&#45;Bajo</text>
<text xml:space="preserve" text-anchor="middle" x="549" y="-675.32" font-family="Helvetica,sans-Serif" font-size="12.00">+ Amplificador Operacional</text>
<text xml:space="preserve" text-anchor="middle" x="549" y="-661.07" font-family="Helvetica,sans-Serif" font-size="12.00">(acondicionamiento de señal)</text>
</g>
<!-- SEN1&#45;&gt;FILT -->
<g id="edge3" class="edge">
<title>SEN1&#45;&gt;FILT</title>
<path fill="none" stroke="black" stroke-width="1.6" d="M524.1,-809.37C528.84,-784.87 535.1,-752.48 540.16,-726.31"/>
<polygon fill="black" stroke="black" stroke-width="1.6" points="543.54,-727.26 542,-716.78 536.67,-725.93 543.54,-727.26"/>
<text xml:space="preserve" text-anchor="middle" x="569.24" y="-750.18" font-family="Helvetica,sans-Serif" font-size="10.00">Señal cruda A</text>
</g>
<!-- SEN2 -->
<g id="node5" class="node">
<title>SEN2</title>
<path fill="#fdba74" stroke="#c2410c" d="M809.62,-877.71C809.62,-881.46 772.14,-884.51 726,-884.51 679.86,-884.51 642.38,-881.46 642.38,-877.71 642.38,-877.71 642.38,-816.49 642.38,-816.49 642.38,-812.73 679.86,-809.68 726,-809.68 772.14,-809.68 809.62,-812.73 809.62,-816.49 809.62,-816.49 809.62,-877.71 809.62,-877.71"/>
<path fill="none" stroke="#c2410c" d="M809.62,-877.71C809.62,-873.96 772.14,-870.91 726,-870.91 679.86,-870.91 642.38,-873.96 642.38,-877.71"/>
<text xml:space="preserve" text-anchor="middle" x="726" y="-849.95" font-family="Helvetica,sans-Serif" font-size="12.00">Sensor Secundario</text>
<text xml:space="preserve" text-anchor="middle" x="726" y="-835.7" font-family="Helvetica,sans-Serif" font-size="12.00">(respaldo / validación)</text>
</g>
<!-- SEN2&#45;&gt;FILT -->
<g id="edge4" class="edge">
<title>SEN2&#45;&gt;FILT</title>
<path fill="none" stroke="black" stroke-width="1.6" d="M686.72,-809.37C659.33,-783.76 622.73,-749.53 594.14,-722.8"/>
<polygon fill="black" stroke="black" stroke-width="1.6" points="596.62,-720.33 586.93,-716.06 591.84,-725.44 596.62,-720.33"/>
<text xml:space="preserve" text-anchor="middle" x="665.57" y="-750.18" font-family="Helvetica,sans-Serif" font-size="10.00">Señal cruda B</text>
</g>
<!-- FILT&#45;&gt;ADC -->
<g id="edge11" class="edge">
<title>FILT&#45;&gt;ADC</title>
<path fill="none" stroke="black" stroke-width="1.6" d="M526.04,-644.78C510.68,-622.16 490.49,-592.43 474.77,-569.28"/>
<polygon fill="black" stroke="black" stroke-width="1.6" points="477.77,-567.47 469.26,-561.16 471.98,-571.4 477.77,-567.47"/>
<text xml:space="preserve" text-anchor="middle" x="552.72" y="-602.76" font-family="Helvetica,sans-Serif" font-size="10.00">Señal acondicionada</text>
</g>
<!-- MCU -->
<g id="node8" class="node">
<title>MCU</title>
<path fill="#dbeafe" stroke="#2563eb" stroke-width="2.5" d="M555.75,-425.84C555.75,-425.84 344.25,-425.84 344.25,-425.84 338.25,-425.84 332.25,-419.84 332.25,-413.84 332.25,-413.84 332.25,-369.17 332.25,-369.17 332.25,-363.17 338.25,-357.17 344.25,-357.17 344.25,-357.17 555.75,-357.17 555.75,-357.17 561.75,-357.17 567.75,-363.17 567.75,-369.17 567.75,-369.17 567.75,-413.84 567.75,-413.84 567.75,-419.84 561.75,-425.84 555.75,-425.84"/>
<text xml:space="preserve" text-anchor="middle" x="450" y="-401.48" font-family="Helvetica,sans-Serif" font-size="12.00">Microcontrolador ESP32</text>
<text xml:space="preserve" text-anchor="middle" x="450" y="-387.23" font-family="Helvetica,sans-Serif" font-size="12.00">(240 MHz dual&#45;core, 520 KB RAM,</text>
<text xml:space="preserve" text-anchor="middle" x="450" y="-372.98" font-family="Helvetica,sans-Serif" font-size="12.00">Wi&#45;Fi + Bluetooth integrado)</text>
</g>
<!-- ADC&#45;&gt;MCU -->
<g id="edge5" class="edge">
<title>ADC&#45;&gt;MCU</title>
<path fill="none" stroke="black" stroke-width="1.6" d="M450,-504.13C450,-485.76 450,-460.86 450,-439.23"/>
<polygon fill="black" stroke="black" stroke-width="1.6" points="453.5,-439.38 450,-429.38 446.5,-439.38 453.5,-439.38"/>
<text xml:space="preserve" text-anchor="middle" x="478.5" y="-462.09" font-family="Helvetica,sans-Serif" font-size="10.00">Dato digital</text>
</g>
<!-- MEM -->
<g id="node9" class="node">
<title>MEM</title>
<path fill="#e0e7ff" stroke="#4338ca" d="M525,-271.62C525,-275.37 491.38,-278.42 450,-278.42 408.62,-278.42 375,-275.37 375,-271.62 375,-271.62 375,-210.39 375,-210.39 375,-206.64 408.62,-203.59 450,-203.59 491.38,-203.59 525,-206.64 525,-210.39 525,-210.39 525,-271.62 525,-271.62"/>
<path fill="none" stroke="#4338ca" d="M525,-271.62C525,-267.86 491.38,-264.81 450,-264.81 408.62,-264.81 375,-267.86 375,-271.62"/>
<text xml:space="preserve" text-anchor="middle" x="450" y="-243.85" font-family="Helvetica,sans-Serif" font-size="12.00">Memoria Flash Ext.</text>
<text xml:space="preserve" text-anchor="middle" x="450" y="-229.6" font-family="Helvetica,sans-Serif" font-size="12.00">(SPI NOR 4 MB)</text>
</g>
<!-- MCU&#45;&gt;MEM -->
<g id="edge6" class="edge">
<title>MCU&#45;&gt;MEM</title>
<path fill="none" stroke="black" stroke-width="1.6" d="M450,-343.85C450,-326.98 450,-307.9 450,-290.85"/>
<polygon fill="black" stroke="black" stroke-width="1.6" points="446.5,-343.64 450,-353.64 453.5,-343.64 446.5,-343.64"/>
<polygon fill="black" stroke="black" stroke-width="1.6" points="453.5,-291.28 450,-281.28 446.5,-291.28 453.5,-291.28"/>
<text xml:space="preserve" text-anchor="middle" x="484.88" y="-314.67" font-family="Helvetica,sans-Serif" font-size="10.00">Log / firmware</text>
</g>
<!-- DRV -->
<g id="node10" class="node">
<title>DRV</title>
<path fill="#ede9fe" stroke="#7c3aed" d="M873,-268.21C873,-268.21 651,-268.21 651,-268.21 645,-268.21 639,-262.21 639,-256.21 639,-256.21 639,-225.79 639,-225.79 639,-219.79 645,-213.79 651,-213.79 651,-213.79 873,-213.79 873,-213.79 879,-213.79 885,-219.79 885,-225.79 885,-225.79 885,-256.21 885,-256.21 885,-262.21 879,-268.21 873,-268.21"/>
<text xml:space="preserve" text-anchor="middle" x="762" y="-243.85" font-family="Helvetica,sans-Serif" font-size="12.00">Driver de Potencia</text>
<text xml:space="preserve" text-anchor="middle" x="762" y="-229.6" font-family="Helvetica,sans-Serif" font-size="12.00">(Optoacoplador + MOSFET IRF540)</text>
</g>
<!-- MCU&#45;&gt;DRV -->
<g id="edge12" class="edge">
<title>MCU&#45;&gt;DRV</title>
<path fill="none" stroke="black" stroke-width="1.6" d="M522.36,-356.06C574.41,-331.29 644.1,-298.12 694.9,-273.94"/>
<polygon fill="black" stroke="black" stroke-width="1.6" points="696.37,-277.12 703.9,-269.66 693.37,-270.79 696.37,-277.12"/>
<text xml:space="preserve" text-anchor="middle" x="641.23" y="-314.67" font-family="Helvetica,sans-Serif" font-size="10.00">GPIO PWM</text>
</g>
<!-- UART -->
<g id="node12" class="node">
<title>UART</title>
<path fill="#cffafe" stroke="#0e7490" d="M1251.88,-268.21C1251.88,-268.21 1062.12,-268.21 1062.12,-268.21 1056.12,-268.21 1050.12,-262.21 1050.12,-256.21 1050.12,-256.21 1050.12,-225.79 1050.12,-225.79 1050.12,-219.79 1056.12,-213.79 1062.12,-213.79 1062.12,-213.79 1251.88,-213.79 1251.88,-213.79 1257.88,-213.79 1263.88,-219.79 1263.88,-225.79 1263.88,-225.79 1263.88,-256.21 1263.88,-256.21 1263.88,-262.21 1257.88,-268.21 1251.88,-268.21"/>
<text xml:space="preserve" text-anchor="middle" x="1157" y="-243.85" font-family="Helvetica,sans-Serif" font-size="12.00">UART / USB&#45;Serial</text>
<text xml:space="preserve" text-anchor="middle" x="1157" y="-229.6" font-family="Helvetica,sans-Serif" font-size="12.00">(depuración + programación)</text>
</g>
<!-- MCU&#45;&gt;UART -->
<g id="edge8" class="edge">
<title>MCU&#45;&gt;UART</title>
<path fill="none" stroke="black" stroke-width="1.6" d="M568.92,-384.37C691.2,-375.36 885.85,-353.43 1046,-300.71 1065.72,-294.22 1086.13,-284.44 1103.99,-274.7"/>
<polygon fill="black" stroke="black" stroke-width="1.6" points="1105.62,-277.8 1112.63,-269.86 1102.2,-271.69 1105.62,-277.8"/>
<text xml:space="preserve" text-anchor="middle" x="1030.48" y="-314.67" font-family="Helvetica,sans-Serif" font-size="10.00">TX/RX debug</text>
</g>
<!-- WIFI -->
<g id="node13" class="node">
<title>WIFI</title>
<path fill="#a5f3fc" stroke="#0284c7" d="M1461.88,-268.21C1461.88,-268.21 1326.12,-268.21 1326.12,-268.21 1320.12,-268.21 1314.12,-262.21 1314.12,-256.21 1314.12,-256.21 1314.12,-225.79 1314.12,-225.79 1314.12,-219.79 1320.12,-213.79 1326.12,-213.79 1326.12,-213.79 1461.88,-213.79 1461.88,-213.79 1467.88,-213.79 1473.88,-219.79 1473.88,-225.79 1473.88,-225.79 1473.88,-256.21 1473.88,-256.21 1473.88,-262.21 1467.88,-268.21 1461.88,-268.21"/>
<text xml:space="preserve" text-anchor="middle" x="1394" y="-243.85" font-family="Helvetica,sans-Serif" font-size="12.00">Wi&#45;Fi / MQTT / HTTP</text>
<text xml:space="preserve" text-anchor="middle" x="1394" y="-229.6" font-family="Helvetica,sans-Serif" font-size="12.00">(telemetría en nube)</text>
</g>
<!-- MCU&#45;&gt;WIFI -->
<g id="edge9" class="edge">
<title>MCU&#45;&gt;WIFI</title>
<path fill="none" stroke="black" stroke-width="1.6" d="M568.77,-383.71C767.36,-371.36 1157.92,-342.59 1289,-300.71 1308.28,-294.56 1328,-284.65 1345.08,-274.71"/>
<polygon fill="black" stroke="black" stroke-width="1.6" points="1346.49,-277.95 1353.26,-269.8 1342.88,-271.95 1346.49,-277.95"/>
<text xml:space="preserve" text-anchor="middle" x="1267.09" y="-314.67" font-family="Helvetica,sans-Serif" font-size="10.00">TCP/IP stack</text>
</g>
<!-- ACT -->
<g id="node11" class="node">
<title>ACT</title>
<polygon fill="#ddd6fe" stroke="#6d28d9" points="1025.94,-124.84 680.84,-124.84 592.06,-16 937.16,-16 1025.94,-124.84"/>
<text xml:space="preserve" text-anchor="middle" x="809" y="-73.27" font-family="Helvetica,sans-Serif" font-size="12.00">Actuador Final</text>
<text xml:space="preserve" text-anchor="middle" x="809" y="-59.02" font-family="Helvetica,sans-Serif" font-size="12.00">(motor / relé / LED / pantalla)</text>
</g>
<!-- DRV&#45;&gt;ACT -->
<g id="edge7" class="edge">
<title>DRV&#45;&gt;ACT</title>
<path fill="none" stroke="black" stroke-width="1.6" d="M769.34,-213.66C775.08,-193.09 783.3,-163.6 790.77,-136.79"/>
<polygon fill="black" stroke="black" stroke-width="1.6" points="794.07,-138.01 793.38,-127.44 787.32,-136.13 794.07,-138.01"/>
<text xml:space="preserve" text-anchor="middle" x="827.59" y="-161.09" font-family="Helvetica,sans-Serif" font-size="10.00">Señal de potencia</text>
</g>
</g>
</svg>
