<?xml version="1.0" encoding="UTF-8" standalone="no"?>
<!DOCTYPE svg PUBLIC "-//W3C//DTD SVG 1.1//EN"
 "http://www.w3.org/Graphics/SVG/1.1/DTD/svg11.dtd">
<!-- Generated by graphviz version 14.1.3 (20260303.0454)
 -->
<!-- Title: comunicacion_hw_sw Pages: 1 -->
<svg width="1208pt" height="229pt"
 viewBox="0.00 0.00 1208.00 229.00" xmlns="http://www.w3.org/2000/svg" xmlns:xlink="http://www.w3.org/1999/xlink">
<g id="graph0" class="graph" transform="scale(1 1) rotate(0) translate(43.2 186.2)">
<title>comunicacion_hw_sw</title>
<polygon fill="white" stroke="none" points="-43.2,43.2 -43.2,-186.2 1164.95,-186.2 1164.95,43.2 -43.2,43.2"/>
<text xml:space="preserve" text-anchor="middle" x="560.88" y="-126.65" font-family="Helvetica,sans-Serif" font-size="13.00">Diagrama de Comunicación Hardware&#45;Software</text>
<text xml:space="preserve" text-anchor="middle" x="560.88" y="-110.15" font-family="Helvetica,sans-Serif" font-size="13.00">Interacción entre sensores, microcontrolador y programa</text>
<!-- SENS -->
<g id="node1" class="node">
<title>SENS</title>
<path fill="#ffedd5" stroke="#c2410c" d="M158.5,-70C158.5,-70 12,-70 12,-70 6,-70 0,-64 0,-58 0,-58 0,-46 0,-46 0,-40 6,-34 12,-34 12,-34 158.5,-34 158.5,-34 164.5,-34 170.5,-40 170.5,-46 170.5,-46 170.5,-58 170.5,-58 170.5,-64 164.5,-70 158.5,-70"/>
<text xml:space="preserve" text-anchor="middle" x="85.25" y="-55.05" font-family="Helvetica,sans-Serif" font-size="11.00">Sensor físico</text>
<text xml:space="preserve" text-anchor="middle" x="85.25" y="-41.55" font-family="Helvetica,sans-Serif" font-size="11.00">(magnitud analógica/digital)</text>
</g>
<!-- ADC -->
<g id="node2" class="node">
<title>ADC</title>
<path fill="#dbeafe" stroke="#2563eb" d="M389,-70C389,-70 283,-70 283,-70 277,-70 271,-64 271,-58 271,-58 271,-46 271,-46 271,-40 277,-34 283,-34 283,-34 389,-34 389,-34 395,-34 401,-40 401,-46 401,-46 401,-58 401,-58 401,-64 395,-70 389,-70"/>
<text xml:space="preserve" text-anchor="middle" x="336" y="-55.05" font-family="Helvetica,sans-Serif" font-size="11.00">ADC / Interfaz digital</text>
<text xml:space="preserve" text-anchor="middle" x="336" y="-41.55" font-family="Helvetica,sans-Serif" font-size="11.00">(hardware del MCU)</text>
</g>
<!-- SENS&#45;&gt;ADC -->
<g id="edge1" class="edge">
<title>SENS&#45;&gt;ADC</title>
<path fill="none" stroke="black" d="M170.81,-52C199.53,-52 231.42,-52 259.39,-52"/>
<polygon fill="black" stroke="black" points="259.2,-55.5 269.2,-52 259.2,-48.5 259.2,-55.5"/>
<text xml:space="preserve" text-anchor="middle" x="220.75" y="-54.7" font-family="Helvetica,sans-Serif" font-size="9.00">señal eléctrica</text>
</g>
<!-- DRV -->
<g id="node3" class="node">
<title>DRV</title>
<path fill="#f5f3ff" stroke="#7c3aed" d="M606.75,-70C606.75,-70 548,-70 548,-70 542,-70 536,-64 536,-58 536,-58 536,-46 536,-46 536,-40 542,-34 548,-34 548,-34 606.75,-34 606.75,-34 612.75,-34 618.75,-40 618.75,-46 618.75,-46 618.75,-58 618.75,-58 618.75,-64 612.75,-70 606.75,-70"/>
<text xml:space="preserve" text-anchor="middle" x="577.38" y="-55.05" font-family="Helvetica,sans-Serif" font-size="11.00">Driver / HAL</text>
<text xml:space="preserve" text-anchor="middle" x="577.38" y="-41.55" font-family="Helvetica,sans-Serif" font-size="11.00">(software)</text>
</g>
<!-- ADC&#45;&gt;DRV -->
<g id="edge2" class="edge">
<title>ADC&#45;&gt;DRV</title>
<path fill="none" stroke="black" d="M401.46,-52C439.95,-52 488.19,-52 524.26,-52"/>
<polygon fill="black" stroke="black" points="524,-55.5 534,-52 524,-48.5 524,-55.5"/>
<text xml:space="preserve" text-anchor="middle" x="468.5" y="-54.7" font-family="Helvetica,sans-Serif" font-size="9.00">registro / interrupción</text>
</g>
<!-- APP -->
<g id="node4" class="node">
<title>APP</title>
<path fill="#f5f3ff" stroke="#7c3aed" d="M878.5,-97C878.5,-97 770.25,-97 770.25,-97 764.25,-97 758.25,-91 758.25,-85 758.25,-85 758.25,-73 758.25,-73 758.25,-67 764.25,-61 770.25,-61 770.25,-61 878.5,-61 878.5,-61 884.5,-61 890.5,-67 890.5,-73 890.5,-73 890.5,-85 890.5,-85 890.5,-91 884.5,-97 878.5,-97"/>
<text xml:space="preserve" text-anchor="middle" x="824.38" y="-82.05" font-family="Helvetica,sans-Serif" font-size="11.00">Lógica de aplicación</text>
<text xml:space="preserve" text-anchor="middle" x="824.38" y="-68.55" font-family="Helvetica,sans-Serif" font-size="11.00">(software de control)</text>
</g>
<!-- DRV&#45;&gt;APP -->
<g id="edge3" class="edge">
<title>DRV&#45;&gt;APP</title>
<path fill="none" stroke="black" d="M619.09,-61.03C624.99,-62.15 631.01,-63.18 636.75,-64 672.74,-69.13 712.91,-72.64 746.74,-74.96"/>
<polygon fill="black" stroke="black" points="746.23,-78.44 756.44,-75.61 746.69,-71.45 746.23,-78.44"/>
<text xml:space="preserve" text-anchor="middle" x="688.5" y="-77.05" font-family="Helvetica,sans-Serif" font-size="9.00">valor procesado (API)</text>
</g>
<!-- OUT -->
<g id="node5" class="node">
<title>OUT</title>
<path fill="#dbeafe" stroke="#2563eb" d="M875.5,-36C875.5,-36 773.25,-36 773.25,-36 767.25,-36 761.25,-30 761.25,-24 761.25,-24 761.25,-12 761.25,-12 761.25,-6 767.25,0 773.25,0 773.25,0 875.5,0 875.5,0 881.5,0 887.5,-6 887.5,-12 887.5,-12 887.5,-24 887.5,-24 887.5,-30 881.5,-36 875.5,-36"/>
<text xml:space="preserve" text-anchor="middle" x="824.38" y="-21.05" font-family="Helvetica,sans-Serif" font-size="11.00">Salida digital / PWM</text>
<text xml:space="preserve" text-anchor="middle" x="824.38" y="-7.55" font-family="Helvetica,sans-Serif" font-size="11.00">(hardware del MCU)</text>
</g>
<!-- DRV&#45;&gt;OUT -->
<g id="edge5" class="edge">
<title>DRV&#45;&gt;OUT</title>
<path fill="none" stroke="black" d="M619.14,-36.36C624.98,-34.56 630.97,-32.94 636.75,-31.75 673.48,-24.16 715.04,-20.62 749.6,-19.02"/>
<polygon fill="black" stroke="black" points="749.67,-22.52 759.52,-18.61 749.39,-15.53 749.67,-22.52"/>
<text xml:space="preserve" text-anchor="middle" x="688.5" y="-34.45" font-family="Helvetica,sans-Serif" font-size="9.00">escritura de registro</text>
</g>
<!-- APP&#45;&gt;DRV -->
<g id="edge4" class="edge">
<title>APP&#45;&gt;DRV</title>
<path fill="none" stroke="black" d="M777.9,-60.56C765.86,-56.51 752.73,-52.81 740.25,-50.75 694.87,-43.25 682.75,-50.26 636.75,-50.75 634.71,-50.77 632.63,-50.8 630.53,-50.83"/>
<polygon fill="black" stroke="black" points="630.65,-47.32 620.71,-50.99 630.77,-54.32 630.65,-47.32"/>
<text xml:space="preserve" text-anchor="middle" x="688.5" y="-53.45" font-family="Helvetica,sans-Serif" font-size="9.00">comando de actuación</text>
</g>
<!-- UI -->
<g id="node7" class="node">
<title>UI</title>
<path fill="#ecfeff" stroke="#0891b2" d="M1109.75,-102C1109.75,-102 1036,-102 1036,-102 1030,-102 1024,-96 1024,-90 1024,-90 1024,-78 1024,-78 1024,-72 1030,-66 1036,-66 1036,-66 1109.75,-66 1109.75,-66 1115.75,-66 1121.75,-72 1121.75,-78 1121.75,-78 1121.75,-90 1121.75,-90 1121.75,-96 1115.75,-102 1109.75,-102"/>
<text xml:space="preserve" text-anchor="middle" x="1072.88" y="-87.05" font-family="Helvetica,sans-Serif" font-size="11.00">Usuario / Nube</text>
<text xml:space="preserve" text-anchor="middle" x="1072.88" y="-73.55" font-family="Helvetica,sans-Serif" font-size="11.00">(monitoreo)</text>
</g>
<!-- APP&#45;&gt;UI -->
<g id="edge7" class="edge">
<title>APP&#45;&gt;UI</title>
<path fill="none" stroke="black" d="M890.79,-80.33C928.66,-81.09 975.95,-82.05 1012.71,-82.8"/>
<polygon fill="black" stroke="black" points="1012.18,-86.29 1022.25,-82.99 1012.32,-79.29 1012.18,-86.29"/>
<text xml:space="preserve" text-anchor="middle" x="957.25" y="-85.36" font-family="Helvetica,sans-Serif" font-size="9.00">telemetría / logs</text>
</g>
<!-- ACT -->
<g id="node6" class="node">
<title>ACT</title>
<path fill="#ede9fe" stroke="#6d28d9" d="M1109.75,-36C1109.75,-36 1036,-36 1036,-36 1030,-36 1024,-30 1024,-24 1024,-24 1024,-12 1024,-12 1024,-6 1030,0 1036,0 1036,0 1109.75,0 1109.75,0 1115.75,0 1121.75,-6 1121.75,-12 1121.75,-12 1121.75,-24 1121.75,-24 1121.75,-30 1115.75,-36 1109.75,-36"/>
<text xml:space="preserve" text-anchor="middle" x="1072.88" y="-14.3" font-family="Helvetica,sans-Serif" font-size="11.00">Actuador físico</text>
</g>
<!-- OUT&#45;&gt;ACT -->
<g id="edge6" class="edge">
<title>OUT&#45;&gt;ACT</title>
<path fill="none" stroke="black" d="M887.9,-18C926.16,-18 974.83,-18 1012.5,-18"/>
<polygon fill="black" stroke="black" points="1012.3,-21.5 1022.3,-18 1012.3,-14.5 1012.3,-21.5"/>
<text xml:space="preserve" text-anchor="middle" x="957.25" y="-20.7" font-family="Helvetica,sans-Serif" font-size="9.00">señal de potencia</text>
</g>
<!-- UI&#45;&gt;APP -->
<g id="edge8" class="edge">
<title>UI&#45;&gt;APP</title>
<path fill="none" stroke="black" stroke-dasharray="5,2" d="M1023.62,-69.04C1017.73,-67.69 1011.76,-66.53 1006,-65.75 972,-61.13 934.16,-62.85 901.94,-66.36"/>
<polygon fill="black" stroke="black" points="901.82,-62.85 892.29,-67.49 902.63,-69.8 901.82,-62.85"/>
<text xml:space="preserve" text-anchor="middle" x="957.25" y="-68.45" font-family="Helvetica,sans-Serif" font-size="9.00">configuración remota</text>
</g>
</g>
</svg>
