<?xml version="1.0" encoding="UTF-8" standalone="no"?>
<!DOCTYPE svg PUBLIC "-//W3C//DTD SVG 1.1//EN"
 "http://www.w3.org/Graphics/SVG/1.1/DTD/svg11.dtd">
<!-- Generated by graphviz version 14.1.3 (20260303.0454)
 -->
<!-- Title: casos_uso Pages: 1 -->
<svg width="1048pt" height="626pt"
 viewBox="0.00 0.00 1048.00 626.00" xmlns="http://www.w3.org/2000/svg" xmlns:xlink="http://www.w3.org/1999/xlink">
<g id="graph0" class="graph" transform="scale(1 1) rotate(0) translate(57.6 568.09)">
<title>casos_uso</title>
<polygon fill="white" stroke="none" points="-57.6,57.6 -57.6,-568.09 990.36,-568.09 990.36,57.6 -57.6,57.6"/>
<text xml:space="preserve" text-anchor="middle" x="466.38" y="-494.14" font-family="Helvetica,sans-Serif" font-size="13.00">Diagrama UML – Casos de Uso</text>
<text xml:space="preserve" text-anchor="middle" x="466.38" y="-477.64" font-family="Helvetica,sans-Serif" font-size="13.00">Desarrollo de Sistema de Control de Iluminación por Comando de Voz</text>
<g id="clust1" class="cluster">
<title>cluster_sistema</title>
<path fill="#eff6ff" stroke="#2563eb" d="M20,-8C20,-8 696,-8 696,-8 702,-8 708,-14 708,-20 708,-20 708,-381.49 708,-381.49 708,-387.49 702,-393.49 696,-393.49 696,-393.49 20,-393.49 20,-393.49 14,-393.49 8,-387.49 8,-381.49 8,-381.49 8,-20 8,-20 8,-14 14,-8 20,-8"/>
<text xml:space="preserve" text-anchor="middle" x="358" y="-376.19" font-family="Helvetica,sans-Serif" font-size="14.00" fill="#1e3a8a">Sistema de Control (Desarrollo de Sistema de Control de Iluminación por Comando de Voz)</text>
</g>
<!-- UC1 -->
<g id="node1" class="node">
<title>UC1</title>
<ellipse fill="#dbeafe" stroke="#2563eb" cx="87" cy="-335.49" rx="71.24" ry="24.75"/>
<text xml:space="preserve" text-anchor="middle" x="87" y="-338.54" font-family="Helvetica,sans-Serif" font-size="11.00">&lt;&lt;use case&gt;&gt;</text>
<text xml:space="preserve" text-anchor="middle" x="87" y="-325.04" font-family="Helvetica,sans-Serif" font-size="11.00">Iniciar sistema</text>
</g>
<!-- UC2 -->
<g id="node2" class="node">
<title>UC2</title>
<ellipse fill="#dbeafe" stroke="#2563eb" cx="399" cy="-237.24" rx="71.24" ry="24.75"/>
<text xml:space="preserve" text-anchor="middle" x="399" y="-240.29" font-family="Helvetica,sans-Serif" font-size="11.00">&lt;&lt;use case&gt;&gt;</text>
<text xml:space="preserve" text-anchor="middle" x="399" y="-226.79" font-family="Helvetica,sans-Serif" font-size="11.00">Leer sensor</text>
</g>
<!-- UC1&#45;&gt;UC2 -->
<g id="edge10" class="edge">
<title>UC1&#45;&gt;UC2</title>
<path fill="none" stroke="#6b7280" stroke-dasharray="5,2" d="M139.22,-318.38C193.33,-301.69 277.92,-275.6 335.77,-257.75"/>
<polygon fill="#6b7280" stroke="#6b7280" points="336.64,-261.14 345.16,-254.85 334.57,-254.46 336.64,-261.14"/>
<text xml:space="preserve" text-anchor="middle" x="295.81" y="-283.24" font-family="Helvetica,sans-Serif" font-size="10.00">&lt;&lt;include&gt;&gt;</text>
</g>
<!-- UC3 -->
<g id="node3" class="node">
<title>UC3</title>
<ellipse fill="#dbeafe" stroke="#2563eb" cx="399" cy="-139" rx="84.5" ry="24.75"/>
<text xml:space="preserve" text-anchor="middle" x="399" y="-142.05" font-family="Helvetica,sans-Serif" font-size="11.00">&lt;&lt;use case&gt;&gt;</text>
<text xml:space="preserve" text-anchor="middle" x="399" y="-128.55" font-family="Helvetica,sans-Serif" font-size="11.00">Controlar actuador</text>
</g>
<!-- UC2&#45;&gt;UC3 -->
<g id="edge11" class="edge">
<title>UC2&#45;&gt;UC3</title>
<path fill="none" stroke="#6b7280" stroke-dasharray="5,2" d="M399,-212.45C399,-201.32 399,-187.82 399,-175.51"/>
<polygon fill="#6b7280" stroke="#6b7280" points="402.5,-175.7 399,-165.7 395.5,-175.7 402.5,-175.7"/>
<text xml:space="preserve" text-anchor="middle" x="433.12" y="-184.99" font-family="Helvetica,sans-Serif" font-size="10.00">&lt;&lt;include&gt;&gt;</text>
</g>
<!-- UC4 -->
<g id="node4" class="node">
<title>UC4</title>
<ellipse fill="#dbeafe" stroke="#2563eb" cx="601" cy="-40.75" rx="76.54" ry="24.75"/>
<text xml:space="preserve" text-anchor="middle" x="601" y="-43.8" font-family="Helvetica,sans-Serif" font-size="11.00">&lt;&lt;use case&gt;&gt;</text>
<text xml:space="preserve" text-anchor="middle" x="601" y="-30.3" font-family="Helvetica,sans-Serif" font-size="11.00">Registrar evento</text>
</g>
<!-- UC3&#45;&gt;UC4 -->
<g id="edge12" class="edge">
<title>UC3&#45;&gt;UC4</title>
<path fill="none" stroke="#6b7280" stroke-dasharray="5,2" d="M442.33,-117.35C473.4,-102.55 515.42,-82.53 548.41,-66.81"/>
<polygon fill="#6b7280" stroke="#6b7280" points="549.89,-69.98 557.41,-62.52 546.88,-63.66 549.89,-69.98"/>
<text xml:space="preserve" text-anchor="middle" x="546.22" y="-86.75" font-family="Helvetica,sans-Serif" font-size="10.00">&lt;&lt;include&gt;&gt;</text>
</g>
<!-- UC5 -->
<g id="node5" class="node">
<title>UC5</title>
<ellipse fill="#dbeafe" stroke="#2563eb" cx="254" cy="-335.49" rx="77.6" ry="24.75"/>
<text xml:space="preserve" text-anchor="middle" x="254" y="-338.54" font-family="Helvetica,sans-Serif" font-size="11.00">&lt;&lt;use case&gt;&gt;</text>
<text xml:space="preserve" text-anchor="middle" x="254" y="-325.04" font-family="Helvetica,sans-Serif" font-size="11.00">Monitorear serial</text>
</g>
<!-- UC6 -->
<g id="node6" class="node">
<title>UC6</title>
<ellipse fill="#fecaca" stroke="#dc2626" cx="426" cy="-335.49" rx="76.01" ry="24.75"/>
<text xml:space="preserve" text-anchor="middle" x="426" y="-338.54" font-family="Helvetica,sans-Serif" font-size="11.00">&lt;&lt;use case&gt;&gt;</text>
<text xml:space="preserve" text-anchor="middle" x="426" y="-325.04" font-family="Helvetica,sans-Serif" font-size="11.00">Detener sistema</text>
</g>
<!-- UC7 -->
<g id="node7" class="node">
<title>UC7</title>
<ellipse fill="#fef9c3" stroke="#ca8a04" cx="610" cy="-335.49" rx="90.33" ry="24.75"/>
<text xml:space="preserve" text-anchor="middle" x="610" y="-338.54" font-family="Helvetica,sans-Serif" font-size="11.00">&lt;&lt;use case&gt;&gt;</text>
<text xml:space="preserve" text-anchor="middle" x="610" y="-325.04" font-family="Helvetica,sans-Serif" font-size="11.00">Configurar umbrales</text>
</g>
<!-- UC8 -->
<g id="node8" class="node">
<title>UC8</title>
<ellipse fill="#dcfce7" stroke="#16a34a" cx="601" cy="-139" rx="99.35" ry="24.75"/>
<text xml:space="preserve" text-anchor="middle" x="601" y="-142.05" font-family="Helvetica,sans-Serif" font-size="11.00">&lt;&lt;use case&gt;&gt;</text>
<text xml:space="preserve" text-anchor="middle" x="601" y="-128.55" font-family="Helvetica,sans-Serif" font-size="11.00">Enviar telemetría Wi&#45;Fi</text>
</g>
<!-- UC8&#45;&gt;UC4 -->
<g id="edge13" class="edge">
<title>UC8&#45;&gt;UC4</title>
<path fill="none" stroke="#9333ea" stroke-dasharray="5,2" d="M601,-114.2C601,-103.07 601,-89.57 601,-77.26"/>
<polygon fill="#9333ea" stroke="#9333ea" points="604.5,-77.45 601,-67.45 597.5,-77.45 604.5,-77.45"/>
<text xml:space="preserve" text-anchor="middle" x="634.38" y="-86.75" font-family="Helvetica,sans-Serif" font-size="10.00">&lt;&lt;extend&gt;&gt;</text>
</g>
<!-- ACT_U -->
<g id="node9" class="node">
<title>ACT_U</title>
<path fill="#f1f5f9" stroke="#475569" d="M367.5,-469.49C367.5,-469.49 312.5,-469.49 312.5,-469.49 306.5,-469.49 300.5,-463.49 300.5,-457.49 300.5,-457.49 300.5,-444.24 300.5,-444.24 300.5,-438.24 306.5,-432.24 312.5,-432.24 312.5,-432.24 367.5,-432.24 367.5,-432.24 373.5,-432.24 379.5,-438.24 379.5,-444.24 379.5,-444.24 379.5,-457.49 379.5,-457.49 379.5,-463.49 373.5,-469.49 367.5,-469.49"/>
<text xml:space="preserve" text-anchor="middle" x="340" y="-455.04" font-family="Helvetica,sans-Serif" font-size="11.00">👤 Usuario</text>
<text xml:space="preserve" text-anchor="middle" x="340" y="-439.29" font-family="Helvetica,sans-Serif" font-size="11.00">Operador</text>
</g>
<!-- ACT_U&#45;&gt;UC1 -->
<g id="edge1" class="edge">
<title>ACT_U&#45;&gt;UC1</title>
<path fill="none" stroke="black" d="M300.18,-440.58C264.22,-431.34 210.44,-415.39 167,-393.49 151.66,-385.75 136,-375.28 122.65,-365.42"/>
<polygon fill="black" stroke="black" points="125.11,-362.89 115.02,-359.65 120.88,-368.47 125.11,-362.89"/>
<text xml:space="preserve" text-anchor="middle" x="225.84" y="-404.74" font-family="Helvetica,sans-Serif" font-size="10.00">inicia</text>
</g>
<!-- ACT_U&#45;&gt;UC5 -->
<g id="edge2" class="edge">
<title>ACT_U&#45;&gt;UC5</title>
<path fill="none" stroke="black" d="M326.37,-431.9C313.56,-415.01 294.08,-389.32 278.55,-368.86"/>
<polygon fill="black" stroke="black" points="281.48,-366.93 272.65,-361.08 275.91,-371.16 281.48,-366.93"/>
<text xml:space="preserve" text-anchor="middle" x="337.31" y="-404.74" font-family="Helvetica,sans-Serif" font-size="10.00">monitorea</text>
</g>
<!-- ACT_U&#45;&gt;UC6 -->
<g id="edge3" class="edge">
<title>ACT_U&#45;&gt;UC6</title>
<path fill="none" stroke="black" d="M353.63,-431.9C366.44,-415.01 385.92,-389.32 401.45,-368.86"/>
<polygon fill="black" stroke="black" points="404.09,-371.16 407.35,-361.08 398.52,-366.93 404.09,-371.16"/>
<text xml:space="preserve" text-anchor="middle" x="393.67" y="-404.74" font-family="Helvetica,sans-Serif" font-size="10.00">detiene</text>
</g>
<!-- ACT_U&#45;&gt;UC7 -->
<g id="edge4" class="edge">
<title>ACT_U&#45;&gt;UC7</title>
<path fill="none" stroke="black" d="M379.91,-439.21C415.13,-429.23 467.48,-412.95 511,-393.49 529.62,-385.17 549.25,-374.33 566.08,-364.35"/>
<polygon fill="black" stroke="black" points="567.58,-367.54 574.34,-359.38 563.96,-361.54 567.58,-367.54"/>
<text xml:space="preserve" text-anchor="middle" x="510.96" y="-404.74" font-family="Helvetica,sans-Serif" font-size="10.00">configura</text>
</g>
<!-- ACT_S -->
<g id="node10" class="node">
<title>ACT_S</title>
<path fill="#f0fdf4" stroke="#16a34a" d="M779.62,-255.24C779.62,-255.24 728.38,-255.24 728.38,-255.24 722.38,-255.24 716.38,-249.24 716.38,-243.24 716.38,-243.24 716.38,-231.24 716.38,-231.24 716.38,-225.24 722.38,-219.24 728.38,-219.24 728.38,-219.24 779.62,-219.24 779.62,-219.24 785.62,-219.24 791.62,-225.24 791.62,-231.24 791.62,-231.24 791.62,-243.24 791.62,-243.24 791.62,-249.24 785.62,-255.24 779.62,-255.24"/>
<text xml:space="preserve" text-anchor="middle" x="754" y="-240.29" font-family="Helvetica,sans-Serif" font-size="11.00">☁️ Sistema</text>
<text xml:space="preserve" text-anchor="middle" x="754" y="-226.79" font-family="Helvetica,sans-Serif" font-size="11.00">en la nube</text>
</g>
<!-- ACT_S&#45;&gt;UC8 -->
<g id="edge9" class="edge">
<title>ACT_S&#45;&gt;UC8</title>
<path fill="none" stroke="black" d="M726.29,-218.81C704,-204.79 672.21,-184.79 646.23,-168.45"/>
<polygon fill="black" stroke="black" points="648.2,-165.55 637.87,-163.19 644.47,-171.48 648.2,-165.55"/>
<text xml:space="preserve" text-anchor="middle" x="701.66" y="-184.99" font-family="Helvetica,sans-Serif" font-size="10.00">recibe</text>
</g>
<!-- ACT_H -->
<g id="node11" class="node">
<title>ACT_H</title>
<path fill="#eff6ff" stroke="#2563eb" d="M893.38,-353.49C893.38,-353.49 834.62,-353.49 834.62,-353.49 828.62,-353.49 822.62,-347.49 822.62,-341.49 822.62,-341.49 822.62,-329.49 822.62,-329.49 822.62,-323.49 828.62,-317.49 834.62,-317.49 834.62,-317.49 893.38,-317.49 893.38,-317.49 899.38,-317.49 905.38,-323.49 905.38,-329.49 905.38,-329.49 905.38,-341.49 905.38,-341.49 905.38,-347.49 899.38,-353.49 893.38,-353.49"/>
<text xml:space="preserve" text-anchor="middle" x="864" y="-338.54" font-family="Helvetica,sans-Serif" font-size="11.00">⚙️ Hardware</text>
<text xml:space="preserve" text-anchor="middle" x="864" y="-325.04" font-family="Helvetica,sans-Serif" font-size="11.00">ESP32</text>
</g>
<!-- ACT_H&#45;&gt;UC2 -->
<g id="edge5" class="edge">
<title>ACT_H&#45;&gt;UC2</title>
<path fill="none" stroke="black" d="M822.33,-325.87C742.8,-309.4 568.57,-273.34 470.23,-252.99"/>
<polygon fill="black" stroke="black" points="471.19,-249.61 460.68,-251.01 469.77,-256.47 471.19,-249.61"/>
<text xml:space="preserve" text-anchor="middle" x="677.34" y="-283.24" font-family="Helvetica,sans-Serif" font-size="10.00">ejecuta</text>
</g>
<!-- ACT_H&#45;&gt;UC3 -->
<g id="edge6" class="edge">
<title>ACT_H&#45;&gt;UC3</title>
<path fill="none" stroke="black" d="M855.46,-317.17C839.27,-284.42 805.31,-216.35 801,-212.49 772.63,-187.08 758.15,-190.16 721,-181.74 621.87,-159.28 593.3,-180.25 493,-163.74 485.58,-162.52 477.89,-161.01 470.24,-159.33"/>
<polygon fill="black" stroke="black" points="471.11,-155.94 460.59,-157.12 469.55,-162.76 471.11,-155.94"/>
<text xml:space="preserve" text-anchor="middle" x="845.61" y="-234.12" font-family="Helvetica,sans-Serif" font-size="10.00">ejecuta</text>
</g>
<!-- ACT_H&#45;&gt;UC4 -->
<g id="edge7" class="edge">
<title>ACT_H&#45;&gt;UC4</title>
<path fill="none" stroke="black" d="M878.34,-317.32C896.69,-293.14 924.04,-248.05 906,-212.49 861.26,-124.29 749.86,-79.19 674.82,-58.06"/>
<polygon fill="black" stroke="black" points="676.05,-54.77 665.48,-55.51 674.21,-61.52 676.05,-54.77"/>
<text xml:space="preserve" text-anchor="middle" x="914.01" y="-184.99" font-family="Helvetica,sans-Serif" font-size="10.00">registra</text>
</g>
<!-- ACT_H&#45;&gt;UC8 -->
<g id="edge8" class="edge">
<title>ACT_H&#45;&gt;UC8</title>
<path fill="none" stroke="black" d="M868.5,-317.28C873.97,-293.06 880.97,-247.92 868,-212.49 861.85,-195.69 857.53,-190.64 842,-181.74 818.34,-168.19 757.79,-157.73 703.3,-150.67"/>
<polygon fill="black" stroke="black" points="704,-147.23 693.64,-149.45 703.12,-154.18 704,-147.23"/>
<text xml:space="preserve" text-anchor="middle" x="888.86" y="-234.12" font-family="Helvetica,sans-Serif" font-size="10.00">envía</text>
</g>
</g>
</svg>
