<?xml version="1.0" encoding="UTF-8" standalone="no"?>
<!DOCTYPE svg PUBLIC "-//W3C//DTD SVG 1.1//EN"
 "http://www.w3.org/Graphics/SVG/1.1/DTD/svg11.dtd">
<!-- Generated by graphviz version 14.1.3 (20260303.0454)
 -->
<!-- Title: circuito_esquematico Pages: 1 -->
<svg width="1014pt" height="129pt"
 viewBox="0.00 0.00 1014.00 129.00" xmlns="http://www.w3.org/2000/svg" xmlns:xlink="http://www.w3.org/1999/xlink">
<g id="graph0" class="graph" transform="scale(1 1) rotate(0) translate(4 125)">
<title>circuito_esquematico</title>
<polygon fill="white" stroke="none" points="-4,4 -4,-125 1010.25,-125 1010.25,4 -4,4"/>
<!-- PSU -->
<g id="node1" class="node">
<title>PSU</title>
<path fill="#fff7ed" stroke="#c2410c" d="M111.25,-68C111.25,-68 12,-68 12,-68 6,-68 0,-62 0,-56 0,-56 0,-44 0,-44 0,-38 6,-32 12,-32 12,-32 111.25,-32 111.25,-32 117.25,-32 123.25,-38 123.25,-44 123.25,-44 123.25,-56 123.25,-56 123.25,-62 117.25,-68 111.25,-68"/>
<text xml:space="preserve" text-anchor="middle" x="61.62" y="-45.33" font-family="Segoe UI" font-size="14.00">Fuente 5V/3.3V</text>
</g>
<!-- MCU -->
<g id="node2" class="node">
<title>MCU</title>
<path fill="#fff7ed" stroke="#c2410c" d="M474,-78C474,-78 392,-78 392,-78 386,-78 380,-72 380,-66 380,-66 380,-54 380,-54 380,-48 386,-42 392,-42 392,-42 474,-42 474,-42 480,-42 486,-48 486,-54 486,-54 486,-66 486,-66 486,-72 480,-78 474,-78"/>
<text xml:space="preserve" text-anchor="middle" x="433" y="-55.33" font-family="Segoe UI" font-size="14.00">ESP32 / MCU</text>
</g>
<!-- PSU&#45;&gt;MCU -->
<g id="edge1" class="edge">
<title>PSU&#45;&gt;MCU</title>
<path fill="none" stroke="#9a3412" stroke-width="1.4" d="M123.62,-51.65C190.99,-53.48 298.99,-56.4 367.66,-58.26"/>
<polygon fill="#9a3412" stroke="#9a3412" stroke-width="1.4" points="367.38,-61.75 377.47,-58.52 367.57,-54.75 367.38,-61.75"/>
<text xml:space="preserve" text-anchor="middle" x="247.88" y="-60.43" font-family="Times,serif" font-size="14.00">VCC</text>
</g>
<!-- DHT -->
<g id="node3" class="node">
<title>DHT</title>
<path fill="#fff7ed" stroke="#c2410c" d="M293.75,-121C293.75,-121 202,-121 202,-121 196,-121 190,-115 190,-109 190,-109 190,-97 190,-97 190,-91 196,-85 202,-85 202,-85 293.75,-85 293.75,-85 299.75,-85 305.75,-91 305.75,-97 305.75,-97 305.75,-109 305.75,-109 305.75,-115 299.75,-121 293.75,-121"/>
<text xml:space="preserve" text-anchor="middle" x="247.88" y="-98.33" font-family="Segoe UI" font-size="14.00">Sensor DHT22</text>
</g>
<!-- PSU&#45;&gt;DHT -->
<g id="edge2" class="edge">
<title>PSU&#45;&gt;DHT</title>
<path fill="none" stroke="#9a3412" stroke-width="1.4" d="M123.72,-67.57C141.17,-72.59 160.29,-78.09 178.16,-83.23"/>
<polygon fill="#9a3412" stroke="#9a3412" stroke-width="1.4" points="177.07,-86.56 187.65,-85.96 179.01,-79.84 177.07,-86.56"/>
<text xml:space="preserve" text-anchor="middle" x="156.62" y="-85.2" font-family="Times,serif" font-size="14.00">VCC</text>
</g>
<!-- REL -->
<g id="node4" class="node">
<title>REL</title>
<path fill="#fff7ed" stroke="#c2410c" d="M736,-42C736,-42 626.25,-42 626.25,-42 620.25,-42 614.25,-36 614.25,-30 614.25,-30 614.25,-18 614.25,-18 614.25,-12 620.25,-6 626.25,-6 626.25,-6 736,-6 736,-6 742,-6 748,-12 748,-18 748,-18 748,-30 748,-30 748,-36 742,-42 736,-42"/>
<text xml:space="preserve" text-anchor="middle" x="681.12" y="-19.32" font-family="Segoe UI" font-size="14.00">Módulo Relé 4CH</text>
</g>
<!-- PSU&#45;&gt;REL -->
<g id="edge3" class="edge">
<title>PSU&#45;&gt;REL</title>
<path fill="none" stroke="#9a3412" stroke-width="1.4" d="M123.64,-46.25C208.78,-41.18 368.08,-32.28 504,-28 536.12,-26.99 571.53,-26.13 602.13,-25.48"/>
<polygon fill="#9a3412" stroke="#9a3412" stroke-width="1.4" points="602,-28.98 611.93,-25.27 601.86,-21.98 602,-28.98"/>
<text xml:space="preserve" text-anchor="middle" x="342.88" y="-39.21" font-family="Times,serif" font-size="14.00">VCC</text>
</g>
<!-- MCU&#45;&gt;REL -->
<g id="edge5" class="edge">
<title>MCU&#45;&gt;REL</title>
<path fill="none" stroke="#9a3412" stroke-width="1.4" d="M486.23,-47.17C492.2,-45.92 498.22,-44.74 504,-43.75 535.86,-38.28 571.23,-33.98 601.87,-30.8"/>
<polygon fill="#9a3412" stroke="#9a3412" stroke-width="1.4" points="602.09,-34.3 611.69,-29.81 601.39,-27.33 602.09,-34.3"/>
<text xml:space="preserve" text-anchor="middle" x="550.12" y="-47.7" font-family="Times,serif" font-size="14.00">GPIO control</text>
</g>
<!-- GND -->
<g id="node6" class="node">
<title>GND</title>
<path fill="#fff7ed" stroke="#c2410c" d="M979.62,-93C979.62,-93 904.38,-93 904.38,-93 898.38,-93 892.38,-87 892.38,-81 892.38,-81 892.38,-69 892.38,-69 892.38,-63 898.38,-57 904.38,-57 904.38,-57 979.62,-57 979.62,-57 985.62,-57 991.62,-63 991.62,-69 991.62,-69 991.62,-81 991.62,-81 991.62,-87 985.62,-93 979.62,-93"/>
<text xml:space="preserve" text-anchor="middle" x="942" y="-70.33" font-family="Segoe UI" font-size="14.00">GND común</text>
</g>
<!-- MCU&#45;&gt;GND -->
<g id="edge7" class="edge">
<title>MCU&#45;&gt;GND</title>
<path fill="none" stroke="#9a3412" stroke-width="1.4" d="M486.35,-61.55C580.83,-64.34 779.34,-70.22 879.88,-73.19"/>
<polygon fill="#9a3412" stroke="#9a3412" stroke-width="1.4" points="879.71,-76.69 889.81,-73.49 879.92,-69.69 879.71,-76.69"/>
</g>
<!-- DHT&#45;&gt;MCU -->
<g id="edge4" class="edge">
<title>DHT&#45;&gt;MCU</title>
<path fill="none" stroke="#9a3412" stroke-width="1.4" d="M306.06,-88.08C312.02,-86.58 318.01,-85.12 323.75,-83.75 338.08,-80.34 353.51,-76.84 368.11,-73.62"/>
<polygon fill="#9a3412" stroke="#9a3412" stroke-width="1.4" points="368.52,-77.11 377.54,-71.55 367.02,-70.28 368.52,-77.11"/>
<text xml:space="preserve" text-anchor="middle" x="342.88" y="-87.7" font-family="Times,serif" font-size="14.00">DATA</text>
</g>
<!-- DHT&#45;&gt;GND -->
<g id="edge8" class="edge">
<title>DHT&#45;&gt;GND</title>
<path fill="none" stroke="#9a3412" stroke-width="1.4" d="M306.14,-102.15C324.03,-101.84 343.84,-101.45 362,-101 583.27,-95.49 639.07,-102.09 859.75,-85 866.39,-84.49 873.31,-83.83 880.2,-83.09"/>
<polygon fill="#9a3412" stroke="#9a3412" stroke-width="1.4" points="880.44,-86.58 889.99,-81.98 879.66,-79.63 880.44,-86.58"/>
</g>
<!-- LOAD -->
<g id="node5" class="node">
<title>LOAD</title>
<path fill="#fff7ed" stroke="#c2410c" d="M994.25,-36C994.25,-36 889.75,-36 889.75,-36 883.75,-36 877.75,-30 877.75,-24 877.75,-24 877.75,-12 877.75,-12 877.75,-6 883.75,0 889.75,0 889.75,0 994.25,0 994.25,0 1000.25,0 1006.25,-6 1006.25,-12 1006.25,-12 1006.25,-24 1006.25,-24 1006.25,-30 1000.25,-36 994.25,-36"/>
<text xml:space="preserve" text-anchor="middle" x="942" y="-13.32" font-family="Segoe UI" font-size="14.00">Cargas externas</text>
</g>
<!-- REL&#45;&gt;LOAD -->
<g id="edge6" class="edge">
<title>REL&#45;&gt;LOAD</title>
<path fill="none" stroke="#9a3412" stroke-width="1.4" d="M748.49,-19.49C754.41,-19.19 760.31,-18.94 766,-18.75 798.57,-17.66 834.57,-17.35 865.41,-17.36"/>
<polygon fill="#9a3412" stroke="#9a3412" stroke-width="1.4" points="865.27,-20.86 875.27,-17.38 865.28,-13.86 865.27,-20.86"/>
<text xml:space="preserve" text-anchor="middle" x="812.88" y="-22.7" font-family="Times,serif" font-size="14.00">Conmutación</text>
</g>
<!-- REL&#45;&gt;GND -->
<g id="edge9" class="edge">
<title>REL&#45;&gt;GND</title>
<path fill="none" stroke="#9a3412" stroke-width="1.4" d="M748.46,-37.07C789.05,-45.06 840.6,-55.22 880.15,-63.01"/>
<polygon fill="#9a3412" stroke="#9a3412" stroke-width="1.4" points="879.45,-66.44 889.93,-64.94 880.8,-59.57 879.45,-66.44"/>
</g>
</g>
</svg>
