<?xml version="1.0" encoding="UTF-8" standalone="no"?>
<!DOCTYPE svg PUBLIC "-//W3C//DTD SVG 1.1//EN"
 "http://www.w3.org/Graphics/SVG/1.1/DTD/svg11.dtd">
<!-- Generated by graphviz version 14.1.3 (20260303.0454)
 -->
<!-- Title: control_producto Pages: 1 -->
<svg width="650pt" height="67pt"
 viewBox="0.00 0.00 650.00 67.00" xmlns="http://www.w3.org/2000/svg" xmlns:xlink="http://www.w3.org/1999/xlink">
<g id="graph0" class="graph" transform="scale(1 1) rotate(0) translate(4 63)">
<title>control_producto</title>
<polygon fill="white" stroke="none" points="-4,4 -4,-63 645.5,-63 645.5,4 -4,4"/>
<!-- I -->
<g id="node1" class="node">
<title>I</title>
<path fill="#eaf6ff" stroke="#2f6f9f" d="M133.75,-36C133.75,-36 12,-36 12,-36 6,-36 0,-30 0,-24 0,-24 0,-12 0,-12 0,-6 6,0 12,0 12,0 133.75,0 133.75,0 139.75,0 145.75,-6 145.75,-12 145.75,-12 145.75,-24 145.75,-24 145.75,-30 139.75,-36 133.75,-36"/>
<text xml:space="preserve" text-anchor="middle" x="72.88" y="-13.32" font-family="Segoe UI" font-size="14.00">Entradas/Sensores</text>
</g>
<!-- P -->
<g id="node2" class="node">
<title>P</title>
<path fill="#eaf6ff" stroke="#2f6f9f" d="M323.75,-36C323.75,-36 193.75,-36 193.75,-36 187.75,-36 181.75,-30 181.75,-24 181.75,-24 181.75,-12 181.75,-12 181.75,-6 187.75,0 193.75,0 193.75,0 323.75,0 323.75,0 329.75,0 335.75,-6 335.75,-12 335.75,-12 335.75,-24 335.75,-24 335.75,-30 329.75,-36 323.75,-36"/>
<text xml:space="preserve" text-anchor="middle" x="258.75" y="-13.32" font-family="Segoe UI" font-size="14.00">Procesamiento MCU</text>
</g>
<!-- I&#45;&gt;P -->
<g id="edge1" class="edge">
<title>I&#45;&gt;P</title>
<path fill="none" stroke="#4d6b80" stroke-width="1.4" d="M146.02,-18C153.7,-18 161.58,-18 169.42,-18"/>
<polygon fill="#4d6b80" stroke="#4d6b80" stroke-width="1.4" points="169.15,-21.5 179.15,-18 169.15,-14.5 169.15,-21.5"/>
</g>
<!-- A -->
<g id="node3" class="node">
<title>A</title>
<path fill="#eaf6ff" stroke="#2f6f9f" d="M453,-59C453,-59 383.75,-59 383.75,-59 377.75,-59 371.75,-53 371.75,-47 371.75,-47 371.75,-35 371.75,-35 371.75,-29 377.75,-23 383.75,-23 383.75,-23 453,-23 453,-23 459,-23 465,-29 465,-35 465,-35 465,-47 465,-47 465,-53 459,-59 453,-59"/>
<text xml:space="preserve" text-anchor="middle" x="418.38" y="-36.33" font-family="Segoe UI" font-size="14.00">Actuadores</text>
</g>
<!-- P&#45;&gt;A -->
<g id="edge2" class="edge">
<title>P&#45;&gt;A</title>
<path fill="none" stroke="#4d6b80" stroke-width="1.4" d="M335.79,-29.1C343.75,-30.26 351.74,-31.42 359.45,-32.55"/>
<polygon fill="#4d6b80" stroke="#4d6b80" stroke-width="1.4" points="358.78,-35.99 369.18,-33.97 359.79,-29.06 358.78,-35.99"/>
</g>
<!-- R -->
<g id="node4" class="node">
<title>R</title>
<path fill="#eaf6ff" stroke="#2f6f9f" d="M629.5,-36C629.5,-36 513,-36 513,-36 507,-36 501,-30 501,-24 501,-24 501,-12 501,-12 501,-6 507,0 513,0 513,0 629.5,0 629.5,0 635.5,0 641.5,-6 641.5,-12 641.5,-12 641.5,-24 641.5,-24 641.5,-30 635.5,-36 629.5,-36"/>
<text xml:space="preserve" text-anchor="middle" x="571.25" y="-13.32" font-family="Segoe UI" font-size="14.00">Retroalimentación</text>
</g>
<!-- A&#45;&gt;R -->
<g id="edge3" class="edge">
<title>A&#45;&gt;R</title>
<path fill="none" stroke="#4d6b80" stroke-width="1.4" d="M465.46,-33.97C472.91,-32.84 480.82,-31.63 488.82,-30.41"/>
<polygon fill="#4d6b80" stroke="#4d6b80" stroke-width="1.4" points="489.1,-33.91 498.46,-28.94 488.05,-26.99 489.1,-33.91"/>
</g>
<!-- R&#45;&gt;P -->
<g id="edge4" class="edge">
<title>R&#45;&gt;P</title>
<path fill="none" stroke="#4d6b80" stroke-width="1.4" d="M500.62,-14.98C488.74,-14.57 476.52,-14.22 465,-14 423.56,-13.21 413.19,-13.26 371.75,-14 363.97,-14.14 355.89,-14.33 347.8,-14.56"/>
<polygon fill="#4d6b80" stroke="#4d6b80" stroke-width="1.4" points="347.96,-11.05 338.07,-14.85 348.17,-18.05 347.96,-11.05"/>
</g>
</g>
</svg>
