<?xml version="1.0" encoding="UTF-8" standalone="no"?>
<!DOCTYPE svg PUBLIC "-//W3C//DTD SVG 1.1//EN"
 "http://www.w3.org/Graphics/SVG/1.1/DTD/svg11.dtd">
<!-- Generated by graphviz version 14.1.3 (20260303.0454)
 -->
<!-- Title: grafica_pruebas Pages: 1 -->
<svg width="286pt" height="253pt"
 viewBox="0.00 0.00 286.00 253.00" xmlns="http://www.w3.org/2000/svg" xmlns:xlink="http://www.w3.org/1999/xlink">
<g id="graph0" class="graph" transform="scale(1 1) rotate(0) translate(36 216.5)">
<title>grafica_pruebas</title>
<polygon fill="white" stroke="none" points="-36,36 -36,-216.5 250.25,-216.5 250.25,36 -36,36"/>
<text xml:space="preserve" text-anchor="middle" x="107.12" y="-165.1" font-family="Helvetica,sans-Serif" font-size="12.00">Gráfica de Pruebas y Resultados</text>
<text xml:space="preserve" text-anchor="middle" x="107.12" y="-150.85" font-family="Helvetica,sans-Serif" font-size="12.00">Estado de validación del sistema</text>
<!-- A -->
<g id="node1" class="node">
<title>A</title>
<path fill="#e2e8f0" stroke="#475569" d="M96.25,-90C96.25,-90 12,-90 12,-90 6,-90 0,-84 0,-78 0,-78 0,-66 0,-66 0,-60 6,-54 12,-54 12,-54 96.25,-54 96.25,-54 102.25,-54 108.25,-60 108.25,-66 108.25,-66 108.25,-78 108.25,-78 108.25,-84 102.25,-90 96.25,-90"/>
<text xml:space="preserve" text-anchor="middle" x="54.12" y="-75.25" font-family="Helvetica,sans-Serif" font-size="10.00">Pruebas planeadas</text>
<text xml:space="preserve" text-anchor="middle" x="54.12" y="-62.5" font-family="Helvetica,sans-Serif" font-size="10.00">6</text>
</g>
<!-- B -->
<g id="node2" class="node">
<title>B</title>
<path fill="#bbf7d0" stroke="#15803d" d="M201.12,-144C201.12,-144 157.38,-144 157.38,-144 151.38,-144 145.38,-138 145.38,-132 145.38,-132 145.38,-120 145.38,-120 145.38,-114 151.38,-108 157.38,-108 157.38,-108 201.12,-108 201.12,-108 207.12,-108 213.12,-114 213.12,-120 213.12,-120 213.12,-132 213.12,-132 213.12,-138 207.12,-144 201.12,-144"/>
<text xml:space="preserve" text-anchor="middle" x="179.25" y="-129.25" font-family="Helvetica,sans-Serif" font-size="10.00">Aprobadas</text>
<text xml:space="preserve" text-anchor="middle" x="179.25" y="-116.5" font-family="Helvetica,sans-Serif" font-size="10.00">0</text>
</g>
<!-- A&#45;&gt;B -->
<g id="edge1" class="edge">
<title>A&#45;&gt;B</title>
<path fill="none" stroke="#64748b" d="M97.15,-90.43C109.22,-95.73 122.41,-101.51 134.58,-106.85"/>
<polygon fill="#64748b" stroke="#64748b" points="133,-109.98 143.56,-110.79 135.81,-103.57 133,-109.98"/>
</g>
<!-- C -->
<g id="node3" class="node">
<title>C</title>
<path fill="#fde68a" stroke="#92400e" d="M202.25,-90C202.25,-90 156.25,-90 156.25,-90 150.25,-90 144.25,-84 144.25,-78 144.25,-78 144.25,-66 144.25,-66 144.25,-60 150.25,-54 156.25,-54 156.25,-54 202.25,-54 202.25,-54 208.25,-54 214.25,-60 214.25,-66 214.25,-66 214.25,-78 214.25,-78 214.25,-84 208.25,-90 202.25,-90"/>
<text xml:space="preserve" text-anchor="middle" x="179.25" y="-75.25" font-family="Helvetica,sans-Serif" font-size="10.00">Pendientes</text>
<text xml:space="preserve" text-anchor="middle" x="179.25" y="-62.5" font-family="Helvetica,sans-Serif" font-size="10.00">6</text>
</g>
<!-- A&#45;&gt;C -->
<g id="edge2" class="edge">
<title>A&#45;&gt;C</title>
<path fill="none" stroke="#64748b" d="M108.41,-72C116.54,-72 124.85,-72 132.79,-72"/>
<polygon fill="#64748b" stroke="#64748b" points="132.56,-75.5 142.56,-72 132.56,-68.5 132.56,-75.5"/>
</g>
<!-- D -->
<g id="node4" class="node">
<title>D</title>
<path fill="#fecaca" stroke="#dc2626" d="M197,-36C197,-36 161.5,-36 161.5,-36 155.5,-36 149.5,-30 149.5,-24 149.5,-24 149.5,-12 149.5,-12 149.5,-6 155.5,0 161.5,0 161.5,0 197,0 197,0 203,0 209,-6 209,-12 209,-12 209,-24 209,-24 209,-30 203,-36 197,-36"/>
<text xml:space="preserve" text-anchor="middle" x="179.25" y="-21.25" font-family="Helvetica,sans-Serif" font-size="10.00">Con fallo</text>
<text xml:space="preserve" text-anchor="middle" x="179.25" y="-8.5" font-family="Helvetica,sans-Serif" font-size="10.00">0</text>
</g>
<!-- A&#45;&gt;D -->
<g id="edge3" class="edge">
<title>A&#45;&gt;D</title>
<path fill="none" stroke="#64748b" d="M97.15,-53.57C110.68,-47.64 125.6,-41.09 138.92,-35.25"/>
<polygon fill="#64748b" stroke="#64748b" points="140.07,-38.57 147.82,-31.35 137.25,-32.16 140.07,-38.57"/>
</g>
</g>
</svg>
